<svg width="512" height="512" viewBox="0 0 512 512" fill="none" xmlns="http://www.w3.org/2000/svg">
<path d="M464 7.23999H48C25.944 7.23999 8 25.184 8 47.24V351.24C8 373.296 25.944 391.24 48 391.24H176V439.24H160C142.352 439.24 128 453.592 128 471.24V495.24C128 499.656 131.584 503.24 136 503.24H376C380.416 503.24 384 499.656 384 495.24V471.24C384 453.592 369.648 439.24 352 439.24H336V391.24H464C486.056 391.24 504 373.296 504 351.24V47.24C504 25.184 486.056 7.23999 464 7.23999V7.23999ZM48 23.24H464C477.232 23.24 488 34.008 488 47.24V295.24H24V47.24C24 34.008 34.768 23.24 48 23.24V23.24ZM368 471.24V487.24H144V471.24C144 462.416 151.176 455.24 160 455.24H352C360.824 455.24 368 462.416 368 471.24ZM320 439.24H192V391.24H320V439.24ZM464 375.24H48C34.768 375.24 24 364.472 24 351.24V311.24H488V351.24C488 364.48 477.232 375.24 464 375.24Z" fill="#010181"/>
<path d="M72 145.76V271.24C72 275.656 75.584 279.24 80 279.24H240C244.416 279.24 248 275.656 248 271.24V79.24C248 74.824 244.416 71.24 240 71.24H146.52C137.512 52.352 118.28 39.24 96 39.24C65.12 39.24 40 64.36 40 95.24C40 117.528 53.112 136.752 72 145.76V145.76ZM232 87.24V263.24H88V150.6C90.624 150.976 93.28 151.24 96 151.24C98.72 151.24 101.376 150.976 104 150.6V175.24C104 179.656 107.584 183.24 112 183.24H208C212.416 183.24 216 179.656 216 175.24V111.24C216 106.824 212.416 103.24 208 103.24H151.36C151.736 100.616 152 97.96 152 95.24C152 92.52 151.736 89.864 151.36 87.24H232ZM146.52 119.24H200V167.24H120V145.76C131.6 140.232 140.984 130.84 146.52 119.24V119.24ZM96 55.24C118.056 55.24 136 73.184 136 95.24C136 117.296 118.056 135.24 96 135.24C73.944 135.24 56 117.296 56 95.24C56 73.184 73.944 55.24 96 55.24Z" fill="#010181"/>
<path d="M88 119.24C90.048 119.24 92.096 118.456 93.656 116.896L125.656 84.896L114.344 73.584L88 99.928L77.656 89.584L66.344 100.896L82.344 116.896C83.904 118.464 85.952 119.24 88 119.24V119.24Z" fill="#010181"/>
<path d="M296 145.76V271.24C296 275.656 299.584 279.24 304 279.24H464C468.416 279.24 472 275.656 472 271.24V79.24C472 74.824 468.416 71.24 464 71.24H370.52C361.512 52.352 342.28 39.24 320 39.24C289.12 39.24 264 64.36 264 95.24C264 117.528 277.112 136.752 296 145.76V145.76ZM456 87.24V263.24H312V150.6C314.624 150.976 317.28 151.24 320 151.24C322.72 151.24 325.376 150.976 328 150.6V175.24C328 179.656 331.584 183.24 336 183.24H432C436.416 183.24 440 179.656 440 175.24V111.24C440 106.824 436.416 103.24 432 103.24H375.36C375.736 100.616 376 97.96 376 95.24C376 92.52 375.736 89.864 375.36 87.24H456ZM370.52 119.24H424V167.24H344V145.76C355.6 140.232 364.984 130.84 370.52 119.24V119.24ZM320 55.24C342.056 55.24 360 73.184 360 95.24C360 117.296 342.056 135.24 320 135.24C297.944 135.24 280 117.296 280 95.24C280 73.184 297.944 55.24 320 55.24Z" fill="#010181"/>
<path d="M309.656 116.896L320 106.552L330.344 116.896L341.656 105.584L331.312 95.24L341.656 84.896L330.344 73.584L320 83.928L309.656 73.584L298.344 84.896L308.688 95.24L298.344 105.584L309.656 116.896Z" fill="#010181"/>
<path d="M104 199.24H216V215.24H104V199.24Z" fill="#010181"/>
<path d="M104 231.24H216V247.24H104V231.24Z" fill="#010181"/>
<path d="M328 199.24H440V215.24H328V199.24Z" fill="#010181"/>
<path d="M328 231.24H440V247.24H328V231.24Z" fill="#010181"/>
<path d="M456 343.24H472V359.24H456V343.24Z" fill="#010181"/>
<path d="M424 343.24H440V359.24H424V343.24Z" fill="#010181"/>
</svg>
