<svg width="512" height="512" viewBox="0 0 512 512" fill="none" xmlns="http://www.w3.org/2000/svg">
<path d="M496 256C496.014 218.922 487.433 182.346 470.933 149.142C454.432 115.939 430.46 87.0115 400.898 64.6316C371.336 42.2516 336.99 27.028 300.554 20.1558C264.119 13.2837 226.587 14.95 190.904 25.024C167.718 15.8137 142.343 13.5943 117.91 18.6397C93.4772 23.6851 71.0566 35.7745 53.4155 53.4155C35.7745 71.0566 23.6851 93.4772 18.6397 117.91C13.5943 142.343 15.8137 167.718 25.024 190.904C13.4338 231.956 12.9988 275.357 23.7637 316.633C34.5285 357.91 56.1041 395.57 86.2672 425.733C116.43 455.896 154.09 477.471 195.367 488.236C236.643 499.001 280.044 498.566 321.096 486.976C344.282 496.186 369.657 498.406 394.09 493.36C418.523 488.315 440.943 476.226 458.584 458.584C476.226 440.943 488.315 418.523 493.36 394.09C498.406 369.657 496.186 344.282 486.976 321.096C492.95 299.913 495.986 278.009 496 256V256ZM240.704 354.656C218.698 360.5 195.696 361.567 173.244 357.785C150.791 354.003 129.408 345.459 110.531 332.728C91.6546 319.997 75.721 303.373 63.8012 283.974C51.8814 264.574 44.2515 242.849 41.424 220.256C56.7588 240.966 77.9951 256.558 102.347 264.986C126.7 273.413 153.031 274.284 177.887 267.483C202.742 260.682 224.962 246.527 241.632 226.876C258.301 207.224 268.641 182.992 271.296 157.36C293.302 151.516 316.304 150.449 338.756 154.231C361.209 158.013 382.592 166.557 401.469 179.288C420.345 192.019 436.279 208.643 448.199 228.042C460.119 247.442 467.749 269.167 470.576 291.76C455.241 271.05 434.005 255.458 409.653 247.03C385.3 238.603 358.969 237.732 334.113 244.533C309.258 251.334 287.038 265.488 270.368 285.14C253.699 304.792 243.359 329.024 240.704 354.656V354.656ZM256 32C315.388 32.0677 372.324 55.6894 414.317 97.6829C456.311 139.676 479.932 196.612 480 256C480 257.064 479.904 258.112 479.888 259.2C466.592 216.82 437.745 181.044 399.148 159.065C360.551 137.085 315.064 130.531 271.832 140.72C271.291 119.815 265.632 99.3619 255.35 81.1524C245.068 62.9429 230.477 47.5327 212.856 36.272C227.067 33.4655 241.515 32.0349 256 32V32ZM144 32C166.152 32 187.806 38.5687 206.224 50.8754C224.642 63.1821 238.997 80.6741 247.475 101.139C255.952 121.605 258.169 144.124 253.848 165.85C249.526 187.576 238.859 207.532 223.196 223.196C207.532 238.859 187.576 249.526 165.85 253.848C144.124 258.169 121.605 255.952 101.139 247.474C80.6741 238.997 63.1821 224.642 50.8754 206.224C38.5687 187.806 32 166.151 32 144C32.0318 114.305 43.8419 85.8363 64.8391 64.8391C85.8363 43.8419 114.306 32.0318 144 32V32ZM256 480C196.612 479.932 139.676 456.311 97.6829 414.317C55.6894 372.324 32.0678 315.388 32 256C32 254.936 32.096 253.888 32.112 252.8C45.4084 295.18 74.2546 330.956 112.852 352.935C151.449 374.915 196.936 381.469 240.168 371.28C240.714 392.179 246.376 412.626 256.658 430.83C266.939 449.033 281.527 464.438 299.144 475.696C284.934 478.513 270.486 479.955 256 480V480ZM368 480C345.848 480 324.194 473.431 305.776 461.125C287.358 448.818 273.002 431.326 264.525 410.861C256.048 390.395 253.83 367.876 258.152 346.15C262.474 324.424 273.141 304.468 288.804 288.804C304.468 273.141 324.424 262.474 346.15 258.152C367.876 253.83 390.395 256.048 410.861 264.525C431.326 273.002 448.818 287.358 461.125 305.776C473.431 324.194 480 345.848 480 368C479.968 397.694 468.158 426.164 447.161 447.161C426.164 468.158 397.694 479.968 368 480V480Z" fill="#010181"/>
<path d="M352 320H384C388.243 320 392.313 321.686 395.314 324.686C398.314 327.687 400 331.757 400 336H416C416 327.513 412.629 319.374 406.627 313.373C400.626 307.371 392.487 304 384 304H376V288H360V304H352C343.513 304 335.374 307.371 329.373 313.373C323.371 319.374 320 327.513 320 336V344C320 352.487 323.371 360.626 329.373 366.627C335.374 372.629 343.513 376 352 376H384C388.243 376 392.313 377.686 395.314 380.686C398.314 383.687 400 387.757 400 392V400C400 404.243 398.314 408.313 395.314 411.314C392.313 414.314 388.243 416 384 416H352C347.757 416 343.687 414.314 340.686 411.314C337.686 408.313 336 404.243 336 400H320C320 408.487 323.371 416.626 329.373 422.627C335.374 428.629 343.513 432 352 432H360V448H376V432H384C392.487 432 400.626 428.629 406.627 422.627C412.629 416.626 416 408.487 416 400V392C416 383.513 412.629 375.374 406.627 369.373C400.626 363.371 392.487 360 384 360H352C347.757 360 343.687 358.314 340.686 355.314C337.686 352.313 336 348.243 336 344V336C336 331.757 337.686 327.687 340.686 324.686C343.687 321.686 347.757 320 352 320Z" fill="#010181"/>
<path d="M168 224H184V208H168C157.416 207.986 147.052 204.972 138.111 199.308C129.169 193.645 122.016 185.563 117.48 176H160V160H112.64C112.236 157.352 112.022 154.679 112 152V136C112.022 133.321 112.236 130.648 112.64 128H160V112H117.48C122.016 102.437 129.169 94.3554 138.111 88.6918C147.052 83.0281 157.416 80.0145 168 80H184V64H168C153.127 64.0263 138.627 68.6538 126.488 77.2477C114.349 85.8415 105.166 97.9807 100.2 112H80V128H96.472C96.1652 130.656 96.0076 133.327 96 136V152C96.0076 154.673 96.1652 157.344 96.472 160H80V176H100.2C105.166 190.019 114.349 202.158 126.488 210.752C138.627 219.346 153.127 223.974 168 224V224Z" fill="#010181"/>
</svg>
