<svg width="480" height="480" viewBox="0 0 480 480" fill="none" xmlns="http://www.w3.org/2000/svg">
<path d="M434.344 98.344L445.656 109.656L477.656 77.656C479.156 76.1558 479.998 74.1213 479.998 72C479.998 69.8787 479.156 67.8442 477.656 66.344L445.656 34.344L434.344 45.656L452.688 64H360V80H452.688L434.344 98.344Z" fill="#010181"/>
<path d="M386.344 173.656L397.656 162.344L379.312 144H472V128H379.312L397.656 109.656L386.344 98.344L354.344 130.344C352.844 131.844 352.002 133.879 352.002 136C352.002 138.121 352.844 140.156 354.344 141.656L386.344 173.656Z" fill="#010181"/>
<path d="M470.64 233.36C464.969 227.671 457.357 224.336 449.33 224.024C441.303 223.713 433.455 226.447 427.36 231.68C424.562 226.908 420.565 222.951 415.766 220.2C410.967 217.45 405.532 216.002 400 216C396.422 215.95 392.867 216.574 389.52 217.84C385.812 219.15 382.39 221.16 379.44 223.76C376.625 218.98 372.615 215.014 367.804 212.251C362.994 209.488 357.548 208.023 352 208C346.37 208.016 340.847 209.535 336 212.4V80C336 71.5131 332.629 63.3737 326.627 57.3726C320.626 51.3714 312.487 48 304 48C298.37 48.0163 292.847 49.5353 288 52.4V24C287.981 17.6406 285.446 11.5472 280.95 7.05042C276.453 2.55366 270.359 0.0189927 264 0H72C65.6406 0.0189927 59.5472 2.55366 55.0504 7.05042C50.5537 11.5472 48.019 17.6406 48 24V184H40C29.3913 184 19.2172 188.214 11.7157 195.716C4.21427 203.217 0 213.391 0 224V256.72L16 424.4V472C16 474.122 16.8429 476.157 18.3431 477.657C19.8434 479.157 21.8783 480 24 480H200C202.122 480 204.157 479.157 205.657 477.657C207.157 476.157 208 474.122 208 472V426.56L237.76 384H254.96L264 409.36V472C264 474.122 264.843 476.157 266.343 477.657C267.843 479.157 269.878 480 272 480H432C434.122 480 436.157 479.157 437.657 477.657C439.157 476.157 440 474.122 440 472V409.36L476.72 306.48C478.881 300.447 479.99 294.088 480 287.68V256C480.003 251.796 479.178 247.633 477.572 243.749C475.966 239.864 473.611 236.334 470.64 233.36ZM192 464H32V432H192V464ZM195.84 416H31.28L16 256V224C16.019 217.641 18.5537 211.547 23.0504 207.05C27.5472 202.554 33.6406 200.019 40 200H96C102.365 200 108.47 202.529 112.971 207.029C117.471 211.53 120 217.635 120 224C120 230.365 117.471 236.47 112.971 240.971C108.47 245.471 102.365 248 96 248H56C53.8783 248 51.8434 248.843 50.3431 250.343C48.8429 251.843 48 253.878 48 256V360C48.019 366.359 50.5537 372.453 55.0504 376.95C59.5472 381.446 65.6406 383.981 72 384H218.24L195.84 416ZM72 368C69.8783 368 67.8434 367.157 66.3431 365.657C64.8429 364.157 64 362.122 64 360V336H208V320H64V264H96C106.609 264 116.783 259.786 124.284 252.284C131.786 244.783 136 234.609 136 224C136 213.391 131.786 203.217 124.284 195.716C116.783 188.214 106.609 184 96 184H64V24C64 21.8783 64.8429 19.8434 66.3431 18.3431C67.8434 16.8429 69.8783 16 72 16H264C266.122 16 268.157 16.8429 269.657 18.3431C271.157 19.8434 272 21.8783 272 24V188.48C267.142 185.564 261.586 184.016 255.92 184C247.461 184.021 239.354 187.391 233.372 193.372C227.391 199.354 224.021 207.461 224 215.92V287.68C224.016 294.114 225.125 300.498 227.28 306.56L249.2 368H72ZM304 464H280V416H304V464ZM344 464H320V416H344V464ZM384 464H360V416H384V464ZM424 464H400V416H424V464ZM464 287.68C463.99 292.259 463.206 296.803 461.68 301.12L426.4 400H277.6L242.32 301.2C240.8 296.854 240.016 292.284 240 287.68V215.92C240.011 211.677 241.706 207.611 244.715 204.618C247.723 201.625 251.797 199.949 256.04 199.96C260.283 199.971 264.349 201.666 267.342 204.675C270.335 207.683 272.011 211.757 272 216V280H288V80C288.031 75.7662 289.727 71.7148 292.721 68.721C295.715 65.7272 299.766 64.0314 304 64C308.24 64.0127 312.302 65.7024 315.3 68.7003C318.298 71.6981 319.987 75.7604 320 80V280H336V240C336.031 235.766 337.727 231.715 340.721 228.721C343.715 225.727 347.766 224.031 352 224C356.24 224.013 360.302 225.702 363.3 228.7C366.298 231.698 367.987 235.76 368 240V280H384V248C384.001 245.901 384.419 243.823 385.23 241.887C386.04 239.951 387.226 238.194 388.72 236.72C390.412 234.935 392.532 233.613 394.88 232.88C396.522 232.29 398.255 231.992 400 232C404.24 232.013 408.302 233.702 411.3 236.7C414.298 239.698 415.987 243.76 416 248V288H432V256C432.013 251.76 433.702 247.698 436.7 244.7C439.698 241.702 443.76 240.013 448 240C452.234 240.031 456.285 241.727 459.279 244.721C462.273 247.715 463.969 251.766 464 256V287.68Z" fill="#010181"/>
<path d="M168 32C152.177 32 136.71 36.6919 123.554 45.4824C110.398 54.2729 100.145 66.7672 94.0896 81.3853C88.0346 96.0034 86.4503 112.089 89.5372 127.607C92.624 143.126 100.243 157.38 111.431 168.569C122.62 179.757 136.874 187.376 152.393 190.463C167.911 193.55 183.997 191.965 198.615 185.91C213.233 179.855 225.727 169.602 234.518 156.446C243.308 143.29 248 127.823 248 112C247.966 90.7931 239.527 70.4644 224.531 55.4688C209.536 40.4733 189.207 32.0338 168 32ZM168 176C155.342 176 142.968 172.246 132.443 165.214C121.919 158.182 113.716 148.186 108.872 136.492C104.028 124.797 102.76 111.929 105.23 99.5142C107.699 87.0994 113.795 75.6957 122.745 66.7452C131.696 57.7946 143.099 51.6992 155.514 49.2297C167.929 46.7603 180.797 48.0277 192.492 52.8717C204.186 57.7157 214.182 65.9188 221.214 76.4435C228.246 86.9683 232 99.342 232 112C231.977 128.967 225.226 145.232 213.229 157.229C201.232 169.226 184.967 175.977 168 176V176Z" fill="#010181"/>
<path d="M192 128C191.975 132.949 190.425 137.77 187.562 141.806C184.699 145.843 180.662 148.899 176 150.56V160H160V150.56C155.338 148.899 151.301 145.843 148.438 141.806C145.575 137.77 144.025 132.949 144 128H160C160 129.582 160.469 131.129 161.348 132.445C162.227 133.76 163.477 134.786 164.939 135.391C166.4 135.997 168.009 136.155 169.561 135.846C171.113 135.538 172.538 134.776 173.657 133.657C174.776 132.538 175.538 131.113 175.846 129.561C176.155 128.009 175.997 126.4 175.391 124.939C174.786 123.477 173.76 122.227 172.445 121.348C171.129 120.469 169.582 120 168 120C162.372 119.956 156.938 117.936 152.648 114.292C148.358 110.648 145.486 105.612 144.533 100.065C143.58 94.5177 144.607 88.8119 147.434 83.9451C150.261 79.0782 154.709 75.3598 160 73.44V64H176V73.44C180.662 75.1005 184.699 78.1571 187.562 82.1938C190.425 86.2305 191.975 91.0512 192 96H176C176 94.4177 175.531 92.871 174.652 91.5554C173.773 90.2398 172.523 89.2145 171.061 88.609C169.6 88.0035 167.991 87.845 166.439 88.1537C164.887 88.4624 163.462 89.2243 162.343 90.3431C161.224 91.462 160.462 92.8874 160.154 94.4393C159.845 95.9911 160.003 97.5997 160.609 99.0615C161.214 100.523 162.24 101.773 163.555 102.652C164.871 103.531 166.418 104 168 104C174.359 104.019 180.453 106.554 184.95 111.05C189.446 115.547 191.981 121.641 192 128V128Z" fill="#010181"/>
</svg>
