<svg width="391" height="71" viewBox="0 0 391 71" fill="none" xmlns="http://www.w3.org/2000/svg">
<path d="M59.9863 0.175781L58.5215 7.5H21.9004L17.2129 30.9375H52.125L50.6602 38.2617H15.748L9.40039 70H0.367188L14.332 0.175781H59.9863ZM79.8105 0.175781L67.3105 62.6758H103.834L102.369 70H56.8125L70.7773 0.175781H79.8105ZM118.043 43.0469L126.637 0.175781H135.67L127.076 43.0469C124.407 56.4583 129.745 63.1641 143.092 63.1641C156.438 63.1641 164.446 56.4583 167.115 43.0469L175.709 0.175781H184.742L176.148 43.0469C172.503 61.3411 160.995 70.4883 141.627 70.4883C122.258 70.4883 114.397 61.3411 118.043 43.0469ZM186.891 70L200.855 0.175781H230.641C243.922 0.175781 249.439 5.75846 247.193 16.9238C245.403 26.0059 237.574 33.0534 223.707 38.0664L241.09 70H230.152L214.234 38.6035L215.406 32.6953C228.525 30.5794 235.898 25.4525 237.525 17.3145C238.795 10.8691 235.719 7.64648 228.297 7.64648H208.375L195.924 70H186.891ZM253.443 70H243.58L287.184 0.175781H297.193L313.014 70H303.492L298.854 48.0273H275.758L279.713 40.7031H297.291L290.602 9.0625L253.443 70ZM329.42 0.175781H339.088L351.93 36.6504L379.615 0.175781H390.455L354.713 45.5859L349.83 70H340.797L345.68 45.5859L329.42 0.175781Z" fill="white"/>
</svg>
