<svg width="299" height="110" viewBox="0 0 299 110" fill="none" xmlns="http://www.w3.org/2000/svg">
<path d="M86.3066 14.062C86.376 14.1961 86.7158 14.5027 87.0618 14.7433C87.6437 15.1481 88.5134 15.8942 90.4061 17.6143L90.8794 17.6057C90.7463 17.4798 90.6091 17.3557 90.4781 17.2442C90.1285 16.9463 89.3586 16.2436 88.7671 15.6825C87.7349 14.7036 86.5657 13.8184 86.3046 13.8184C86.197 13.8184 86.1972 13.8508 86.3066 14.062Z" fill="#010181"/>
<path fill-rule="evenodd" clip-rule="evenodd" d="M49.093 0.058871C48.738 0.0983403 48.1649 0.191983 47.8193 0.267052C46.2378 0.610581 45.1634 0.765019 43.927 0.82676C42.4344 0.901313 42.1763 0.977844 42.2624 1.32051C42.3174 1.5397 42.3137 1.54151 41.9404 1.482C41.0513 1.34029 40.3149 1.48768 40.3149 1.80739C40.3149 1.92734 38.7665 2.22822 38.0632 2.24508C37.7434 2.25273 37.6175 2.30252 37.4434 2.49023C37.3233 2.61973 37.1464 2.72576 37.0505 2.72576C36.9545 2.72576 36.73 2.77787 36.5515 2.8415C35.6916 3.14831 35.6558 3.15399 35.4029 3.02337C35.2692 2.95423 35.0797 2.89774 34.9819 2.89774C34.8366 2.89774 34.8133 2.936 34.8559 3.1054C34.9019 3.28839 34.8587 3.33508 34.4918 3.49889C34.2629 3.60113 33.7657 3.76073 33.3871 3.85343C32.465 4.07924 32.2603 4.16368 31.732 4.53593C31.4843 4.71049 30.7097 5.11421 30.0108 5.43323C29.3118 5.75217 28.5379 6.16372 28.2912 6.34765C28.0444 6.53158 27.7346 6.7279 27.6027 6.78387C27.4708 6.83994 27.2661 6.97047 27.1477 7.07409C27.0294 7.17771 26.7777 7.30867 26.5883 7.36517C25.9184 7.56501 25.7751 7.64867 25.6028 7.94044C25.478 8.1518 25.276 8.30443 24.8897 8.47942C24.59 8.61511 24.1591 8.90954 23.9189 9.14266C23.6814 9.37329 23.1392 9.80564 22.7141 10.1035C22.2889 10.4013 21.6119 10.935 21.2096 11.2895C19.9477 12.4012 19.7231 12.5744 18.9608 13.0225C18.2623 13.4332 17.0787 14.4709 17.0787 14.6727C17.0787 14.7231 17.1368 14.7643 17.2078 14.7643C17.2788 14.7643 17.3369 14.798 17.3369 14.8391C17.3369 14.9226 16.841 15.0199 16.4077 15.0214C16.1753 15.0221 16.0977 15.0729 15.9784 15.3018C15.8984 15.4554 15.4615 15.9488 15.0077 16.3981C14.5538 16.8474 14.0142 17.4279 13.8085 17.688C13.6029 17.9481 13.0944 18.5092 12.6785 18.9348C12.1695 19.4558 11.8861 19.8204 11.8112 20.0505C11.724 20.3184 11.5922 20.4635 11.2009 20.722C10.6053 21.1157 10.4399 21.3926 10.6573 21.6325C10.7913 21.7806 10.7919 21.7988 10.6639 21.8478C10.587 21.8773 10.4595 21.9027 10.3805 21.9041C10.2127 21.9072 9.8154 22.4184 9.41324 23.1483C9.08681 23.7407 8.64963 24.388 8.07957 25.1229C7.8608 25.405 7.54944 25.8984 7.38764 26.2194C7.22585 26.5405 6.95588 27.018 6.7878 27.2806C6.61964 27.5431 6.38711 28.0103 6.27093 28.3186C6.15475 28.627 5.87385 29.157 5.64656 29.4964C5.17883 30.195 3.83603 32.9013 3.50573 33.8111C3.38551 34.1421 3.08455 34.8193 2.83704 35.3159C2.58945 35.8125 2.30717 36.451 2.20975 36.7347C2.11242 37.0185 1.89391 37.5398 1.7242 37.8932C1.55458 38.2465 1.41576 38.6406 1.41576 38.769C1.41576 38.8973 1.37704 39.1041 1.3297 39.2284C1.19158 39.5914 1.36094 39.8187 1.72532 39.7597C1.88643 39.7335 2.01818 39.7458 2.01818 39.7869C2.01818 39.8655 1.89839 39.9101 1.43822 40.0025C1.28495 40.0334 1.1303 40.104 1.09459 40.1594C0.893464 40.4718 0.539327 42.5037 0.616179 42.9051C0.640189 43.0308 0.599397 43.311 0.525471 43.5277C0.381923 43.9487 0.402922 44.0821 0.67031 44.4485L0.840193 44.6813L0.525557 45.0292C0.10567 45.4936 0.117805 45.58 0.641222 45.8548C0.895185 45.9882 0.915409 46.0184 0.770312 46.0477C0.4438 46.1135 0.279856 46.3387 0.320906 46.6648C0.341905 46.8313 0.298101 47.2384 0.223659 47.5694C0.116858 48.0443 0.089491 48.6887 0.0940521 50.6221C0.0972364 51.97 0.130197 53.4237 0.167203 53.8527C0.21686 54.4278 0.204381 54.7214 0.119784 54.9706C0.0532597 55.1666 0.00317273 55.7055 0.000418804 56.254C-0.00353996 57.0659 0.0184914 57.2221 0.15636 57.3603C0.284331 57.4885 0.30533 57.5934 0.25989 57.8767C0.0446537 59.2174 0.0664269 59.9385 0.347929 60.7904C0.471856 61.1652 0.471081 61.2346 0.338463 61.6335C0.22297 61.9809 0.213762 62.1159 0.292421 62.3058C0.362904 62.4758 0.365916 62.6518 0.303006 62.9245C0.178821 63.463 0.190095 63.6594 0.354642 63.8238C0.459807 63.9289 0.493973 64.0978 0.482097 64.4534C0.473147 64.7207 0.52418 65.1522 0.595524 65.4123C0.666868 65.6724 0.725733 66.0067 0.726249 66.1551C0.726938 66.3232 0.844582 66.5953 1.03839 66.8768C1.30879 67.2696 1.35268 67.4042 1.37351 67.9049C1.40225 68.5983 1.58857 68.9963 1.95656 69.1509C2.22085 69.2619 2.2224 69.2658 2.01552 69.2949C1.69976 69.3394 1.69727 69.6895 2.00846 70.28C2.18574 70.6162 2.24418 70.8151 2.19375 70.9093C2.14736 70.9958 2.16173 71.1042 2.23221 71.2005C2.29401 71.285 2.39254 71.6133 2.45124 71.9303C2.51002 72.2472 2.66665 72.7822 2.79935 73.1193C2.93205 73.4563 3.10288 73.9787 3.17896 74.2802C3.61391 76.0041 4.59095 78.3165 5.24535 79.1707C5.55439 79.5741 7.00829 82.5206 7.01036 82.7478C7.01104 82.82 8.28224 84.9808 8.77605 85.7489C9.39628 86.7139 9.84208 87.2885 10.7281 88.2655C11.2626 88.8548 11.8263 89.5142 11.9807 89.7308C12.1351 89.9474 12.7384 90.5912 13.3214 91.1614C13.9044 91.7316 14.719 92.5851 15.1318 93.058C16.3294 94.4302 16.455 94.5543 16.7091 94.6162C16.8445 94.6491 17.1481 94.8921 17.4042 95.1728C17.7099 95.5078 18.034 95.754 18.3939 95.9248C18.9761 96.201 19.1394 96.3521 19.5912 97.0338C20.3225 98.1371 23.323 100.561 24.9948 101.399C25.4437 101.624 25.9278 101.896 26.0706 102.004C26.3323 102.203 28.6954 103.514 28.9782 103.618C29.062 103.649 29.3524 103.824 29.6237 104.008C29.8948 104.192 30.3879 104.477 30.7192 104.641C31.3311 104.944 33.1199 105.561 33.9034 105.739C34.1847 105.802 34.5127 105.975 34.8501 106.237C35.5327 106.766 36.0796 106.977 38.0343 107.464C38.9336 107.688 39.8825 107.934 40.1428 108.01C40.4031 108.086 41.0615 108.185 41.6058 108.231C42.1501 108.276 42.7891 108.371 43.0258 108.441C43.2625 108.511 43.9596 108.666 44.5749 108.785C45.1902 108.904 46.139 109.097 46.6834 109.214C47.2277 109.331 48.0797 109.45 48.5767 109.48C49.0737 109.51 49.8676 109.59 50.3409 109.658C52.8242 110.015 53.3697 110.052 54.6744 109.952C55.3676 109.899 56.5157 109.783 57.2257 109.695C57.9357 109.606 59.388 109.473 60.453 109.4C62.5293 109.258 62.9639 109.198 64.2516 108.878C64.7079 108.765 65.4708 108.613 65.947 108.542C66.4231 108.471 67.0568 108.31 67.355 108.185C67.6532 108.059 68.3812 107.791 68.9729 107.59C70.0657 107.218 72.2825 106.33 72.896 106.018C73.0812 105.924 73.6281 105.767 74.111 105.669C74.5939 105.57 75.2137 105.377 75.4883 105.238C75.7629 105.1 76.3552 104.908 76.8047 104.811C77.5249 104.657 77.9083 104.49 80.0316 103.401C81.357 102.721 82.7174 101.967 83.0548 101.725C83.3923 101.483 83.8376 101.181 84.0445 101.053C84.2514 100.925 84.5369 100.712 84.6789 100.581C84.8209 100.449 85.1501 100.234 85.4104 100.102C86.0675 99.7691 86.8446 99.2066 87.3037 98.7319C87.5167 98.5116 88.0819 98.0643 88.5596 97.7378C89.6002 97.0267 91.1697 95.5977 91.775 94.8102C92.0158 94.4971 92.4197 94.1035 92.6727 93.9357C92.9257 93.7679 93.4815 93.2989 93.9079 92.8934C94.0951 92.7154 94.2468 92.5642 94.3711 92.4297H92.0799C91.6643 92.8388 91.2935 93.1948 91.0043 93.4596C90.4126 94.0013 89.6381 94.659 89.2831 94.9211C88.9281 95.1831 88.4029 95.6063 88.116 95.8616C87.3803 96.5162 86.309 97.3868 85.773 97.7657C85.5224 97.9429 85.0917 98.2756 84.816 98.5049C84.3745 98.872 83.1973 99.5225 81.2389 100.482C80.9088 100.643 80.3086 100.997 79.905 101.268C78.6455 102.113 75.5062 103.508 74.0221 103.883C73.7279 103.957 73.2476 104.186 72.8603 104.438C72.3925 104.743 71.914 104.957 71.2178 105.176C70.6775 105.345 70.1866 105.484 70.127 105.484C70.0674 105.484 69.7251 105.601 69.3662 105.745C68.4883 106.096 67.5706 106.315 66.1537 106.513C64.6821 106.719 63.4199 106.922 62.6905 107.071C62.3829 107.134 61.86 107.212 61.5287 107.244C61.1974 107.277 60.5367 107.378 60.0606 107.468C59.5844 107.559 58.6356 107.671 57.9521 107.718C56.0117 107.85 51.3954 107.826 49.7218 107.674C47.1648 107.443 45.5361 107.275 45.0931 107.196C44.8554 107.154 44.0818 107.04 43.3741 106.943C42.4402 106.814 41.7655 106.66 40.9144 106.382C40.2694 106.172 39.6368 105.999 39.5086 105.999C39.3806 105.999 38.9309 105.866 38.5095 105.704C38.088 105.541 37.4795 105.342 37.1572 105.262C36.3966 105.072 33.4563 103.849 32.9806 103.524C32.7782 103.386 32.3817 103.188 32.0996 103.083C31.5454 102.877 28.3349 101.252 27.7317 100.871C27.5289 100.743 27.0724 100.507 26.7174 100.346C25.9344 99.9902 24.6335 99.2612 24.2217 98.9471C24.056 98.8208 23.63 98.5481 23.275 98.3412C22.6419 97.9721 21.9202 97.2893 21.9626 97.0996C21.9744 97.0468 21.8203 96.9671 21.6203 96.9226C21.343 96.8608 21.2111 96.77 21.0658 96.5406C20.6961 95.9573 20.4859 95.7435 19.7063 95.158C19.1344 94.7285 18.81 94.4073 18.5205 93.9843C18.1197 93.3983 17.7564 93.101 17.4411 93.101C17.3473 93.101 17.2014 92.9947 17.1168 92.8646C16.8258 92.4172 15.8289 91.2637 14.781 90.1616C12.841 88.1215 10.3432 84.5391 8.6572 81.3788C8.14325 80.4156 7.56777 79.3989 7.37835 79.1196C7.18884 78.8403 7.00407 78.515 6.96776 78.3968C6.93135 78.2785 6.67911 77.7368 6.40733 77.1929C6.13547 76.649 5.86223 76.0686 5.80018 75.9031C5.73804 75.7375 5.47418 75.2538 5.21368 74.8282C4.48028 73.6298 4.41823 73.4735 4.23113 72.3525C4.13371 71.7692 4.00497 71.2644 3.94137 71.2166C3.72837 71.0567 3.4812 70.4514 3.4812 70.0896C3.4812 69.8918 3.39876 69.4647 3.29798 69.1404C3.19721 68.8162 3.06416 68.3114 3.00228 68.0186C2.94049 67.7258 2.75185 67.1724 2.58317 66.789C2.41363 66.4039 2.27611 65.9495 2.27567 65.7736C2.27481 65.3377 2.12137 64.393 2.00054 64.0795C1.94589 63.9376 1.78987 63.6567 1.6538 63.4554C1.40354 63.0848 1.4013 62.9186 1.64649 62.9186C1.75157 62.9186 1.75931 62.8925 1.68186 62.7992C1.61034 62.7131 1.60682 62.5753 1.6693 62.3047C1.79408 61.7638 1.7804 61.1293 1.61757 59.909C1.4952 58.9916 1.44227 58.7994 1.25655 58.5974C1.04837 58.371 1.04588 58.3559 1.1976 58.245C1.34356 58.1383 1.34984 58.0575 1.27617 57.2348C1.16714 56.0166 1.18426 54.3546 1.3334 51.6969C1.40234 50.4673 1.44674 48.9234 1.43211 48.2662C1.41473 47.4883 1.44063 46.9861 1.50638 46.8275C1.639 46.5076 1.55914 46.2218 1.23349 45.8512C1.05526 45.6484 1.0093 45.5487 1.09407 45.5487C1.16352 45.5487 1.32247 45.4684 1.44717 45.3704C1.68444 45.1839 1.7551 44.8174 1.56637 44.7515C1.48693 44.7238 1.49692 44.6709 1.60466 44.5493C2.01887 44.0819 2.23557 43.0907 2.00433 42.7208C1.9236 42.5917 1.93995 42.5038 2.08927 42.2622C2.19091 42.0979 2.24865 41.938 2.2175 41.9069C2.18643 41.8759 2.24168 41.7635 2.34039 41.6573C2.44573 41.544 2.54358 41.2865 2.57723 41.0342C2.65924 40.4204 2.84961 39.5192 3.08206 38.644C3.23516 38.0676 3.34927 37.8194 3.56133 37.6007C3.72673 37.4302 3.84584 37.2139 3.85505 37.0672C3.88095 36.6517 4.32881 35.4591 4.64035 34.9761C4.80257 34.7245 5.04121 34.224 5.17065 33.8639C5.48718 32.9837 5.89734 32.1215 6.31792 31.4523C6.50906 31.1481 6.66543 30.8221 6.66543 30.7276C6.66543 30.6333 6.8366 30.3017 7.04581 29.9908C7.25502 29.6799 7.53136 29.2016 7.65985 28.9279C7.78834 28.6542 7.95934 28.3833 8.03981 28.326C8.12019 28.2686 8.28602 28.0218 8.40823 27.7775C8.66959 27.255 9.72607 25.5254 10.43 24.4676C11.4969 22.8641 12.5 21.5667 13.2448 20.8266C13.6731 20.401 14.19 19.8159 14.3934 19.5265C14.8042 18.9423 19.075 14.7286 19.6175 14.3724C19.8068 14.248 20.1553 13.9637 20.392 13.7404C20.6287 13.517 21.1128 13.1064 21.4678 12.8277C21.8228 12.5489 22.3716 12.1003 22.6872 11.8306C23.003 11.561 23.5356 11.1803 23.8709 10.9846C24.2062 10.7889 24.7624 10.4275 25.1069 10.1814C25.4514 9.93531 26.0556 9.5598 26.4497 9.34697C26.8438 9.13415 27.4235 8.77007 27.7378 8.53798C28.0523 8.30581 28.5153 8.02462 28.7669 7.91318C29.0184 7.80165 30.064 7.29078 31.0905 6.77794C32.1169 6.26501 33.0536 5.81709 33.1719 5.78252C33.4948 5.68828 35.0653 4.95754 35.4095 4.74145C35.5752 4.6374 35.9127 4.48244 36.1596 4.39706C36.4065 4.31158 36.7044 4.16179 36.8217 4.06419C37.0678 3.85936 37.1618 3.52357 36.9586 3.57594C36.8876 3.59417 36.7327 3.62573 36.6143 3.64602C36.4064 3.68171 36.4048 3.67844 36.5662 3.54834C36.7578 3.3939 37.0177 3.38195 37.5435 3.50311C37.8704 3.57843 37.9803 3.55926 38.4902 3.33758C38.8075 3.19973 39.2994 3.04125 39.5834 2.98536C39.8674 2.92955 40.4483 2.79154 40.8743 2.67864C41.3003 2.56573 42.5008 2.30045 43.5422 2.08918C46.0723 1.57582 46.9888 1.37125 47.4876 1.20864C47.8545 1.08903 47.8999 1.0481 47.8653 0.867347C47.8195 0.627951 47.9506 0.596823 48.1067 0.810078C48.2027 0.941298 48.3811 0.956346 49.6725 0.942072C50.5811 0.931925 51.4187 0.872936 51.8971 0.785399C52.3802 0.696915 53.7009 0.605078 55.4615 0.53749C59.3251 0.389072 59.2626 0.389158 60.0502 0.528805C64.9394 1.39532 65.392 1.47031 65.6774 1.46085C65.7818 1.45741 66.0133 1.33427 66.1919 1.18723C66.3704 1.04027 66.6044 0.919973 66.7119 0.919973C66.9496 0.919973 66.9703 1.06048 66.7433 1.13245C66.3032 1.27201 66.6082 1.69388 67.1491 1.69388C67.7694 1.69388 69.5596 2.14705 70.6081 2.56943C71.1997 2.80771 72.2647 3.23189 72.9747 3.51205C73.6847 3.79212 74.7497 4.26773 75.3414 4.56904C75.933 4.87026 76.6882 5.22359 77.0195 5.35412C77.3509 5.48457 78.0092 5.80514 78.4825 6.06646C80.2444 7.03909 80.5526 7.19276 80.7459 7.19499C81.0135 7.198 81.4157 7.40962 81.8819 7.79262C82.0949 7.96761 82.581 8.29497 82.9621 8.52009C83.7288 8.97309 86.4622 10.9819 87.0025 11.4894C87.1918 11.6672 87.8115 12.1838 88.3795 12.6373C88.9474 13.0907 89.6368 13.6784 89.9113 13.9432C90.1859 14.2081 90.6825 14.6224 91.015 14.864C91.5338 15.2411 92.5964 16.3263 93.7413 17.6111L96 17.5892C95.8379 17.4206 95.696 17.2816 95.5976 17.1972C95.3335 16.9705 94.8212 16.5294 94.4592 16.2167C94.0974 15.9041 93.6408 15.5669 93.4447 15.4673C93.1914 15.3387 92.9503 15.0895 92.612 14.6071C92.35 14.2336 92.0263 13.8434 91.8927 13.74C91.7591 13.6367 91.3177 13.2928 90.9119 12.9758C90.506 12.659 90.0025 12.2733 89.7931 12.1189C89.5836 11.9645 89.1604 11.6435 88.8528 11.4056C87.2428 10.1605 86.9514 9.94563 86.357 9.56496C86.002 9.3376 85.3372 8.8509 84.8797 8.48346C84.4222 8.11611 83.7832 7.66295 83.4597 7.47652C83.1362 7.2901 82.392 6.86084 81.8058 6.52247C81.2196 6.18418 80.7106 5.90738 80.6747 5.90738C80.6388 5.90738 80.5845 5.97239 80.554 6.05176C80.5085 6.17017 80.4178 6.11754 80.05 5.75922C79.8032 5.51896 79.3496 5.19831 79.0419 5.04679C78.7343 4.89528 78.3857 4.68125 78.2674 4.5711C78.0259 4.34632 75.758 3.15571 75.5714 3.15571C75.5053 3.15571 75.2038 3.04401 74.9014 2.90745C74.5991 2.77099 74.0418 2.5598 73.6632 2.43829C73.2845 2.31679 72.7036 2.1197 72.3723 2.00043C71.6743 1.74909 71.4335 1.73197 71.0931 1.90937C70.7926 2.06596 70.7743 2.06716 70.8285 1.92623C70.9079 1.71942 70.484 1.45775 69.6198 1.17992C68.1743 0.715231 66.5674 0.472396 63.9384 0.321312C63.2284 0.280467 62.5313 0.199636 62.3893 0.141679C62.081 0.0157041 50.1513 -0.0585911 49.093 0.058871ZM50.9864 0.586246C50.9864 0.543423 50.9251 0.48495 50.8502 0.45623C50.6379 0.374797 50.08 0.393629 50.1731 0.479017C50.2909 0.587106 50.9864 0.678771 50.9864 0.586246ZM49.05 0.747993C49.1683 0.747993 49.2652 0.709298 49.2652 0.662003C49.2652 0.614709 49.1683 0.576014 49.05 0.576014C48.9317 0.576014 48.8349 0.614709 48.8349 0.662003C48.8349 0.709298 48.9317 0.747993 49.05 0.747993ZM64.9066 0.918769C65.2295 0.917221 65.5305 0.829941 65.5305 0.737932C65.5305 0.660456 65.0927 0.650223 64.8205 0.72125C64.5845 0.782905 64.6443 0.920059 64.9066 0.918769ZM69.9841 2.00052C70.2802 2.08823 70.2323 1.81246 69.9239 1.65312C69.6086 1.49017 69.582 1.49034 69.519 1.65458C69.4639 1.79801 69.5192 1.88684 69.6854 1.92132C69.7432 1.93336 69.8777 1.96905 69.9841 2.00052ZM38.4423 3.08339C38.5027 3.02311 38.4385 2.93901 38.2395 2.81777C37.8464 2.57829 37.6517 2.57932 37.8694 2.81974C38.109 3.08425 38.3366 3.18899 38.4423 3.08339ZM74.744 3.84363C74.8976 3.84363 74.9852 3.80777 74.9541 3.75764C74.9248 3.71034 74.8064 3.67165 74.6908 3.67165C74.5752 3.67165 74.4808 3.71034 74.4808 3.75764C74.4808 3.80493 74.5993 3.84363 74.744 3.84363ZM35.8398 4.0586C35.8871 4.08784 35.9258 4.05138 35.9258 3.97768C35.9258 3.90399 35.8871 3.84363 35.8398 3.84363C35.7925 3.84363 35.7537 3.88 35.7537 3.92454C35.7537 3.96908 35.7925 4.02936 35.8398 4.0586ZM77.4904 4.78822C77.6279 4.86174 77.665 4.85547 77.665 4.75873C77.665 4.61358 77.4337 4.50454 77.3641 4.61702C77.3376 4.65984 77.3945 4.73689 77.4904 4.78822ZM33.1346 5.11352C33.1665 5.08162 33.1679 4.95694 33.1376 4.83655C33.0754 4.58864 32.9131 4.53868 32.915 4.76802C32.9168 4.96313 33.0598 5.18825 33.1346 5.11352ZM31.881 5.95038C31.9284 5.92114 31.9671 5.86086 31.9671 5.81632C31.9671 5.77178 31.9284 5.7354 31.881 5.7354C31.8337 5.7354 31.795 5.79577 31.795 5.86946C31.795 5.94315 31.8337 5.97961 31.881 5.95038ZM79.8612 6.39159C79.9373 6.36244 79.9754 6.29958 79.9459 6.25194C79.8762 6.13921 79.7553 6.14153 79.6839 6.2571C79.6047 6.38514 79.6965 6.45471 79.8612 6.39159ZM28.7393 6.6266C28.8101 6.59943 28.8465 6.54267 28.8203 6.50028C28.7453 6.37886 28.6107 6.41051 28.6107 6.54964C28.6107 6.62634 28.6613 6.65652 28.7393 6.6266ZM29.9877 6.5953C29.9877 6.548 29.9522 6.50931 29.9087 6.50931C29.8652 6.50931 29.7778 6.48945 29.7144 6.46511C29.6004 6.42143 29.2293 6.62927 29.1069 6.80529C28.9727 6.99842 29.0522 7.01587 29.3207 6.85232C29.4746 6.75859 29.6875 6.6818 29.7941 6.68163C29.9006 6.68146 29.9877 6.64259 29.9877 6.5953ZM28.5782 7.4552C28.8456 7.4552 28.8748 7.4368 28.7829 7.32621C28.6739 7.19508 28.5673 7.17625 28.3741 7.25415C28.1584 7.34109 28.2743 7.4552 28.5782 7.4552ZM82.6831 7.79787C82.8363 7.79675 82.8474 7.78093 82.7425 7.71317C82.573 7.6037 82.3736 7.6037 82.4413 7.71317C82.4706 7.76046 82.5794 7.79855 82.6831 7.79787ZM27.4008 8.40108C27.4509 8.40108 27.492 8.36239 27.492 8.31509C27.492 8.2678 27.4749 8.22911 27.454 8.22911C27.4331 8.22911 27.3921 8.2678 27.3629 8.31509C27.3336 8.36239 27.3507 8.40108 27.4008 8.40108ZM90.8803 13.8184C90.954 13.8184 90.9905 13.7797 90.9613 13.7325C90.932 13.6852 90.8717 13.6465 90.8271 13.6465C90.7825 13.6465 90.7461 13.6852 90.7461 13.7325C90.7461 13.7797 90.8065 13.8184 90.8803 13.8184ZM15.5296 16.8281C15.5769 16.8281 15.6157 16.7894 15.6157 16.7421C15.6157 16.6948 15.5769 16.6561 15.5296 16.6561C15.4823 16.6561 15.4436 16.6948 15.4436 16.7421C15.4436 16.7894 15.4823 16.8281 15.5296 16.8281ZM15.0133 17.903C15.0606 17.8737 15.0993 17.8134 15.0993 17.7689C15.0993 17.7244 15.0606 17.688 15.0133 17.688C14.9659 17.688 14.9272 17.7483 14.9272 17.822C14.9272 17.8957 14.9659 17.9322 15.0133 17.903ZM13.1149 19.9237C13.1649 19.9237 13.206 19.885 13.206 19.8377C13.206 19.7904 13.189 19.7517 13.168 19.7517C13.1471 19.7517 13.1062 19.7904 13.0769 19.8377C13.0476 19.885 13.0648 19.9237 13.1149 19.9237ZM7.483 27.5897C7.52801 27.5897 7.57861 27.5481 7.59556 27.4973C7.61252 27.4464 7.56191 27.4048 7.483 27.4048C7.40408 27.4048 7.35348 27.4464 7.37043 27.4973C7.38738 27.5481 7.43799 27.5897 7.483 27.5897ZM5.53649 31.3604C5.58382 31.3604 5.64648 31.3217 5.67574 31.2744C5.705 31.2271 5.69019 31.1884 5.64286 31.1884C5.59553 31.1884 5.53288 31.2271 5.50362 31.2744C5.47436 31.3217 5.48916 31.3604 5.53649 31.3604ZM3.9115 33.9401C3.95884 33.9401 3.99756 33.9014 3.99756 33.8541C3.99756 33.8068 3.95884 33.7681 3.9115 33.7681C3.86417 33.7681 3.82544 33.8068 3.82544 33.8541C3.82544 33.9014 3.86417 33.9401 3.9115 33.9401ZM3.56726 35.3362C3.56726 35.4522 3.93543 35.3758 3.97648 35.2514C3.99653 35.1905 3.94042 35.1439 3.84696 35.1439C3.66838 35.1439 3.56726 35.2134 3.56726 35.3362ZM2.13127 40.9912C2.33075 40.9912 2.31302 40.8836 2.07722 40.6622C1.88057 40.4777 1.58788 40.4083 1.58788 40.5463C1.58788 40.67 1.98023 40.9912 2.13127 40.9912ZM1.48031 41.5919C1.66473 41.5908 1.68849 41.5721 1.58788 41.5072C1.41946 41.3985 1.24364 41.3985 1.24364 41.5072C1.24364 41.5544 1.35018 41.5925 1.48031 41.5919ZM1.50854 42.0901C1.71035 42.1134 1.71172 42.1099 1.54993 41.9826C1.3476 41.8233 1.21653 41.8123 1.26473 41.9586C1.28418 42.0178 1.3939 42.0769 1.50854 42.0901ZM1.75062 43.1897C1.81835 43.1479 1.82033 43.0815 1.75725 42.9637C1.6569 42.7765 1.50113 42.7402 1.50311 42.9045C1.50535 43.0862 1.64942 43.2522 1.75062 43.1897ZM0.985462 44.2651C0.985462 44.3851 1.18942 44.3609 1.37781 44.2186C1.50088 44.1255 1.51086 44.0942 1.41576 44.0996C1.17316 44.1132 0.985462 44.1854 0.985462 44.2651ZM0.808006 46.5645C0.872551 46.586 0.904824 46.5537 0.883309 46.4892C0.862569 46.4271 0.794753 46.3594 0.732704 46.3387C0.668159 46.3172 0.635886 46.3495 0.657401 46.414C0.678056 46.476 0.745871 46.5437 0.808006 46.5645ZM1.15758 63.8215C1.20492 63.7923 1.24364 63.7513 1.24364 63.7304C1.24364 63.7095 1.20492 63.6925 1.15758 63.6925C1.11025 63.6925 1.07152 63.7335 1.07152 63.7836C1.07152 63.8336 1.11025 63.8507 1.15758 63.8215Z" fill="#010181"/>
<path d="M69.8765 7.95566C69.9909 8.07346 71.0943 8.50135 71.899 8.73997C73.4684 9.20543 77.6308 11.1273 78.6547 11.8592C79.2321 12.2721 81.4149 13.6472 81.8276 13.8583C82.183 14.0399 82.6348 14.5281 82.7065 14.8078C82.7307 14.9025 82.9061 15.0696 83.0963 15.1789C83.4315 15.3717 84.0638 15.8671 86.2322 17.6396H87.0206C85.8363 16.5302 84.63 15.485 83.8613 14.9152C83.4116 14.5818 82.8205 14.1402 82.5477 13.9339C82.2749 13.7276 81.9009 13.5069 81.7165 13.4434C81.5322 13.38 81.1551 13.1367 80.8786 12.9029C80.2491 12.3705 79.5638 11.9085 78.5626 11.3416C78.1333 11.0985 77.7178 10.8287 77.6392 10.7419C77.5606 10.6551 77.2729 10.4822 76.9997 10.3576C74.7676 9.33932 74.3876 9.19683 71.8129 8.41355C70.2378 7.93442 69.742 7.81713 69.8765 7.95566Z" fill="#010181"/>
<path d="M82.7425 93.583C82.3402 93.8511 81.8322 94.236 81.6137 94.4384C81.3951 94.6408 81.0078 94.9105 80.7531 95.0378C80.4982 95.1651 80.193 95.3565 80.0747 95.4632C79.9563 95.57 79.7357 95.6985 79.5843 95.749C79.433 95.7994 79.093 96.0002 78.8287 96.1952C78.5168 96.4255 77.9829 96.6817 77.3068 96.9257C76.734 97.1324 76.058 97.4442 75.8046 97.6186C75.3475 97.9332 74.5244 98.2691 72.3723 99.0193C71.757 99.2337 71.239 99.4458 71.2212 99.4905C71.1256 99.7314 70.8417 99.8942 70.5177 99.8942C70.326 99.8942 70.0647 99.948 69.9368 100.014C69.809 100.079 69.4369 100.174 69.1099 100.225C68.5353 100.314 68.1386 100.493 68.5039 100.499C68.8123 100.504 68.4463 100.641 67.9832 100.695C67.7466 100.722 67.3012 100.827 66.9935 100.929C66.6859 101.031 66.134 101.147 65.7672 101.187C65.4004 101.226 64.5871 101.354 63.9599 101.471C62.5465 101.735 61.739 101.86 60.7994 101.957C60.3984 101.999 59.4302 102.15 58.6479 102.292C55.9014 102.793 55.5036 102.846 54.9326 102.785C54.6318 102.753 53.3014 102.691 51.976 102.648C50.6159 102.603 49.2478 102.513 48.8349 102.442C46.6887 102.068 45.9332 101.915 44.8761 101.644C44.2371 101.479 43.4819 101.292 43.1979 101.228C42.9139 101.163 42.4492 101.028 42.1652 100.927C41.8812 100.827 41.4631 100.709 41.2363 100.665C41.0093 100.621 40.6481 100.464 40.4334 100.317C40.0981 100.086 39.9928 100.056 39.6843 100.101C39.3768 100.146 39.2016 100.096 38.4646 99.7551C37.8774 99.4831 37.3368 99.3062 36.763 99.1982C35.5798 98.9755 35.2489 98.8791 34.8071 98.6284C34.5941 98.5076 33.9938 98.1679 33.4731 97.8735C32.3909 97.2618 30.9202 96.3867 30.2889 95.9789C30.0522 95.826 29.528 95.4898 29.1239 95.2318C28.7199 94.9737 28.1047 94.5145 27.757 94.2112C27.4093 93.908 26.7911 93.3967 26.3833 93.0747C25.9754 92.7528 25.4868 92.3428 25.2974 92.1635C25.1081 91.9841 24.6495 91.6125 24.2783 91.3377C23.2858 90.603 22.665 90.0073 22.4939 89.6251C22.3897 89.3928 22.2797 89.2787 22.1417 89.26C21.9421 89.233 21.1886 88.4851 20.5103 87.6407C20.3203 87.4042 19.9062 86.9387 19.5899 86.606C18.6418 85.6089 17.9886 84.8324 17.6458 84.2952C17.4677 84.0159 17.1025 83.5243 16.8345 83.2027C16.5665 82.881 16.1148 82.2477 15.8308 81.7953C14.8737 80.2706 13.9453 79.0221 13.6009 78.7966C13.4784 78.7164 13.3781 78.581 13.3781 78.4956C13.3781 78.4102 13.1082 77.9969 12.7784 77.5771C12.1481 76.7752 12.0161 76.5465 11.5389 75.4301C10.8343 73.7816 10.0901 72.2158 9.81936 71.8118C9.53863 71.393 9.11065 70.444 8.68921 69.306C8.58035 69.0119 8.3294 68.4766 8.13163 68.1166C7.92319 67.7372 7.72035 67.2142 7.64909 66.8728C7.58145 66.5488 7.48351 66.1747 7.43136 66.0414C7.37929 65.9082 7.28515 65.5284 7.22206 65.1973C7.15907 64.8663 7.04624 64.3826 6.97146 64.1225C6.89658 63.8623 6.76319 63.011 6.67481 62.2307C6.55277 61.1518 6.46603 60.7132 6.31301 60.4002C6.15311 60.0733 6.13168 59.9565 6.20905 59.8328C6.27712 59.7238 6.30871 58.5938 6.31396 56.0739C6.31809 54.0922 6.33108 52.1262 6.34279 51.705C6.35716 51.1929 6.33186 50.9281 6.26645 50.9057C6.10096 50.849 5.97695 51.3857 5.97643 52.1612C5.97617 52.568 5.92118 53.2684 5.85422 53.7177C5.52427 55.9318 5.48339 58.7354 5.75861 60.2797C5.82445 60.6491 5.85844 61.0747 5.834 61.2256C5.80964 61.3764 5.85027 61.8093 5.92445 62.1877C6.32282 64.2211 6.60794 65.45 6.84202 66.1432C7.23222 67.2983 7.23187 67.2975 7.52276 67.9899C7.67121 68.3434 7.98111 69.1753 8.2115 69.8386C8.93801 71.9309 9.33002 72.9046 9.89139 74.0113C10.1912 74.6025 10.5693 75.3764 10.7315 75.7311C11.2168 76.7924 12.9437 79.7104 13.5557 80.5035C13.7748 80.7873 14.0944 81.2323 14.2662 81.4924C15.3281 83.1009 16.448 84.5253 17.6899 85.847C18.0516 86.2321 18.5799 86.8512 18.8639 87.2228C19.1478 87.5946 19.4675 87.976 19.5741 88.0706C19.6808 88.1652 19.9989 88.5241 20.281 88.8682C20.563 89.2122 21.0714 89.7129 21.4105 89.9806C21.7497 90.2484 22.4945 90.915 23.0657 91.4618C24.1148 92.4661 24.6834 92.9694 25.6358 93.7367C25.923 93.9681 26.2085 94.229 26.27 94.3165C26.3316 94.4039 26.8351 94.7728 27.3888 95.1361C27.9426 95.4993 28.5699 95.9419 28.7829 96.1195C29.7966 96.9651 30.2414 97.282 30.7848 97.5463C31.1086 97.7037 31.7685 98.0958 32.2513 98.4177C34.3648 99.8267 37.0149 101.016 39.1726 101.523C39.7881 101.667 40.4422 101.838 40.626 101.903C40.8099 101.967 41.2315 102.047 41.5628 102.08C41.8941 102.112 42.4944 102.193 42.8967 102.259C43.299 102.325 44.0861 102.44 44.6455 102.515C45.2051 102.59 46.212 102.787 46.8831 102.953C48.9235 103.456 49.0972 103.489 50.2548 103.591C51.5165 103.702 55.2481 103.658 56.6663 103.515C57.1633 103.465 58.4994 103.363 59.6354 103.289C61.9442 103.139 63.5084 102.924 64.5999 102.608C65.003 102.492 66.0453 102.218 66.9162 102.001C67.7871 101.784 68.9256 101.475 69.4462 101.315C69.9669 101.155 70.6059 100.984 70.8662 100.934C72.1443 100.689 72.8692 100.484 73.2887 100.249C73.542 100.107 74.2914 99.7598 74.9541 99.478C76.5219 98.8114 79.708 97.1508 80.8492 96.4057C81.1569 96.2047 81.7184 95.875 82.0971 95.6726C82.4757 95.4704 82.9405 95.1816 83.1298 95.031C83.3191 94.8803 83.8226 94.5113 84.2486 94.2111C85.0016 93.6802 85.9383 92.9007 86.4156 92.4155H84.468C84.0218 92.7258 83.468 93.0996 82.7425 93.583Z" fill="#010181"/>
<path fill-rule="evenodd" clip-rule="evenodd" d="M45.7633 0.402744C45.5756 0.401712 45.5504 0.382795 45.6506 0.318044C45.816 0.211245 45.8858 0.211245 45.9518 0.318044C45.9826 0.36766 45.9028 0.403518 45.7633 0.402744ZM52.2521 3.75764C51.6641 3.75764 51.6465 3.7014 52.2008 3.59262C52.7072 3.49322 53.0704 3.48685 53.2094 3.57482C53.3647 3.67328 52.923 3.75764 52.2521 3.75764ZM55.2591 3.79255C54.8389 3.87131 53.877 3.76288 54.1276 3.66502C54.3492 3.57835 55.1956 3.57792 55.417 3.66434C55.5581 3.71946 55.5308 3.74164 55.2591 3.79255ZM47.5317 4.1832C47.7041 4.18071 48.3873 4.06866 49.05 3.93409C50.3893 3.6621 51.1079 3.60647 51.0519 3.77913C51.0327 3.83829 50.8649 3.93099 50.6789 3.98525C50.1541 4.1384 46.7351 4.85959 45.8228 5.00956C45.3731 5.08351 44.463 5.31216 43.8003 5.51759C43.1377 5.72302 42.1501 6.01418 41.6058 6.16449C41.0615 6.31489 40.3257 6.54818 39.9707 6.68301C39.6157 6.81784 39.0541 7.01063 38.7228 7.11141C37.6164 7.44815 36.1533 7.99255 34.8745 8.5434C34.1778 8.8435 33.5817 9.089 33.5499 9.089C33.4339 9.089 30.8831 10.2396 30.585 10.4263C30.4166 10.5318 30.01 10.7528 29.6814 10.9174C29.0807 11.2182 28.6171 11.4656 27.5709 12.0436C27.2593 12.2158 26.9502 12.3566 26.884 12.3566C26.6863 12.3566 27.2321 11.8764 27.7932 11.5569C28.0772 11.3951 28.6 11.0877 28.955 10.8739C30.3612 10.0268 31.8212 9.24327 32.5847 8.92614C34.2005 8.25482 35.2043 7.81936 35.6246 7.6074C35.8613 7.48804 36.1905 7.3613 36.3561 7.3257C36.5218 7.29018 37.1685 7.07452 37.7933 6.84648C38.418 6.61852 39.4223 6.31076 40.0251 6.1626C40.6278 6.01444 41.3172 5.82139 41.557 5.7336C42.8439 5.26263 46.9733 4.19102 47.5317 4.1832ZM58.2937 3.96779C58.2506 3.94122 58.2154 3.88309 58.2154 3.83855C58.2154 3.73554 58.5337 3.73218 58.5971 3.8346C58.6542 3.92704 58.4049 4.0365 58.2937 3.96779ZM59.718 4.01561C59.6072 4.01561 59.4925 3.97691 59.4633 3.92962C59.3438 3.73648 62.2354 3.91405 63.0218 4.1482C63.2749 4.22361 63.4611 4.30616 63.4356 4.3317C63.3343 4.43283 61.866 4.34813 60.9202 4.18655C60.3698 4.09257 59.8289 4.01561 59.718 4.01561ZM64.1751 4.53189C64.1632 4.53172 64.1535 4.49285 64.1535 4.44555C64.1535 4.3127 64.7783 4.34245 66.0038 4.53369C66.6192 4.62974 67.5099 4.76845 67.9832 4.84205C69.1073 5.0167 69.8907 5.20562 70.2638 5.39196C70.7362 5.62791 72.1509 6.14041 73.242 6.47087C74.359 6.80916 75.4461 7.27926 75.2667 7.34633C75.0927 7.41134 73.7068 6.99859 70.9523 6.06147C69.6801 5.62869 68.5007 5.34888 65.7457 4.82614C64.8937 4.66448 64.1869 4.53206 64.1751 4.53189ZM49.093 6.30027C49.8824 6.17679 53.6977 5.78399 55.3754 5.65345C55.8251 5.61854 56.2124 5.58457 56.236 5.57804C56.2597 5.57159 57.2666 5.60435 58.4736 5.65096C60.9183 5.74529 61.8163 5.83756 62.7981 6.09518C63.5169 6.28376 63.7105 6.47457 63.0993 6.39193C60.7449 6.07351 55.0976 5.97162 52.7076 6.20448C50.4395 6.42538 49.5807 6.60183 46.0109 7.58057C44.5288 7.98687 43.0184 8.39102 42.6545 8.47873C39.4799 9.24344 35.031 10.8694 33.5592 11.8028C33.3225 11.9529 32.7997 12.24 32.3974 12.4409C31.9951 12.6417 31.2592 13.0472 30.7622 13.342C30.2652 13.6368 29.5227 14.0585 29.1121 14.2791C28.7015 14.4997 28.1787 14.826 27.9503 15.0041C27.2108 15.5807 26.6717 15.8822 26.38 15.8822C25.974 15.8822 26.0764 15.724 26.7432 15.3208C27.0584 15.1302 27.4235 14.8866 27.5547 14.7795C28.2537 14.2081 29.5994 13.3297 30.2132 13.044C30.5975 12.8651 31.2754 12.4876 31.7197 12.2052C32.7068 11.5775 33.9066 10.9685 34.6115 10.7373C34.9011 10.6422 35.3917 10.4117 35.7016 10.2248C36.0584 10.0099 36.5424 9.81656 37.0206 9.69815C37.4362 9.59522 38.7443 9.20517 39.9276 8.83146C41.111 8.45767 42.4858 8.05025 42.9828 7.92608C43.4798 7.80199 44.3511 7.5503 44.9191 7.36689C46.349 6.90503 48.1205 6.4523 49.093 6.30027ZM65.5083 6.81045C65.1885 6.73151 64.9488 6.63141 64.9757 6.5879C65.0702 6.43519 66.4847 6.74243 66.546 6.92911C66.5899 7.06248 66.477 7.04958 65.5083 6.81045ZM77.0381 8.31828C76.5796 8.13632 76.3088 7.89306 76.43 7.77198C76.4574 7.74455 76.5625 7.77379 76.6637 7.83691C76.7647 7.90002 77.041 8.01499 77.2777 8.09238C77.5144 8.16977 77.9016 8.34493 78.1383 8.48166C78.375 8.61838 79.133 9.01626 79.8228 9.3658C80.5126 9.71544 81.3065 10.176 81.587 10.3893C81.8675 10.6027 82.4069 10.9651 82.7856 11.1948C83.1642 11.4245 83.572 11.7015 83.6917 11.8104C83.8114 11.9193 84.1767 12.1931 84.5035 12.419C84.8303 12.6448 85.1132 12.878 85.1322 12.9371C85.1845 13.1004 84.9223 12.9791 84.3346 12.5681C83.6345 12.0784 81.2054 10.6741 80.7466 10.4936C80.2629 10.3035 79.8237 10.0284 79.0862 9.4536C78.4707 8.97386 77.9169 8.66688 77.0381 8.31828ZM21.9411 15.5751C22.6037 15.0433 23.417 14.4305 23.7483 14.2135C24.359 13.8134 24.738 13.7109 24.738 13.9458C24.738 14.0158 24.3564 14.3261 23.8901 14.6353C23.4237 14.9446 22.9106 15.3263 22.7498 15.4835C22.589 15.6408 22.2052 15.9653 21.8969 16.2047C21.5885 16.4441 21.1698 16.8371 20.9665 17.0781C20.7632 17.319 20.299 17.7433 19.935 18.0209C19.2521 18.5418 17.3126 20.4769 16.8644 21.0846C16.7248 21.2738 16.3716 21.7194 16.0794 22.0751C15.7871 22.4307 15.3824 22.9724 15.18 23.279C14.9775 23.5854 14.6016 24.1063 14.3447 24.4364C14.0877 24.7665 13.779 25.2308 13.6586 25.4683C13.4464 25.8871 12.8797 26.7586 11.8402 28.2647C11.5628 28.6667 11.0463 29.5567 10.6925 30.2425C10.3387 30.9283 9.66221 32.1085 9.18914 32.8652C8.06907 34.6568 7.46381 35.7266 7.38919 36.0468C7.35606 36.1887 7.20261 36.5579 7.04822 36.8673C6.89374 37.1767 6.68961 37.6663 6.59469 37.9555C6.49967 38.2446 6.36344 38.5719 6.29193 38.6828C6.05517 39.0502 5.72832 39.9872 5.42676 41.1632C5.26308 41.8017 5.08605 42.4369 5.03338 42.5747C4.9413 42.8159 4.68665 44.6078 4.38466 47.1395C4.23948 48.3569 3.98156 49.6427 3.82321 49.9383C3.77579 50.0269 3.72389 50.4782 3.70806 50.9412C3.69222 51.4041 3.61064 52.4214 3.52682 53.2018C3.41399 54.2515 3.38654 54.9967 3.42131 56.0666C3.47088 57.5927 3.40986 58.0172 3.14084 58.0172C3.01872 58.0172 2.9787 57.9149 2.93403 57.4886C2.8521 56.7052 2.87147 52.8471 2.96183 51.9549C3.00495 51.5293 3.07948 50.794 3.1275 50.3211C3.17552 49.8482 3.25702 48.8714 3.30857 48.1505C3.39213 46.9817 3.46804 46.5812 4.00884 44.4529C4.34249 43.1402 4.64792 41.9113 4.68759 41.7221C4.72718 41.533 4.88183 41.0493 5.03115 40.6473C5.18046 40.2453 5.39518 39.5537 5.50835 39.1106C5.62797 38.6421 5.82539 38.1316 5.97996 37.8909C6.12617 37.6632 6.36095 37.1745 6.50165 36.8048C7.0811 35.2824 9.15446 31.1529 10.2713 29.2966C10.7409 28.5162 11.3015 27.5826 11.5172 27.2218C11.7329 26.861 12.284 26.0871 12.742 25.502C13.1998 24.9169 13.9028 23.9351 14.3041 23.3203C15.1134 22.0803 15.3571 21.7763 16.8889 20.0958C18.6972 18.1117 18.9036 17.9098 19.8326 17.2165C20.3296 16.8456 21.2784 16.107 21.9411 15.5751ZM23.8527 17.3463C24.1267 17.1836 24.6558 16.8456 25.0286 16.5953C25.6652 16.1679 26.0289 16.0325 26.0289 16.2231C26.0289 16.2687 25.9611 16.3425 25.8783 16.3869C25.7955 16.4313 25.4207 16.7229 25.0454 17.0349C24.6701 17.3468 24.3297 17.602 24.2887 17.602C24.2478 17.602 24.0091 17.7568 23.7583 17.946C23.2962 18.2946 23.0737 18.3654 22.9695 18.197C22.887 18.0635 23.2756 17.6892 23.8527 17.3463ZM15.504 25.5741C16.89 23.4626 19.3169 20.8564 21.5797 19.0495C22.3582 18.4278 22.5865 18.2875 22.5865 18.4308C22.5865 18.6117 21.445 20.0338 20.5619 20.9531C19.9927 21.5457 19.4595 22.1734 19.3768 22.348C19.2943 22.5227 19.1149 22.7548 18.9781 22.864C18.8413 22.9731 18.4404 23.4106 18.0872 23.8363C17.4072 24.6557 16.0202 26.0372 15.55 26.3634C15.3136 26.5275 14.7152 27.4102 14.1546 28.4222C14.0847 28.5484 13.8792 28.8897 13.6982 29.1807C13.5171 29.4716 13.3315 29.8451 13.2857 30.0107C13.24 30.1763 13.0033 30.6153 12.7598 30.9865C12.5162 31.3577 12.0912 32.1373 11.8152 32.7189C11.315 33.7729 10.9101 34.3973 10.7792 34.3164C10.7412 34.293 10.7102 34.1615 10.7102 34.0242C10.7102 33.7386 11.8984 31.3941 12.7966 29.9074C13.1223 29.3683 13.5185 28.6718 13.6771 28.3596C13.8356 28.0473 14.238 27.4048 14.5712 26.9319C14.9045 26.4589 15.3242 25.8479 15.504 25.5741ZM7.65658 41.8081C8.54773 38.8793 9.09112 37.4055 9.43931 36.9721C9.48639 36.9136 9.55928 36.8868 9.60119 36.9127C9.73106 36.9929 9.68579 37.3704 9.50351 37.7272C9.23716 38.249 8.25487 41.145 8.08619 41.9061C8.00375 42.2779 7.86493 42.7755 7.77758 43.012C7.69023 43.2484 7.49995 44.1652 7.35468 45.0492C7.20941 45.9331 7.03402 46.8425 6.965 47.0699C6.8959 47.2974 6.83901 47.6243 6.83849 47.7964C6.83746 48.1373 6.55544 48.5943 6.47945 48.3781C6.45613 48.3117 6.48547 47.8897 6.54468 47.4404C6.60381 46.9911 6.69641 46.1785 6.75045 45.6347C6.86629 44.4686 6.93411 44.1824 7.65658 41.8081ZM6.23031 50.3181C6.1032 50.2396 6.13512 49.6087 6.28039 49.3279C6.44606 49.0079 6.53117 49.0083 6.66448 49.33C6.75906 49.558 6.74572 49.6279 6.54098 49.977C6.41473 50.1922 6.27497 50.3457 6.23031 50.3181ZM3.13696 58.8771C3.04083 58.8771 3.01898 58.5937 3.10831 58.5045C3.20314 58.4096 3.22302 58.437 3.22302 58.6621C3.22302 58.7803 3.1843 58.8771 3.13696 58.8771ZM3.66916 64.0604C3.5627 63.8674 3.31055 62.3881 3.3096 61.9512C3.30934 61.8211 3.32707 61.7148 3.3491 61.7148C3.54773 61.7148 3.91693 63.4155 3.82966 63.9283C3.77699 64.2375 3.77011 64.2433 3.66916 64.0604ZM3.9115 65.2955C3.9115 65.2728 3.88801 65.1932 3.85927 65.1184C3.83052 65.0436 3.84575 64.9824 3.89309 64.9824C4.01349 64.9824 4.09369 65.2239 3.99378 65.2856C3.94851 65.3136 3.9115 65.318 3.9115 65.2955ZM5.25318 69.1738C5.18476 69.2421 5.03029 69.1049 5.03029 68.9758C5.03029 68.9076 5.06488 68.8519 5.10714 68.8519C5.1944 68.8519 5.31325 69.1138 5.25318 69.1738ZM6.2686 72.5027C6.03641 72.1013 5.51016 70.5286 5.42823 69.9913C5.39759 69.7903 5.4049 69.6258 5.44458 69.6258C5.51093 69.6258 6.16456 70.6122 6.40079 71.0688C6.45656 71.1767 6.59589 71.5516 6.71026 71.9019C6.96638 72.6858 8.81202 76.4628 9.50808 77.6273C9.78906 78.0975 10.1406 78.7242 10.2892 79.0199C10.6732 79.7838 13.7907 84.3896 14.573 85.3486C14.9335 85.7906 15.353 86.3323 15.5053 86.5525C15.6576 86.7726 16.082 87.243 16.4486 87.5977C16.8151 87.9524 17.5425 88.6876 18.065 89.2315C19.9233 91.1657 21.36 92.5362 22.9203 93.8629C24.7515 95.42 26.8636 97.0494 27.858 97.6722C28.7836 98.2517 30.6511 99.2199 31.4539 99.5362C31.8106 99.6768 32.4714 99.9493 32.9223 100.142C33.6366 100.447 35.5605 101.145 38.5507 102.184C39.7779 102.611 43.0945 103.553 44.082 103.755C45.9088 104.129 48.0518 104.382 50.7712 104.546C52.5726 104.654 57.11 104.601 58.2584 104.458C58.5898 104.417 59.3643 104.32 59.9796 104.243C60.595 104.165 61.718 104.025 62.4754 103.931C64.277 103.706 65.3679 103.52 66.0038 103.329C66.2878 103.244 66.7138 103.148 66.9505 103.116C67.9145 102.987 70.9803 102.207 71.9441 101.845C72.5109 101.633 73.362 101.317 73.8353 101.143C75.8144 100.416 76.5905 100.079 78.8048 98.9872C80.7257 98.0402 81.1636 97.8544 81.3016 97.9283C81.4623 98.0142 81.4593 98.0281 81.2267 98.2706C81.0934 98.4096 80.7699 98.6237 80.508 98.7464C80.246 98.869 79.7663 99.1647 79.442 99.4034C78.8169 99.8635 78.1717 100.228 76.7397 100.928C76.2544 101.166 75.6814 101.472 75.4664 101.608C75.2514 101.744 74.506 102.038 73.8099 102.261C73.1139 102.484 72.4369 102.722 72.3055 102.789C72.0597 102.914 70.6312 103.258 69.4893 103.468C69.1343 103.533 68.6115 103.661 68.3275 103.752C66.6773 104.284 66.005 104.456 65.2723 104.537C64.8227 104.586 63.7577 104.721 62.9057 104.837C57.0468 105.634 53.5112 105.752 50.4956 105.249C49.6541 105.109 49.5907 105.11 48.9742 105.263C48.4241 105.4 48.2521 105.409 47.7868 105.326C47.4876 105.272 46.6037 105.149 45.8228 105.052C44.3138 104.864 42.7713 104.534 41.3802 104.102C40.9126 103.956 40.0509 103.726 39.4652 103.59C38.5991 103.389 38.1941 103.237 37.2941 102.777C36.2555 102.246 35.0046 101.696 34.1186 101.381C33.9056 101.305 33.5764 101.138 33.3871 101.01C32.8415 100.641 32.248 100.37 31.3216 100.066C30.3835 99.759 29.9563 99.5653 29.4283 99.2074C29.239 99.0791 28.5098 98.6794 27.8079 98.3192C26.9353 97.8713 26.3502 97.5052 25.9576 97.1615C25.6418 96.8849 25.1511 96.5306 24.8671 96.3741C24.3897 96.1108 23.767 95.634 22.0778 94.2383C21.7185 93.9416 21.1343 93.4724 20.7793 93.1959C19.9937 92.5838 19.3569 91.9186 18.6304 90.9513C18.3285 90.5493 17.8037 89.9495 17.4644 89.6184C15.7769 87.9722 14.1162 85.9523 13.5646 84.8752C13.4717 84.6936 13.0994 84.2796 12.7377 83.9552C11.9829 83.2785 10.9183 81.7495 10.1752 80.2752C9.92857 79.7859 9.48579 78.988 9.1912 78.502C8.89653 78.016 8.57837 77.4162 8.48422 77.1692C8.38998 76.9221 8.11055 76.333 7.86321 75.8601C7.00399 74.2175 6.75725 73.7079 6.61396 73.2804C6.53462 73.0439 6.37928 72.6939 6.2686 72.5027ZM78.5256 98.1888C78.5256 98.102 78.5514 98.0053 78.583 97.9738C78.7558 97.8011 79.0977 98.0466 78.9433 98.2326C78.8015 98.4033 78.5256 98.3743 78.5256 98.1888Z" fill="#010181"/>
<path d="M86.7126 93.8226C84.9196 95.3313 84.0693 96.0007 83.388 96.4401C82.5811 96.9604 81.7959 97.5638 81.7959 97.6635C81.7959 97.8254 82.1083 97.7372 82.6134 97.4329C83.2097 97.0737 85.2923 95.618 86.289 94.8638C86.664 94.58 87.2602 94.1331 87.6139 93.8706C87.8695 93.6808 88.3885 93.2166 89.2368 92.4155H88.2567C87.6595 92.9859 87.123 93.4773 86.7126 93.8226Z" fill="#010181"/>
<path d="M80.251 31.916L79.2842 36.75H55.1143L52.0205 52.2188H75.0625L74.0957 57.0527H51.0537L46.8643 78H40.9023L50.1191 31.916H80.251ZM93.335 31.916L85.085 73.166H109.19L108.224 78H78.1562L87.373 31.916H93.335ZM118.568 60.2109L124.24 31.916H130.202L124.53 60.2109C122.769 69.0625 126.292 73.4883 135.101 73.4883C143.909 73.4883 149.194 69.0625 150.956 60.2109L156.628 31.916H162.59L156.918 60.2109C154.512 72.2852 146.917 78.3223 134.134 78.3223C121.351 78.3223 116.162 72.2852 118.568 60.2109ZM164.008 78L173.225 31.916H192.883C201.648 31.916 205.29 35.6006 203.808 42.9697C202.626 48.9639 197.459 53.6152 188.307 56.9238L199.779 78H192.561L182.055 57.2783L182.828 53.3789C191.486 51.9824 196.353 48.5986 197.427 43.2275C198.265 38.9736 196.234 36.8467 191.336 36.8467H178.188L169.97 78H164.008ZM207.933 78H201.423L230.201 31.916H236.808L247.249 78H240.965L237.903 63.498H222.66L225.271 58.6641H236.872L232.457 37.7812L207.933 78ZM258.077 31.916H264.458L272.934 55.9893L291.206 31.916H298.36L274.771 61.8867L271.548 78H265.586L268.809 61.8867L258.077 31.916Z" fill="#010181"/>
<path d="M116.137 90.625C117.457 88.6719 119.039 87.6953 120.883 87.6953C123.68 87.6953 124.699 89.5859 123.941 93.3672C123.059 97.7891 120.574 100 116.488 100C115.684 100 114.949 99.9648 114.285 99.8945L113.371 104.453H111.203L114.555 87.6953H116.488L116.137 90.625ZM115.75 92.5469L114.695 97.8555C115.047 98.082 115.73 98.1953 116.746 98.1953C119.48 98.1953 121.168 96.5977 121.809 93.4023C122.316 90.8477 121.762 89.5703 120.145 89.5703C118.473 89.5703 117.008 90.5625 115.75 92.5469ZM135.344 89.7812C134.953 89.5938 134.211 89.5 133.117 89.5C130.5 89.5 128.895 90.9961 128.301 93.9883C127.746 96.7461 128.277 98.125 129.895 98.125C131.566 98.125 133.027 97.1328 134.277 95.1484L135.344 89.7812ZM135.473 100H133.539L133.891 97.0703C132.578 99.0234 131 100 129.156 100C126.359 100 125.359 98.0039 126.156 94.0117C127 89.8008 129.473 87.6953 133.574 87.6953C135.238 87.6953 136.656 87.8633 137.828 88.1992L135.473 100ZM148.199 96.2031C146.645 98.7344 144.723 100 142.434 100C140.145 100 139.266 98.668 139.797 96.0039L141.461 87.6953H143.629L141.965 96.0391C141.676 97.4766 142.246 98.1953 143.676 98.1953C145.309 98.1953 146.941 96.8945 148.574 94.293L149.898 87.6953H152.066L149.605 100C149.012 102.969 146.828 104.453 143.055 104.453C141.539 104.453 140.234 104.258 139.141 103.867L139.492 102.109C140.609 102.5 141.922 102.695 143.43 102.695C145.742 102.695 147.078 101.797 147.438 100L148.199 96.2031ZM153.133 100L155.594 87.6953H157.527L157.035 91.3516C158.473 88.9141 160.277 87.6953 162.449 87.6953C164.402 87.6953 165.141 88.8828 164.664 91.2578C166.172 88.8828 168.004 87.6953 170.16 87.6953C172.207 87.6953 172.965 89.0156 172.434 91.6562L170.77 100H168.602L170.266 91.6562C170.555 90.2188 170.121 89.5 168.965 89.5C167.418 89.5 165.883 90.8008 164.359 93.4023L163.035 100H160.867L162.531 91.6562C162.82 90.2188 162.395 89.5 161.254 89.5C159.645 89.5 158.102 90.8008 156.625 93.4023L155.301 100H153.133ZM181.832 87.6953C185.051 87.6953 186.426 88.8633 185.957 91.1992C185.504 93.457 183.812 94.5859 180.883 94.5859H176.957C176.473 97.0234 177.387 98.2422 179.699 98.2422C181.488 98.2422 183.027 97.7344 184.316 96.7188L183.965 98.4766C182.676 99.4922 181.137 100 179.348 100C175.59 100 174.129 97.9023 174.965 93.707C175.77 89.6992 178.059 87.6953 181.832 87.6953ZM177.32 92.7812H181.246C182.73 92.7812 183.582 92.2422 183.801 91.1641C184.027 90.0078 183.254 89.4297 181.48 89.4297C179.293 89.4297 177.906 90.5469 177.32 92.7812ZM187.023 100L189.484 87.6953H191.418L190.891 91.4922C192.445 88.9609 194.367 87.6953 196.656 87.6953C198.945 87.6953 199.824 89.0273 199.293 91.6914L197.629 100H195.461L197.125 91.6562C197.414 90.2188 196.844 89.5 195.414 89.5C193.781 89.5 192.148 90.8008 190.516 93.4023L189.191 100H187.023ZM204.016 85.7031H205.375L205.445 87.6953H208.773L208.422 89.4531H205.434L204.016 96.5195C203.789 97.668 204.172 98.2422 205.164 98.2422H206.664L206.312 100H204.25C202.188 100 201.379 98.8945 201.824 96.6836L204.016 85.7031ZM214.703 99.4141L215.078 97.5391C216.43 98.0078 217.844 98.2422 219.32 98.2422C221.281 98.2422 222.379 97.6562 222.613 96.4844C222.832 95.3906 222.258 94.8438 220.891 94.8438H219.25C216.594 94.8438 215.508 93.6328 215.992 91.2109C216.461 88.8672 218.402 87.6953 221.816 87.6953C223.285 87.6953 224.703 87.8906 226.07 88.2812L225.695 90.1562C224.344 89.6875 222.934 89.4531 221.465 89.4531C219.418 89.4531 218.277 90.0391 218.043 91.2109C217.824 92.3047 218.359 92.8516 219.648 92.8516H221.289C224.102 92.8516 225.266 94.0625 224.781 96.4844C224.312 98.8281 222.375 100 218.969 100C217.492 100 216.07 99.8047 214.703 99.4141ZM236.09 96.2031C234.535 98.7344 232.613 100 230.324 100C228.035 100 227.156 98.668 227.688 96.0039L229.352 87.6953H231.52L229.855 96.0391C229.566 97.4766 230.137 98.1953 231.566 98.1953C233.199 98.1953 234.832 96.8945 236.465 94.293L237.789 87.6953H239.957L237.496 100C236.902 102.969 234.719 104.453 230.945 104.453C229.43 104.453 228.125 104.258 227.031 103.867L227.383 102.109C228.5 102.5 229.812 102.695 231.32 102.695C233.633 102.695 234.969 101.797 235.328 100L236.09 96.2031ZM240.789 99.4141L241.164 97.5391C242.516 98.0078 243.93 98.2422 245.406 98.2422C247.367 98.2422 248.465 97.6562 248.699 96.4844C248.918 95.3906 248.344 94.8438 246.977 94.8438H245.336C242.68 94.8438 241.594 93.6328 242.078 91.2109C242.547 88.8672 244.488 87.6953 247.902 87.6953C249.371 87.6953 250.789 87.8906 252.156 88.2812L251.781 90.1562C250.43 89.6875 249.02 89.4531 247.551 89.4531C245.504 89.4531 244.363 90.0391 244.129 91.2109C243.91 92.3047 244.445 92.8516 245.734 92.8516H247.375C250.188 92.8516 251.352 94.0625 250.867 96.4844C250.398 98.8281 248.461 100 245.055 100C243.578 100 242.156 99.8047 240.789 99.4141ZM255.836 85.7031H257.195L257.266 87.6953H260.594L260.242 89.4531H257.254L255.836 96.5195C255.609 97.668 255.992 98.2422 256.984 98.2422H258.484L258.133 100H256.07C254.008 100 253.199 98.8945 253.645 96.6836L255.836 85.7031ZM268.434 87.6953C271.652 87.6953 273.027 88.8633 272.559 91.1992C272.105 93.457 270.414 94.5859 267.484 94.5859H263.559C263.074 97.0234 263.988 98.2422 266.301 98.2422C268.09 98.2422 269.629 97.7344 270.918 96.7188L270.566 98.4766C269.277 99.4922 267.738 100 265.949 100C262.191 100 260.73 97.9023 261.566 93.707C262.371 89.6992 264.66 87.6953 268.434 87.6953ZM263.922 92.7812H267.848C269.332 92.7812 270.184 92.2422 270.402 91.1641C270.629 90.0078 269.855 89.4297 268.082 89.4297C265.895 89.4297 264.508 90.5469 263.922 92.7812ZM273.625 100L276.086 87.6953H278.02L277.527 91.3516C278.965 88.9141 280.77 87.6953 282.941 87.6953C284.895 87.6953 285.633 88.8828 285.156 91.2578C286.664 88.8828 288.496 87.6953 290.652 87.6953C292.699 87.6953 293.457 89.0156 292.926 91.6562L291.262 100H289.094L290.758 91.6562C291.047 90.2188 290.613 89.5 289.457 89.5C287.91 89.5 286.375 90.8008 284.852 93.4023L283.527 100H281.359L283.023 91.6562C283.312 90.2188 282.887 89.5 281.746 89.5C280.137 89.5 278.594 90.8008 277.117 93.4023L275.793 100H273.625Z" fill="#010181"/>
</svg>
