<svg width="91" height="84" viewBox="0 0 91 84" fill="none" xmlns="http://www.w3.org/2000/svg">
<path d="M90.3228 23.9932L89.5464 27.875H70.1372L67.6528 40.2969H86.1562L85.3799 44.1787H66.8765L63.5122 61H58.7246L66.126 23.9932H90.3228Z" fill="#010181"/>
<path d="M65.629 10.7383C65.6817 10.8407 65.9402 11.0748 66.2032 11.2586C66.6457 11.5677 67.307 12.1374 68.7463 13.4509L69.1062 13.4443C69.005 13.3482 68.9006 13.2535 68.8011 13.1683C68.5352 12.9408 67.9497 12.4042 67.5 11.9757C66.7151 11.2282 65.826 10.5523 65.6275 10.5523C65.5456 10.5523 65.5458 10.577 65.629 10.7383Z" fill="#010181"/>
<path fill-rule="evenodd" clip-rule="evenodd" d="M37.3312 0.044956C37.0612 0.0750962 36.6254 0.146605 36.3626 0.203931C35.16 0.466262 34.343 0.584196 33.4028 0.631344C32.2678 0.688275 32.0716 0.746717 32.137 1.00839C32.1789 1.17577 32.176 1.17715 31.8922 1.13171C31.2161 1.02349 30.6561 1.13604 30.6561 1.38019C30.6561 1.47179 29.4787 1.70155 28.9439 1.71442C28.7007 1.72027 28.605 1.75829 28.4726 1.90163C28.3813 2.00052 28.2468 2.08149 28.1738 2.08149C28.1008 2.08149 27.9301 2.12128 27.7944 2.16987C27.1405 2.40417 27.1133 2.4085 26.921 2.30875C26.8193 2.25596 26.6752 2.21282 26.6008 2.21282C26.4903 2.21282 26.4726 2.24204 26.505 2.3714C26.54 2.51113 26.5071 2.54679 26.2282 2.67188C26.0541 2.74996 25.676 2.87183 25.3881 2.94262C24.6869 3.11505 24.5313 3.17954 24.1295 3.4638C23.9412 3.5971 23.3522 3.9054 22.8207 4.14901C22.2892 4.39257 21.7007 4.70684 21.5131 4.8473C21.3254 4.98775 21.0898 5.13767 20.9896 5.18041C20.8892 5.22323 20.7336 5.32291 20.6436 5.40203C20.5536 5.48116 20.3622 5.58117 20.2182 5.62431C19.7087 5.77691 19.5998 5.84081 19.4688 6.06361C19.3739 6.22501 19.2203 6.34157 18.9265 6.47519C18.6987 6.57881 18.371 6.80365 18.1883 6.98167C18.0077 7.15778 17.5954 7.48794 17.2722 7.71541C16.9489 7.9428 16.4341 8.35039 16.1281 8.62106C15.1685 9.47004 14.9977 9.60229 14.4181 9.94447C13.8869 10.2581 12.9869 11.0505 12.9869 11.2046C12.9869 11.2431 13.0311 11.2746 13.0851 11.2746C13.1391 11.2746 13.1832 11.3003 13.1832 11.3316C13.1832 11.3955 12.8062 11.4697 12.4767 11.4708C12.3 11.4714 12.241 11.5102 12.1503 11.685C12.0894 11.8023 11.7572 12.1791 11.4121 12.5222C11.0669 12.8653 10.6566 13.3085 10.5002 13.5072C10.3439 13.7058 9.95718 14.1343 9.64096 14.4593C9.25388 14.8572 9.03838 15.1356 8.98145 15.3113C8.91509 15.5159 8.8149 15.6267 8.51733 15.8241C8.06441 16.1247 7.9387 16.3362 8.10401 16.5194C8.2059 16.6324 8.20636 16.6464 8.10898 16.6838C8.05054 16.7063 7.95356 16.7257 7.89348 16.7268C7.76593 16.7292 7.46379 17.1195 7.15798 17.6769C6.90976 18.1293 6.57732 18.6236 6.14384 19.1848C5.97748 19.4002 5.74072 19.7769 5.61769 20.0221C5.49466 20.2673 5.28937 20.6319 5.16156 20.8324C5.03369 21.0329 4.85686 21.3897 4.76852 21.6251C4.68017 21.8606 4.46657 22.2653 4.29374 22.5245C3.93806 23.058 2.91698 25.1246 2.66582 25.8194C2.57439 26.0722 2.34555 26.5893 2.15734 26.9685C1.96906 27.3477 1.75441 27.8353 1.68033 28.052C1.60632 28.2687 1.44016 28.6667 1.31111 28.9366C1.18213 29.2064 1.07657 29.5074 1.07657 29.6054C1.07657 29.7034 1.04712 29.8613 1.01113 29.9562C0.906094 30.2334 1.03488 30.407 1.31196 30.3619C1.43447 30.342 1.53466 30.3514 1.53466 30.3827C1.53466 30.4428 1.44357 30.4768 1.09365 30.5474C0.977098 30.5709 0.8595 30.6248 0.832342 30.6672C0.679405 30.9058 0.410113 32.4574 0.468552 32.7639C0.486811 32.8599 0.455791 33.0738 0.399577 33.2394C0.290421 33.5608 0.306388 33.6627 0.509715 33.9425L0.638897 34.1203L0.399643 34.3859C0.0803534 34.7405 0.0895807 34.8065 0.487596 35.0164C0.680714 35.1182 0.696093 35.1413 0.585758 35.1637C0.337473 35.2139 0.212807 35.3859 0.244023 35.6349C0.25999 35.7621 0.226681 36.0729 0.170074 36.3257C0.0888608 36.6883 0.0680504 37.1804 0.0715188 38.6568C0.0739402 39.6861 0.0990043 40.7963 0.127144 41.1239C0.164904 41.563 0.155415 41.7872 0.0910858 41.9775C0.0404995 42.1272 0.00241259 42.5388 0.000318465 42.9576C-0.00269184 43.5776 0.0140612 43.6969 0.118898 43.8024C0.21621 43.9003 0.232178 43.9804 0.197625 44.1967C0.0339554 45.2205 0.0505121 45.7713 0.264571 46.4217C0.358807 46.708 0.358218 46.761 0.257373 47.0656C0.16955 47.3309 0.162548 47.434 0.222361 47.5789C0.275958 47.7088 0.278249 47.8432 0.230411 48.0514C0.135979 48.4627 0.144552 48.6126 0.269676 48.7382C0.349645 48.8184 0.375625 48.9474 0.366595 49.219C0.359789 49.4231 0.398595 49.7526 0.452846 49.9512C0.507097 50.1499 0.551859 50.4051 0.552252 50.5184C0.552776 50.6468 0.642234 50.8546 0.789608 51.0696C0.995226 51.3695 1.0286 51.4723 1.04444 51.8546C1.0663 52.3842 1.20798 52.6881 1.4878 52.8061C1.68877 52.8909 1.68995 52.8939 1.53263 52.9161C1.29253 52.9501 1.29063 53.2175 1.52727 53.6684C1.66207 53.9251 1.70651 54.0769 1.66816 54.1489C1.63289 54.215 1.64382 54.2978 1.69741 54.3713C1.7444 54.4358 1.81933 54.6865 1.86396 54.9286C1.90866 55.1706 2.02776 55.5792 2.12867 55.8366C2.22958 56.0939 2.35948 56.4928 2.41733 56.723C2.74808 58.0395 3.49103 59.8054 3.98865 60.4576C4.22365 60.7657 5.32922 63.0157 5.33079 63.1892C5.33131 63.2444 6.29795 64.8944 6.67345 65.481C7.14509 66.2179 7.48408 66.6567 8.15786 67.4027C8.56426 67.8528 8.9929 68.3563 9.1103 68.5217C9.22777 68.6871 9.68651 69.1787 10.1298 69.6141C10.5731 70.0496 11.1926 70.7013 11.5064 71.0625C12.4171 72.1103 12.5127 72.2051 12.7059 72.2523C12.8089 72.2775 13.0397 72.4631 13.2344 72.6774C13.4669 72.9332 13.7133 73.1212 13.987 73.2516C14.4298 73.4625 14.5539 73.578 14.8975 74.0986C15.4535 74.9411 17.7352 76.792 19.0065 77.4319C19.3478 77.6036 19.7159 77.8118 19.8245 77.8943C20.0235 78.0457 21.8205 79.047 22.0355 79.1263C22.0992 79.1498 22.3201 79.2839 22.5263 79.4243C22.7325 79.5647 23.1075 79.7822 23.3594 79.9076C23.8247 80.1392 25.185 80.6102 25.7807 80.7459C25.9946 80.7946 26.244 80.9264 26.5006 81.1262C27.0197 81.5303 27.4355 81.6913 28.9219 82.0635C29.6058 82.2347 30.3273 82.4223 30.5252 82.4804C30.7232 82.5384 31.2238 82.6142 31.6378 82.6489C32.0517 82.6835 32.5376 82.7557 32.7175 82.8094C32.8975 82.8631 33.4276 82.9814 33.8955 83.0723C34.3634 83.1632 35.0849 83.3106 35.4988 83.3997C35.9127 83.4889 36.5606 83.5803 36.9385 83.603C37.3164 83.6256 37.9201 83.6866 38.2801 83.7386C40.1684 84.0112 40.5832 84.0395 41.5753 83.9635C42.1024 83.9232 42.9755 83.8346 43.5154 83.7667C44.0553 83.6988 45.1596 83.5977 45.9694 83.542C47.5483 83.4334 47.8788 83.3877 48.858 83.1432C49.2049 83.0566 49.7851 82.9412 50.1472 82.8869C50.5092 82.8326 50.9911 82.7096 51.2179 82.6137C51.4446 82.5178 51.9982 82.3134 52.4482 82.1597C53.2791 81.8757 54.9648 81.1974 55.4313 80.9594C55.5722 80.8875 55.988 80.7673 56.3552 80.6924C56.7225 80.6174 57.1938 80.4695 57.4026 80.3638C57.6114 80.258 58.0618 80.1114 58.4036 80.0378C58.9512 79.92 59.2427 79.792 60.8574 78.9605C61.8652 78.4415 62.8997 77.8657 63.1563 77.681C63.4129 77.4963 63.7515 77.2652 63.9089 77.1674C64.0662 77.0696 64.2832 76.9075 64.3912 76.8072C64.4992 76.7068 64.7495 76.5423 64.9475 76.4416C65.4471 76.1873 66.0381 75.7578 66.3872 75.3953C66.5492 75.227 66.9789 74.8854 67.3422 74.6361C68.1335 74.0931 69.327 73.0019 69.7873 72.4005C69.9704 72.1614 70.2775 71.8608 70.4699 71.7327C70.6622 71.6046 71.0849 71.2464 71.4092 70.9367C71.5515 70.8008 71.6668 70.6854 71.7613 70.5827H70.0191C69.703 70.8951 69.4211 71.1669 69.2012 71.3691C68.7513 71.7828 68.1623 72.285 67.8923 72.4852C67.6224 72.6853 67.2231 73.0085 67.0049 73.2034C66.4454 73.7033 65.6308 74.3681 65.2232 74.6574C65.0327 74.7928 64.7051 75.0468 64.4955 75.2219C64.1598 75.5022 63.2646 75.999 61.7754 76.7313C61.5244 76.8547 61.068 77.125 60.7611 77.3318C59.8034 77.9773 57.4161 79.0428 56.2877 79.3285C56.0639 79.3851 55.6987 79.5605 55.4042 79.7528C55.0485 79.9852 54.6846 80.1493 54.1552 80.3159C53.7444 80.4452 53.3711 80.5511 53.3257 80.5511C53.2804 80.5511 53.0201 80.6408 52.7472 80.7504C52.0796 81.0186 51.3818 81.1863 50.3044 81.3375C49.1854 81.4944 48.2255 81.6496 47.6709 81.7633C47.437 81.8113 47.0394 81.8709 46.7875 81.8957C46.5355 81.9205 46.0331 81.9975 45.6711 82.0668C45.309 82.136 44.5875 82.2217 44.0678 82.2573C42.5922 82.3584 39.0819 82.3397 37.8093 82.224C35.8649 82.0473 34.6264 81.9189 34.2895 81.859C34.1088 81.827 33.5206 81.7398 32.9824 81.6653C32.2723 81.5671 31.7592 81.4498 31.112 81.2375C30.6215 81.0767 30.1405 80.9451 30.043 80.9451C29.9456 80.9451 29.6037 80.8435 29.2832 80.7192C28.9628 80.5951 28.5 80.4432 28.255 80.3817C27.6766 80.2367 25.4407 79.3025 25.079 79.0548C24.9251 78.9494 24.6236 78.7978 24.4091 78.7179C23.9876 78.561 21.5463 77.3197 21.0877 77.0291C20.9334 76.9314 20.5863 76.7507 20.3164 76.6277C19.7209 76.3561 18.7317 75.7994 18.4186 75.5596C18.2926 75.4632 17.9687 75.2549 17.6987 75.0969C17.2173 74.815 16.6685 74.2937 16.7007 74.1488C16.7097 74.1085 16.5926 74.0476 16.4404 74.0136C16.2295 73.9665 16.1293 73.8971 16.0188 73.7219C15.7376 73.2764 15.5778 73.1132 14.985 72.6661C14.5501 72.3381 14.3034 72.0928 14.0833 71.7698C13.7785 71.3223 13.5023 71.0953 13.2625 71.0953C13.1912 71.0953 13.0802 71.0141 13.0159 70.9147C12.7946 70.5732 12.0366 69.6923 11.2397 68.8507C9.76452 67.2928 7.86514 64.5571 6.58308 62.1438C6.19226 61.4082 5.75466 60.6319 5.61062 60.4186C5.46652 60.2053 5.32601 59.9569 5.2984 59.8666C5.27072 59.7763 5.07891 59.3626 4.87224 58.9473C4.66551 58.532 4.45774 58.0887 4.41055 57.9623C4.3633 57.8359 4.16266 57.4666 3.96457 57.1415C3.40688 56.2264 3.35969 56.107 3.21742 55.251C3.14334 54.8056 3.04544 54.4201 2.99708 54.3836C2.83511 54.2615 2.64717 53.7992 2.64717 53.523C2.64717 53.3719 2.58447 53.0457 2.50784 52.7981C2.43121 52.5506 2.33004 52.165 2.28298 51.9415C2.236 51.7179 2.09255 51.2953 1.96428 51.0025C1.83536 50.7084 1.73079 50.3614 1.73046 50.2271C1.72981 49.8942 1.61312 49.1728 1.52124 48.9334C1.47969 48.8251 1.36104 48.6106 1.25758 48.4568C1.06728 48.1739 1.06558 48.0469 1.25202 48.0469C1.33192 48.0469 1.33781 48.027 1.27891 47.9557C1.22453 47.89 1.22185 47.7847 1.26936 47.5782C1.36425 47.1651 1.35385 46.6806 1.23003 45.7487C1.13697 45.0481 1.09673 44.9014 0.955503 44.7471C0.7972 44.5742 0.795302 44.5627 0.910675 44.478C1.02166 44.3966 1.02644 44.3348 0.970423 43.7065C0.887509 42.7763 0.900532 41.5072 1.01394 39.4777C1.06636 38.5387 1.10013 37.3597 1.089 36.8578C1.07578 36.2638 1.09548 35.8803 1.14548 35.7592C1.24632 35.5149 1.18559 35.2966 0.937964 35.0136C0.802435 34.8588 0.767489 34.7826 0.831949 34.7826C0.88476 34.7826 1.00563 34.7214 1.10046 34.6465C1.28088 34.5041 1.33461 34.2242 1.19109 34.1738C1.13069 34.1527 1.13828 34.1123 1.22021 34.0195C1.53518 33.6626 1.69997 32.9057 1.52412 32.6232C1.46274 32.5245 1.47517 32.4574 1.58871 32.273C1.666 32.1475 1.70991 32.0254 1.68622 32.0016C1.6626 31.9779 1.70461 31.8921 1.77967 31.811C1.85977 31.7245 1.93418 31.5279 1.95977 31.3352C2.02213 30.8665 2.16689 30.1783 2.34365 29.51C2.46007 29.0698 2.54684 28.8803 2.70809 28.7133C2.83387 28.5831 2.92444 28.4179 2.93144 28.3059C2.95114 27.9886 3.2917 27.0779 3.5286 26.709C3.65195 26.5169 3.83342 26.1347 3.93185 25.8597C4.17254 25.1875 4.48444 24.5291 4.80425 24.0181C4.94959 23.7858 5.0685 23.5368 5.0685 23.4647C5.0685 23.3927 5.19866 23.1395 5.35775 22.9021C5.51684 22.6647 5.72697 22.2994 5.82468 22.0904C5.92238 21.8814 6.05241 21.6745 6.1136 21.6307C6.17472 21.5869 6.30083 21.3985 6.39376 21.2119C6.5925 20.8129 7.39586 19.4921 7.93111 18.6843C8.74245 17.4599 9.50524 16.4691 10.0716 15.904C10.3973 15.5789 10.7903 15.1321 10.945 14.9112C11.2574 14.465 14.505 11.2473 14.9174 10.9753C15.0614 10.8803 15.3265 10.6632 15.5064 10.4926C15.6864 10.3221 16.0545 10.0085 16.3244 9.79567C16.5944 9.58279 17.0117 9.24021 17.2517 9.03429C17.4919 8.82836 17.8969 8.53766 18.1518 8.38821C18.4068 8.23882 18.8297 7.96283 19.0917 7.7749C19.3537 7.58697 19.8131 7.30021 20.1128 7.13769C20.4124 6.97517 20.8533 6.69714 21.0923 6.51991C21.3314 6.34262 21.6835 6.12789 21.8748 6.04279C22.0661 5.95762 22.8612 5.56751 23.6417 5.17588C24.4222 4.78419 25.1345 4.44214 25.2245 4.41574C25.47 4.34378 26.6643 3.78576 26.926 3.62074C27.0519 3.54129 27.3086 3.42296 27.4964 3.35775C27.6841 3.29248 27.9107 3.17809 27.9999 3.10356C28.187 2.94715 28.2585 2.69073 28.1039 2.73072C28.0499 2.74464 27.9321 2.76874 27.8421 2.78423C27.684 2.81148 27.6828 2.80899 27.8056 2.70964C27.9512 2.5917 28.1489 2.58258 28.5487 2.6751C28.7973 2.73262 28.8808 2.71798 29.2686 2.54869C29.5099 2.44343 29.8839 2.32241 30.0999 2.27973C30.3158 2.23711 30.7576 2.13172 31.0815 2.0455C31.4054 1.95929 32.3183 1.75671 33.1102 1.59537C35.0342 1.20335 35.7311 1.04713 36.1103 0.922962C36.3894 0.831622 36.4239 0.800365 36.3976 0.662338C36.3628 0.479526 36.4624 0.455756 36.5811 0.618605C36.6542 0.718809 36.7898 0.730301 37.7718 0.7194C38.4627 0.711652 39.0997 0.666606 39.4634 0.599759C39.8308 0.53219 40.835 0.46206 42.1738 0.410447C45.1118 0.297109 45.0643 0.297175 45.6632 0.403815C49.381 1.06552 49.7252 1.12278 49.9422 1.11556C50.0216 1.11293 50.1976 1.0189 50.3334 0.906611C50.4691 0.79439 50.6471 0.702525 50.7289 0.702525C50.9096 0.702525 50.9253 0.809821 50.7527 0.864783C50.418 0.971357 50.6499 1.29351 51.0613 1.29351C51.5329 1.29351 52.8943 1.63956 53.6915 1.96211C54.1414 2.14407 54.9513 2.46799 55.4912 2.68193C56.0311 2.8958 56.8409 3.25899 57.2908 3.48908C57.7407 3.71911 58.315 3.98892 58.5669 4.0886C58.8189 4.18822 59.3195 4.43301 59.6794 4.63257C61.0192 5.37531 61.2536 5.49265 61.4005 5.49436C61.604 5.49666 61.9099 5.65826 62.2644 5.95073C62.4263 6.08436 62.796 6.33434 63.0857 6.50625C63.6688 6.85218 65.7473 8.38617 66.1581 8.77373C66.3021 8.90952 66.7733 9.30397 67.2052 9.65029C67.6371 9.99654 68.1613 10.4454 68.3701 10.6475C68.5788 10.8498 68.9565 11.1662 69.2093 11.3507C69.6039 11.6387 70.4118 12.4673 71.2825 13.4485L73 13.4318C72.8767 13.303 72.7688 13.1969 72.694 13.1324C72.4931 12.9593 72.1036 12.6224 71.8284 12.3837C71.5532 12.145 71.206 11.8874 71.0569 11.8114C70.8643 11.7132 70.6809 11.5229 70.4237 11.1545C70.2245 10.8693 69.9784 10.5713 69.8767 10.4924C69.7752 10.4134 69.4395 10.1509 69.1309 9.90881C68.8223 9.66684 68.4394 9.37233 68.2801 9.2544C68.1209 9.13653 67.7991 8.8914 67.5651 8.70971C66.3409 7.75894 66.1193 7.59485 65.6673 7.30415C65.3974 7.13053 64.8919 6.75887 64.544 6.47828C64.1961 6.19776 63.7102 5.85171 63.4642 5.70934C63.2182 5.56698 62.6522 5.23918 62.2065 4.98079C61.7607 4.72247 61.3737 4.51109 61.3464 4.51109C61.3191 4.51109 61.2778 4.56073 61.2546 4.62134C61.22 4.71176 61.151 4.67158 60.8713 4.39795C60.6837 4.21448 60.3388 3.96962 60.1048 3.85392C59.8709 3.73821 59.6058 3.57477 59.5158 3.49066C59.3322 3.31901 57.6076 2.40981 57.4657 2.40981C57.4155 2.40981 57.1862 2.32451 56.9563 2.22024C56.7264 2.11603 56.3027 1.95475 56.0147 1.86197C55.7268 1.76919 55.285 1.61868 55.0331 1.5276C54.5023 1.33567 54.3193 1.3226 54.0604 1.45807C53.8318 1.57764 53.818 1.57856 53.8591 1.47094C53.9195 1.31301 53.5972 1.11319 52.9401 0.90103C51.8409 0.546176 50.619 0.360739 48.6198 0.245365C48.0799 0.214175 47.5499 0.15245 47.4419 0.108191C47.2074 0.0119922 38.1359 -0.0447423 37.3312 0.044956ZM38.7709 0.447679C38.7709 0.414978 38.7243 0.370326 38.6673 0.348394C38.5059 0.286209 38.0816 0.30059 38.1525 0.365795C38.242 0.448336 38.7709 0.518334 38.7709 0.447679ZM37.2984 0.571195C37.3884 0.571195 37.462 0.541646 37.462 0.50553C37.462 0.469414 37.3884 0.439865 37.2984 0.439865C37.2085 0.439865 37.1348 0.469414 37.1348 0.50553C37.1348 0.541646 37.2085 0.571195 37.2984 0.571195ZM49.356 0.701605C49.6016 0.700423 49.8305 0.633773 49.8305 0.563512C49.8305 0.504348 49.4976 0.496534 49.2906 0.550773C49.1111 0.597855 49.1566 0.70259 49.356 0.701605ZM53.2171 1.52767C53.4422 1.59465 53.4058 1.38406 53.1713 1.26238C52.9316 1.13795 52.9113 1.13808 52.8634 1.2635C52.8215 1.37303 52.8636 1.44086 52.9899 1.46719C53.0339 1.47639 53.1361 1.50364 53.2171 1.52767ZM29.2322 2.35459C29.2781 2.30856 29.2293 2.24434 29.0779 2.15175C28.779 1.96887 28.631 1.96966 28.7965 2.15326C28.9787 2.35524 29.1518 2.43522 29.2322 2.35459ZM56.8366 2.93513C56.9534 2.93513 57.02 2.90775 56.9963 2.86947C56.9741 2.83335 56.884 2.8038 56.7961 2.8038C56.7083 2.8038 56.6364 2.83335 56.6364 2.86947C56.6364 2.90558 56.7265 2.93513 56.8366 2.93513ZM27.2532 3.09929C27.2892 3.12162 27.3186 3.09378 27.3186 3.0375C27.3186 2.98123 27.2892 2.93513 27.2532 2.93513C27.2172 2.93513 27.1877 2.96291 27.1877 2.99692C27.1877 3.03094 27.2172 3.07697 27.2532 3.09929ZM58.925 3.65646C59.0295 3.7126 59.0577 3.70781 59.0577 3.63394C59.0577 3.5231 58.8818 3.43983 58.829 3.52572C58.8088 3.55842 58.8521 3.61726 58.925 3.65646ZM25.1961 3.90487C25.2204 3.88051 25.2214 3.7853 25.1984 3.69336C25.1511 3.50405 25.0276 3.4659 25.0291 3.64103C25.0305 3.79002 25.1392 3.96193 25.1961 3.90487ZM24.2429 4.54392C24.2789 4.5216 24.3083 4.47557 24.3083 4.44155C24.3083 4.40754 24.2789 4.37976 24.2429 4.37976C24.2069 4.37976 24.1774 4.42586 24.1774 4.48213C24.1774 4.53841 24.2069 4.56625 24.2429 4.54392ZM60.7278 4.88085C60.7857 4.85859 60.8147 4.81059 60.7922 4.77421C60.7392 4.68812 60.6472 4.6899 60.5929 4.77815C60.5327 4.87592 60.6026 4.92905 60.7278 4.88085ZM21.8539 5.06031C21.9076 5.03956 21.9354 4.99622 21.9154 4.96385C21.8584 4.87113 21.7561 4.8953 21.7561 5.00154C21.7561 5.06012 21.7945 5.08316 21.8539 5.06031ZM22.8031 5.03641C22.8031 5.00029 22.7761 4.97074 22.7431 4.97074C22.71 4.97074 22.6435 4.95558 22.5953 4.93699C22.5087 4.90364 22.2264 5.06235 22.1334 5.19676C22.0313 5.34425 22.0918 5.35758 22.296 5.23268C22.413 5.16111 22.5749 5.10247 22.6559 5.10234C22.7369 5.10221 22.8031 5.07253 22.8031 5.03641ZM21.7313 5.69306C21.9347 5.69306 21.9569 5.67901 21.887 5.59456C21.8041 5.49442 21.723 5.48004 21.5761 5.53953C21.4121 5.60592 21.5003 5.69306 21.7313 5.69306ZM62.8736 5.95473C62.9901 5.95388 62.9986 5.9418 62.9188 5.89005C62.7899 5.80646 62.6382 5.80646 62.6897 5.89005C62.712 5.92617 62.7947 5.95526 62.8736 5.95473ZM20.836 6.41537C20.8741 6.41537 20.9053 6.38582 20.9053 6.34971C20.9053 6.31359 20.8924 6.28404 20.8765 6.28404C20.8606 6.28404 20.8294 6.31359 20.8072 6.34971C20.7849 6.38582 20.798 6.41537 20.836 6.41537ZM69.1069 10.5523C69.163 10.5523 69.1907 10.5227 69.1685 10.4866C69.1462 10.4505 69.1003 10.4209 69.0664 10.4209C69.0325 10.4209 69.0048 10.4505 69.0048 10.4866C69.0048 10.5227 69.0508 10.5523 69.1069 10.5523ZM11.809 12.8505C11.845 12.8505 11.8744 12.821 11.8744 12.7849C11.8744 12.7488 11.845 12.7192 11.809 12.7192C11.773 12.7192 11.7435 12.7488 11.7435 12.7849C11.7435 12.821 11.773 12.8505 11.809 12.8505ZM11.4163 13.6713C11.4523 13.649 11.4818 13.603 11.4818 13.569C11.4818 13.535 11.4523 13.5072 11.4163 13.5072C11.3803 13.5072 11.3509 13.5533 11.3509 13.6096C11.3509 13.6658 11.3803 13.6937 11.4163 13.6713ZM9.97275 15.2145C10.0108 15.2145 10.0421 15.1849 10.0421 15.1488C10.0421 15.1127 10.0291 15.0831 10.0132 15.0831C9.99729 15.0831 9.96614 15.1127 9.94389 15.1488C9.92164 15.1849 9.93467 15.2145 9.97275 15.2145ZM5.6902 21.0685C5.72442 21.0685 5.7629 21.0367 5.77579 20.9979C5.78868 20.9591 5.75021 20.9273 5.6902 20.9273C5.63019 20.9273 5.59171 20.9591 5.6046 20.9979C5.61749 21.0367 5.65597 21.0685 5.6902 21.0685ZM4.21004 23.9479C4.24603 23.9479 4.29367 23.9184 4.31592 23.8822C4.33817 23.8461 4.32692 23.8166 4.29093 23.8166C4.25493 23.8166 4.20729 23.8461 4.18504 23.8822C4.16279 23.9184 4.17405 23.9479 4.21004 23.9479ZM2.97437 25.9179C3.01037 25.9179 3.03981 25.8883 3.03981 25.8522C3.03981 25.8161 3.01037 25.7865 2.97437 25.7865C2.93838 25.7865 2.90893 25.8161 2.90893 25.8522C2.90893 25.8883 2.93838 25.9179 2.97437 25.9179ZM2.71261 26.984C2.71261 27.0726 2.99257 27.0143 3.02378 26.9192C3.03903 26.8728 2.99636 26.8372 2.92529 26.8372C2.7895 26.8372 2.71261 26.8902 2.71261 26.984ZM1.62065 31.3024C1.77234 31.3024 1.75886 31.2202 1.57955 31.0511C1.43002 30.9102 1.20745 30.8572 1.20745 30.9626C1.20745 31.0571 1.5058 31.3024 1.62065 31.3024ZM1.12565 31.761C1.26589 31.7603 1.28395 31.7459 1.20745 31.6964C1.07938 31.6134 0.945686 31.6134 0.945686 31.6964C0.945686 31.7325 1.0267 31.7616 1.12565 31.761ZM1.14712 32.1415C1.30058 32.1593 1.30162 32.1567 1.17859 32.0594C1.02474 31.9378 0.925072 31.9294 0.96172 32.0411C0.976509 32.0863 1.05995 32.1315 1.14712 32.1415ZM1.3312 32.9812C1.3827 32.9493 1.38421 32.8986 1.33624 32.8087C1.25994 32.6657 1.14149 32.6379 1.14299 32.7634C1.14469 32.9022 1.25424 33.029 1.3312 32.9812ZM0.749362 33.8024C0.749362 33.8941 0.904458 33.8756 1.04771 33.7669C1.14129 33.6959 1.14888 33.672 1.07657 33.676C0.89209 33.6864 0.749362 33.7416 0.749362 33.8024ZM0.614422 35.5583C0.663503 35.5747 0.688043 35.5501 0.671683 35.5009C0.655911 35.4535 0.604344 35.4017 0.55716 35.3859C0.508079 35.3695 0.483539 35.3942 0.499899 35.4434C0.515605 35.4907 0.567173 35.5425 0.614422 35.5583ZM0.880245 48.7364C0.916238 48.7141 0.945686 48.6828 0.945686 48.6669C0.945686 48.6509 0.916238 48.6379 0.880245 48.6379C0.844252 48.6379 0.814803 48.6692 0.814803 48.7075C0.814803 48.7457 0.844252 48.7587 0.880245 48.7364Z" fill="#010181"/>
<path d="M53.1353 6.07523C53.2223 6.16519 54.0613 6.49194 54.6732 6.67416C55.8666 7.0296 59.0318 8.49721 59.8103 9.05615C60.2494 9.37141 61.9092 10.4215 62.2231 10.5827C62.4933 10.7214 62.8369 11.0942 62.8914 11.3077C62.9098 11.3801 63.0432 11.5077 63.1878 11.5911C63.4427 11.7384 63.9235 12.1167 65.5724 13.4702H66.1719C65.2714 12.6231 64.354 11.8249 63.7695 11.3898C63.4276 11.1352 62.9781 10.798 62.7706 10.6405C62.5632 10.4829 62.2788 10.3144 62.1386 10.2659C61.9984 10.2174 61.7117 10.0317 61.5015 9.85313C61.0228 9.44653 60.5016 9.09378 59.7403 8.66085C59.4139 8.47522 59.0979 8.26916 59.0382 8.2029C58.9784 8.13665 58.7596 8.0046 58.5519 7.90945C56.8545 7.13184 56.5655 7.02304 54.6077 6.42489C53.41 6.05901 53.033 5.96944 53.1353 6.07523Z" fill="#010181"/>
<path d="M62.9188 71.4634C62.6129 71.6681 62.2266 71.962 62.0604 72.1166C61.8942 72.2711 61.5997 72.4771 61.406 72.5743C61.2122 72.6715 60.9801 72.8177 60.8901 72.8992C60.8001 72.9807 60.6323 73.0789 60.5172 73.1174C60.4022 73.1559 60.1436 73.3092 59.9426 73.4581C59.7055 73.634 59.2995 73.8297 58.7854 74.016C58.3498 74.1738 57.8358 74.4119 57.6431 74.5451C57.2955 74.7854 56.6696 75.0418 55.0331 75.6147C54.5652 75.7785 54.1713 75.9404 54.1578 75.9746C54.0851 76.1585 53.8692 76.2829 53.6228 76.2829C53.4771 76.2829 53.2783 76.3239 53.1811 76.3741C53.0839 76.4242 52.8009 76.4969 52.5523 76.5355C52.1154 76.6034 51.8138 76.7401 52.0915 76.7445C52.326 76.7482 52.0477 76.8533 51.6956 76.894C51.5156 76.9148 51.1769 76.9955 50.943 77.0734C50.709 77.1512 50.2894 77.2396 50.0105 77.2697C49.7315 77.2999 49.1131 77.3978 48.6362 77.4873C47.5614 77.6889 46.9473 77.7836 46.2329 77.8582C45.928 77.8899 45.1917 78.0051 44.5969 78.114C42.5084 78.4966 42.2058 78.5369 41.7716 78.4902C41.5429 78.4656 40.5313 78.4184 39.5235 78.3854C38.4892 78.3515 37.4488 78.283 37.1348 78.2281C35.5029 77.9426 34.9283 77.8264 34.1245 77.6188C33.6386 77.4934 33.0644 77.3504 32.8484 77.3011C32.6325 77.2517 32.2791 77.1486 32.0631 77.0719C31.8472 76.9952 31.5292 76.905 31.3567 76.8715C31.1842 76.8379 30.9095 76.7183 30.7462 76.6057C30.4913 76.4296 30.4112 76.4064 30.1766 76.4408C29.9428 76.4751 29.8095 76.4372 29.2491 76.1766C28.8026 75.9689 28.3915 75.8338 27.9552 75.7514C27.0555 75.5813 26.8038 75.5077 26.4679 75.3162C26.3059 75.2239 25.8495 74.9646 25.4535 74.7398C24.6306 74.2726 23.5122 73.6044 23.0322 73.293C22.8522 73.1762 22.4536 72.9195 22.1463 72.7224C21.8391 72.5254 21.3713 72.1747 21.1069 71.9431C20.8425 71.7116 20.3724 71.3211 20.0623 71.0752C19.7521 70.8294 19.3806 70.5163 19.2366 70.3794C19.0926 70.2424 18.7439 69.9587 18.4616 69.7488C17.7069 69.1878 17.2349 68.7328 17.1047 68.441C17.0255 68.2636 16.9419 68.1765 16.8369 68.1622C16.6852 68.1416 16.1121 67.5704 15.5963 66.9256C15.4519 66.745 15.137 66.3895 14.8965 66.1355C14.1755 65.3741 13.6788 64.7811 13.4182 64.3708C13.2827 64.1576 13.0051 63.7822 12.8013 63.5366C12.5974 63.291 12.254 62.8074 12.038 62.4618C11.3102 61.2975 10.6043 60.3441 10.3424 60.172C10.2492 60.1107 10.1729 60.0073 10.1729 59.9421C10.1729 59.8769 9.96771 59.5613 9.71688 59.2407C9.23765 58.6283 9.13726 58.4537 8.77439 57.6012C8.23855 56.3423 7.67268 55.1466 7.4668 54.8381C7.25333 54.5183 6.92789 53.7936 6.60742 52.9246C6.52464 52.7 6.33381 52.2913 6.18343 52.0163C6.02493 51.7266 5.87068 51.3272 5.8165 51.0665C5.76506 50.819 5.69059 50.5334 5.65093 50.4316C5.61134 50.3299 5.53975 50.0399 5.49178 49.7871C5.44387 49.5342 5.35808 49.1649 5.30121 48.9662C5.24428 48.7676 5.14284 48.1175 5.07563 47.5216C4.98284 46.6977 4.91687 46.3628 4.80052 46.1238C4.67893 45.8741 4.66263 45.785 4.72146 45.6905C4.77323 45.6073 4.79725 44.7444 4.80124 42.8201C4.80438 41.3068 4.81426 39.8055 4.82316 39.4838C4.83409 39.0927 4.81485 38.8906 4.76511 38.8735C4.63927 38.8301 4.54497 39.24 4.54458 39.8322C4.54438 40.1428 4.50256 40.6777 4.45165 41.0208C4.20075 42.7115 4.16966 44.8525 4.37894 46.0317C4.42901 46.3138 4.45486 46.6389 4.43627 46.7541C4.41775 46.8692 4.44864 47.1999 4.50505 47.4888C4.80798 49.0416 5.02479 49.98 5.20279 50.5094C5.4995 51.3914 5.49924 51.3908 5.72043 51.9195C5.83332 52.1895 6.06897 52.8248 6.24416 53.3313C6.79661 54.9291 7.0947 55.6726 7.52158 56.5177C7.74957 56.9692 8.03706 57.5601 8.16042 57.831C8.52944 58.6414 9.84259 60.8698 10.308 61.4754C10.4746 61.6921 10.7176 62.0319 10.8482 62.2306C11.6558 63.4589 12.5073 64.5466 13.4517 65.5559C13.7267 65.8499 14.1285 66.3227 14.3444 66.6065C14.5603 66.8904 14.8034 67.1817 14.8845 67.2539C14.9656 67.3262 15.2075 67.6002 15.422 67.863C15.6365 68.1257 16.023 68.508 16.2809 68.7125C16.5388 68.917 17.1052 69.426 17.5396 69.8436C18.3373 70.6105 18.7697 70.9948 19.4939 71.5808C19.7123 71.7575 19.9294 71.9567 19.9761 72.0235C20.023 72.0903 20.4058 72.3719 20.8269 72.6493C21.248 72.9267 21.725 73.2647 21.887 73.4004C22.6579 74.046 22.9961 74.2881 23.4093 74.4899C23.6555 74.6101 24.1573 74.9095 24.5244 75.1553C26.1316 76.2313 28.1468 77.1391 29.7875 77.5263C30.2556 77.6367 30.7529 77.7674 30.8927 77.8167C31.0325 77.866 31.3531 77.9267 31.605 77.9517C31.857 77.9765 32.3134 78.0381 32.6194 78.0884C32.9253 78.1387 33.5238 78.2269 33.9492 78.2843C34.3747 78.3417 35.1404 78.4922 35.6507 78.6186C37.2022 79.0031 37.3343 79.0282 38.2146 79.106C39.174 79.1907 42.0115 79.1569 43.09 79.0479C43.4679 79.0097 44.4839 78.9321 45.3477 78.8756C47.1034 78.7607 48.2929 78.5968 49.1229 78.3554C49.4294 78.2663 50.222 78.0576 50.8842 77.8916C51.5464 77.7256 52.4122 77.4899 52.8081 77.3678C53.204 77.2457 53.6899 77.1147 53.8879 77.0767C54.8597 76.8901 55.4109 76.7335 55.73 76.5537C55.9226 76.4451 56.4924 76.1802 56.9963 75.965C58.1885 75.4559 60.6113 74.1879 61.4791 73.6189C61.713 73.4654 62.14 73.2136 62.428 73.0591C62.7159 72.9047 63.0693 72.6841 63.2133 72.5691C63.3572 72.4541 63.7401 72.1723 64.064 71.943C64.6366 71.5376 65.3489 70.9424 65.7119 70.5719H64.2308C63.8916 70.8088 63.4705 71.0942 62.9188 71.4634Z" fill="#010181"/>
<path fill-rule="evenodd" clip-rule="evenodd" d="M34.7992 0.30755C34.6564 0.306762 34.6373 0.292316 34.7135 0.24287C34.8392 0.161314 34.8924 0.161314 34.9425 0.24287C34.9659 0.280759 34.9052 0.308141 34.7992 0.30755ZM39.7334 2.86947C39.2862 2.86947 39.2729 2.82652 39.6944 2.74346C40.0794 2.66755 40.3556 2.66269 40.4613 2.72986C40.5794 2.80505 40.2435 2.86947 39.7334 2.86947ZM42.0199 2.89613C41.7004 2.95628 40.969 2.87347 41.1595 2.79875C41.3281 2.73256 41.9717 2.73223 42.14 2.79822C42.2473 2.84031 42.2266 2.85725 42.0199 2.89613ZM36.1439 3.19444C36.275 3.19254 36.7945 3.10698 37.2984 3.00421C38.3168 2.79651 38.8633 2.75403 38.8207 2.88588C38.8062 2.93106 38.6785 3.00185 38.5371 3.04328C38.138 3.16023 35.5381 3.71096 34.8444 3.82548C34.5025 3.88195 33.8104 4.05656 33.3065 4.21343C32.8026 4.37031 32.0517 4.59265 31.6378 4.70743C31.2238 4.82228 30.6643 5.00043 30.3944 5.10339C30.1244 5.20635 29.6974 5.35357 29.4455 5.43053C28.6041 5.68767 27.4916 6.1034 26.5191 6.52405C25.9894 6.75322 25.5361 6.94069 25.5119 6.94069C25.4237 6.94069 23.484 7.81936 23.2574 7.96191C23.1293 8.04248 22.8201 8.21124 22.5702 8.33693C22.1135 8.56662 21.7609 8.75554 20.9654 9.19694C20.7284 9.3284 20.4934 9.43596 20.4431 9.43596C20.2927 9.43596 20.7077 9.06929 21.1344 8.82528C21.3503 8.70169 21.7479 8.46701 22.0179 8.3037C23.0872 7.65683 24.1974 7.0585 24.7779 6.81632C26.0066 6.30368 26.77 5.97115 27.0896 5.80929C27.2695 5.71814 27.5198 5.62135 27.6458 5.59417C27.7718 5.56705 28.2635 5.40236 28.7386 5.22822C29.2137 5.05414 29.9774 4.81912 30.4357 4.70598C30.8941 4.59284 31.4183 4.44543 31.6006 4.37838C32.5792 4.01873 35.7193 3.20042 36.1439 3.19444ZM44.3275 3.02995C44.2947 3.00966 44.268 2.96527 44.268 2.93126C44.268 2.85259 44.51 2.85003 44.5582 2.92824C44.6016 2.99883 44.4121 3.08242 44.3275 3.02995ZM45.4106 3.06646C45.3263 3.06646 45.2391 3.03691 45.2169 3.0008C45.126 2.85331 47.3248 2.98891 47.9228 3.16772C48.1153 3.22531 48.2569 3.28834 48.2375 3.30785C48.1605 3.38507 47.0439 3.32039 46.3247 3.197C45.9062 3.12523 45.4949 3.06646 45.4106 3.06646ZM48.7998 3.46071C48.7908 3.46058 48.7834 3.4309 48.7834 3.39479C48.7834 3.29333 49.2585 3.31605 50.1904 3.46209C50.6583 3.53544 51.3356 3.64136 51.6956 3.69757C52.5504 3.83093 53.146 3.9752 53.4298 4.11749C53.789 4.29768 54.8647 4.68904 55.6944 4.94139C56.5438 5.19972 57.3705 5.55871 57.234 5.60993C57.1018 5.65957 56.0479 5.34438 53.9533 4.62876C52.9859 4.29827 52.0891 4.0846 49.9941 3.68542C49.3462 3.56197 48.8088 3.46085 48.7998 3.46071ZM37.3312 4.81111C37.9314 4.71682 40.8326 4.41686 42.1084 4.31718C42.4503 4.29052 42.7448 4.26458 42.7628 4.25959C42.7808 4.25467 43.5465 4.27969 44.4643 4.31528C46.3233 4.38731 47.0062 4.45777 47.7527 4.6545C48.2993 4.79851 48.4465 4.94422 47.9818 4.88111C46.1914 4.63796 41.8971 4.56014 40.0797 4.73796C38.3551 4.90666 37.702 5.0414 34.9874 5.7888C33.8604 6.09907 32.7119 6.40769 32.4352 6.47467C30.0212 7.05863 26.6382 8.30028 25.519 9.01308C25.339 9.12766 24.9414 9.34692 24.6355 9.50031C24.3296 9.65364 23.77 9.96331 23.3921 10.1884C23.0142 10.4136 22.4496 10.7356 22.1373 10.904C21.8251 11.0725 21.4276 11.3217 21.2539 11.4577C20.6915 11.898 20.2816 12.1282 20.0598 12.1282C19.7511 12.1282 19.8289 12.0074 20.336 11.6995C20.5757 11.554 20.8533 11.368 20.9531 11.2861C21.4846 10.8499 22.5079 10.179 22.9746 9.96088C23.2669 9.82424 23.7824 9.53597 24.1202 9.32032C24.8708 8.84097 25.7832 8.37593 26.3192 8.19936C26.5394 8.1268 26.9124 7.95075 27.1481 7.80806C27.4194 7.6439 27.7874 7.49628 28.1511 7.40586C28.4671 7.32726 29.4618 7.02941 30.3616 6.74403C31.2615 6.45858 32.3069 6.14746 32.6848 6.05264C33.0627 5.95789 33.7253 5.76568 34.1572 5.62562C35.2446 5.27293 36.5916 4.92721 37.3312 4.81111ZM49.8136 5.2007C49.5704 5.14042 49.3882 5.06399 49.4086 5.03076C49.4804 4.91414 50.556 5.14876 50.6027 5.29132C50.6361 5.39317 50.5502 5.38332 49.8136 5.2007ZM58.5811 6.35214C58.2324 6.21319 58.0265 6.02742 58.1187 5.93497C58.1395 5.91402 58.2194 5.93635 58.2963 5.98455C58.3732 6.03274 58.5833 6.12054 58.7633 6.17964C58.9432 6.23873 59.2377 6.37249 59.4177 6.4769C59.5976 6.58131 60.174 6.88514 60.6986 7.15207C61.2231 7.41906 61.8268 7.77076 62.0401 7.93368C62.2534 8.09659 62.6636 8.37337 62.9515 8.54876C63.2395 8.72415 63.5495 8.93566 63.6405 9.01886C63.7316 9.10199 64.0094 9.31113 64.2579 9.48357C64.5064 9.656 64.7215 9.83409 64.7359 9.87926C64.7757 10.004 64.5764 9.91131 64.1295 9.59743C63.5971 9.22353 61.7499 8.15109 61.4011 8.01333C61.0332 7.86814 60.6993 7.65808 60.1384 7.21911C59.6704 6.85277 59.2493 6.61834 58.5811 6.35214ZM16.6844 11.8937C17.1883 11.4876 17.8067 11.0197 18.0586 10.8539C18.523 10.5484 18.8112 10.4701 18.8112 10.6495C18.8112 10.703 18.521 10.9399 18.1664 11.1761C17.8118 11.4122 17.4216 11.7037 17.2993 11.8238C17.1771 11.9439 16.8852 12.1917 16.6507 12.3745C16.4163 12.5573 16.0979 12.8574 15.9432 13.0414C15.7887 13.2254 15.4357 13.5494 15.1589 13.7614C14.6396 14.1592 13.1648 15.6369 12.824 16.1009C12.7178 16.2454 12.4493 16.5858 12.227 16.8573C12.0048 17.1289 11.697 17.5426 11.5431 17.7767C11.3891 18.0107 11.1033 18.4085 10.9079 18.6605C10.7125 18.9126 10.4778 19.2672 10.3862 19.4485C10.2248 19.7683 9.7939 20.4339 9.0035 21.584C8.79252 21.891 8.3998 22.5706 8.13077 23.0943C7.86174 23.6179 7.34731 24.5192 6.98757 25.097C6.13585 26.4652 5.6756 27.2821 5.61886 27.5266C5.59367 27.635 5.47699 27.917 5.35958 28.1532C5.24212 28.3895 5.08689 28.7634 5.01471 28.9842C4.94246 29.205 4.83887 29.4549 4.78449 29.5396C4.60446 29.8201 4.35591 30.5357 4.1266 31.4337C4.00213 31.9213 3.86752 32.4063 3.82747 32.5116C3.75745 32.6958 3.5638 34.0641 3.33417 35.9974C3.22377 36.9271 3.02764 37.909 2.90723 38.1347C2.87117 38.2024 2.83171 38.547 2.81967 38.9005C2.80763 39.2541 2.74559 40.0309 2.68185 40.6268C2.59606 41.4284 2.57518 41.9975 2.60162 42.8145C2.63931 43.9799 2.59291 44.304 2.38834 44.304C2.29548 44.304 2.26505 44.2259 2.23109 43.9004C2.16879 43.3022 2.18351 40.3559 2.25223 39.6747C2.28501 39.3496 2.34168 38.7882 2.3782 38.427C2.41472 38.0659 2.47669 37.32 2.51589 36.7694C2.57943 35.8769 2.63715 35.5711 3.04839 33.9459C3.3021 32.9434 3.53436 32.005 3.56452 31.8605C3.59463 31.7161 3.71223 31.3467 3.82577 31.0397C3.93931 30.7327 4.10258 30.2047 4.18864 29.8663C4.2796 29.5085 4.42973 29.1187 4.54726 28.9348C4.65844 28.761 4.83697 28.3878 4.94397 28.1055C5.38458 26.943 6.9612 23.7895 7.8105 22.372C8.16755 21.776 8.59383 21.0631 8.7579 20.7876C8.92189 20.5121 9.34098 19.9211 9.6892 19.4743C10.0373 19.0274 10.5719 18.2777 10.8771 17.8082C11.4925 16.8613 11.6778 16.6292 12.8426 15.3459C14.2177 13.8308 14.3746 13.6766 15.0811 13.1471C15.459 12.8639 16.1805 12.2999 16.6844 11.8937ZM18.138 13.2462C18.3463 13.122 18.7487 12.8639 19.0321 12.6728C19.5162 12.3464 19.7928 12.243 19.7928 12.3886C19.7928 12.4234 19.7413 12.4797 19.6783 12.5136C19.6154 12.5476 19.3303 12.7702 19.045 13.0085C18.7596 13.2466 18.5007 13.4415 18.4695 13.4415C18.4384 13.4415 18.2569 13.5597 18.0662 13.7042C17.7148 13.9704 17.5456 14.0245 17.4664 13.8959C17.4036 13.7939 17.6992 13.5081 18.138 13.2462ZM11.7895 19.5293C12.8435 17.9169 14.6889 15.9267 16.4096 14.5469C17.0016 14.0722 17.1752 13.965 17.1752 14.0744C17.1752 14.2126 16.3072 15.2985 15.6356 16.0005C15.2028 16.453 14.7973 16.9324 14.7345 17.0658C14.6717 17.1991 14.5353 17.3764 14.4313 17.4598C14.3272 17.5431 14.0224 17.8772 13.7538 18.2022C13.2367 18.828 12.1821 19.8829 11.8245 20.1321C11.6447 20.2573 11.1897 20.9315 10.7634 21.7042C10.7102 21.8006 10.554 22.0612 10.4163 22.2834C10.2786 22.5056 10.1375 22.7908 10.1027 22.9172C10.0679 23.0437 9.88794 23.379 9.70274 23.6624C9.51754 23.9459 9.19433 24.5412 8.98446 24.9853C8.60411 25.7902 8.29621 26.267 8.19667 26.2053C8.16781 26.1874 8.14425 26.0869 8.14425 25.9821C8.14425 25.764 9.04774 23.9736 9.73075 22.8384C9.97838 22.4267 10.2797 21.8948 10.4003 21.6564C10.5208 21.4179 10.8268 20.9273 11.0802 20.5662C11.3336 20.205 11.6528 19.7384 11.7895 19.5293ZM5.82219 31.9262C6.49984 29.6896 6.91304 28.5642 7.17781 28.2333C7.21361 28.1885 7.26904 28.1681 7.30091 28.1879C7.39966 28.2491 7.36524 28.5374 7.22663 28.8099C7.02409 29.2083 6.27714 31.4198 6.14888 32.001C6.08618 32.2849 5.98062 32.6649 5.9142 32.8455C5.84778 33.0261 5.70309 33.7261 5.59262 34.4012C5.48216 35.0762 5.34879 35.7706 5.2963 35.9443C5.24375 36.118 5.2005 36.3676 5.2001 36.499C5.19932 36.7594 4.98487 37.1083 4.92708 36.9433C4.90935 36.8926 4.93166 36.5703 4.97669 36.2272C5.02165 35.8841 5.09206 35.2636 5.13316 34.8483C5.22124 33.9578 5.27281 33.7393 5.82219 31.9262ZM4.73763 38.4247C4.64097 38.3648 4.66525 37.883 4.77572 37.6686C4.90169 37.4242 4.96641 37.4245 5.06778 37.6702C5.1397 37.8443 5.12956 37.8977 4.97387 38.1642C4.87787 38.3286 4.77159 38.4458 4.73763 38.4247ZM2.3854 44.9607C2.3123 44.9607 2.29568 44.7443 2.36361 44.6762C2.43572 44.6037 2.45084 44.6246 2.45084 44.7965C2.45084 44.8868 2.42139 44.9607 2.3854 44.9607ZM2.79009 48.9188C2.70914 48.7715 2.5174 47.6418 2.51668 47.3082C2.51648 47.2089 2.52996 47.1276 2.54671 47.1276C2.69775 47.1276 2.9785 48.4264 2.91214 48.818C2.87209 49.0541 2.86685 49.0585 2.79009 48.9188ZM2.97437 49.862C2.97437 49.8447 2.95651 49.7839 2.93465 49.7268C2.91279 49.6696 2.92438 49.6229 2.96037 49.6229C3.05192 49.6229 3.11291 49.8073 3.03694 49.8545C3.00251 49.8758 2.97437 49.8792 2.97437 49.862ZM3.99461 52.8236C3.94258 52.8758 3.82511 52.771 3.82511 52.6724C3.82511 52.6204 3.85142 52.5778 3.88355 52.5778C3.94991 52.5778 4.04028 52.7778 3.99461 52.8236ZM4.76675 55.3657C4.59019 55.0592 4.19001 53.8582 4.12771 53.4479C4.10442 53.2944 4.10998 53.1688 4.14015 53.1688C4.1906 53.1688 4.68763 53.922 4.86727 54.2707C4.90967 54.3531 5.01562 54.6394 5.1026 54.9069C5.29735 55.5055 6.70081 58.3898 7.2301 59.2791C7.44377 59.6381 7.71109 60.1167 7.82411 60.3425C8.11611 60.9258 10.4867 64.4429 11.0815 65.1753C11.3557 65.5128 11.6747 65.9265 11.7905 66.0946C11.9063 66.2627 12.229 66.6219 12.5078 66.8928C12.7865 67.1636 13.3396 67.7251 13.7369 68.1404C15.15 69.6175 16.2425 70.664 17.429 71.6771C18.8214 72.8662 20.4275 74.1105 21.1837 74.586C21.8875 75.0286 23.3076 75.7679 23.9181 76.0095C24.1893 76.1169 24.6918 76.3249 25.0346 76.472C25.5779 76.7048 27.0408 77.238 29.3146 78.0318C30.2478 78.3575 32.7698 79.0766 33.5207 79.231C34.9098 79.5167 36.5394 79.7101 38.6073 79.8348C39.9771 79.9173 43.4274 79.8768 44.3007 79.7679C44.5526 79.7364 45.1416 79.6625 45.6095 79.6035C46.0774 79.5446 46.9314 79.4374 47.5073 79.3654C48.8773 79.194 49.7069 79.0519 50.1904 78.9058C50.4064 78.8406 50.7303 78.7674 50.9103 78.7431C51.6434 78.6444 53.9746 78.0488 54.7075 77.7729C55.1385 77.6107 55.7857 77.3693 56.1456 77.2364C57.6506 76.681 58.2407 76.4238 59.9245 75.5902C61.3852 74.8671 61.7181 74.7252 61.8231 74.7816C61.9453 74.8472 61.943 74.8578 61.7661 75.043C61.6647 75.1491 61.4188 75.3127 61.2196 75.4064C61.0204 75.5 60.6556 75.7257 60.409 75.908C59.9337 76.2594 59.4431 76.5374 58.3541 77.0725C57.9851 77.2539 57.5494 77.4873 57.3859 77.5914C57.2224 77.6954 56.6556 77.92 56.1263 78.0904C55.597 78.2609 55.0822 78.4421 54.9823 78.4933C54.7954 78.5889 53.7091 78.8519 52.8408 79.0116C52.5709 79.0613 52.1733 79.1591 51.9573 79.2289C50.7026 79.6348 50.1913 79.7667 49.6342 79.828C49.2922 79.8657 48.4824 79.969 47.8345 80.0575C43.3793 80.6663 40.6908 80.756 38.3977 80.3723C37.7578 80.2652 37.7096 80.2656 37.2408 80.3828C36.8225 80.4873 36.6917 80.4943 36.3379 80.4306C36.1104 80.3896 35.4383 80.2954 34.8444 80.2212C33.6969 80.0778 32.524 79.8261 31.4662 79.4959C31.1106 79.3849 30.4554 79.2092 30.01 79.1053C29.3514 78.9517 29.0435 78.8358 28.3591 78.4842C27.5693 78.0784 26.6181 77.6584 25.9443 77.4181C25.7824 77.3603 25.5321 77.233 25.3881 77.1351C24.9733 76.8531 24.5219 76.6459 23.8175 76.4142C23.1041 76.1796 22.7793 76.0317 22.3778 75.7584C22.2338 75.6604 21.6793 75.3552 21.1456 75.0801C20.4821 74.7381 20.0371 74.4585 19.7386 74.196C19.4985 73.9848 19.1253 73.7142 18.9094 73.5947C18.5463 73.3937 18.0728 73.0296 16.7883 71.9638C16.5151 71.7372 16.0709 71.3789 15.8009 71.1678C15.2036 70.7003 14.7193 70.1924 14.1668 69.4537C13.9373 69.1467 13.5383 68.6887 13.2802 68.4359C11.9971 67.1787 10.7342 65.6363 10.3148 64.8138C10.2441 64.6751 9.96104 64.359 9.68592 64.1113C9.112 63.5945 8.30242 62.4269 7.7374 61.3011C7.54985 60.9274 7.21315 60.3181 6.98914 59.947C6.76507 59.5759 6.52314 59.1178 6.45154 58.9292C6.37988 58.7405 6.16739 58.2907 5.97932 57.9295C5.32595 56.6752 5.13833 56.286 5.02937 55.9596C4.96903 55.779 4.85091 55.5117 4.76675 55.3657ZM59.7122 74.9805C59.7122 74.9143 59.7318 74.8404 59.7558 74.8164C59.8872 74.6844 60.1472 74.872 60.0298 75.0139C59.922 75.1444 59.7122 75.1222 59.7122 74.9805Z" fill="#010181"/>
<path d="M65.9377 71.6464C64.5743 72.7984 63.9277 73.3096 63.4096 73.6452C62.796 74.0425 62.1989 74.5033 62.1989 74.5794C62.1989 74.703 62.4365 74.6357 62.8206 74.4033C63.2741 74.129 64.8577 73.0174 65.6156 72.4415C65.9008 72.2248 66.3541 71.8834 66.623 71.683C66.8174 71.5381 67.2121 71.1836 67.8571 70.5719H67.1119C66.6578 71.0074 66.2497 71.3827 65.9377 71.6464Z" fill="#010181"/>
</svg>
