<svg width="209" height="77" viewBox="0 0 209 77" fill="none" xmlns="http://www.w3.org/2000/svg">
<path d="M60.4146 9.84343C60.4632 9.93727 60.7011 10.1519 60.9432 10.3203C61.3506 10.6037 61.9593 11.126 63.2842 12.33L63.6156 12.324C63.5224 12.2359 63.4263 12.149 63.3347 12.0709C63.0899 11.8624 62.551 11.3705 62.1369 10.9778C61.4144 10.2925 60.596 9.67291 60.4132 9.67291C60.3379 9.67291 60.338 9.69554 60.4146 9.84343Z" fill="white"/>
<path fill-rule="evenodd" clip-rule="evenodd" d="M34.3651 0.0412097C34.1166 0.0688382 33.7154 0.134388 33.4735 0.186937C32.3665 0.427407 31.6144 0.535513 30.7489 0.578732C29.7041 0.630919 29.5234 0.684491 29.5836 0.924359C29.6222 1.07779 29.6195 1.07905 29.3583 1.0374C28.7359 0.938203 28.2204 1.04137 28.2204 1.26517C28.2204 1.34914 27.1366 1.55975 26.6443 1.57155C26.4204 1.57691 26.3323 1.61176 26.2104 1.74316C26.1263 1.83381 26.0025 1.90803 25.9353 1.90803C25.8682 1.90803 25.711 1.94451 25.586 1.98905C24.9841 2.20382 24.959 2.20779 24.7821 2.11636C24.6884 2.06796 24.5558 2.02842 24.4873 2.02842C24.3856 2.02842 24.3693 2.0552 24.3992 2.17378C24.4313 2.30187 24.4011 2.33456 24.1443 2.44922C23.984 2.52079 23.636 2.63251 23.3709 2.6974C22.7255 2.85547 22.5822 2.91458 22.2124 3.17515C22.039 3.29734 21.4968 3.57995 21.0075 3.80326C20.5182 4.02652 19.9765 4.3146 19.8038 4.44335C19.6311 4.57211 19.4142 4.70953 19.3219 4.74871C19.2295 4.78796 19.0862 4.87933 19.0034 4.95186C18.9206 5.0244 18.7444 5.11607 18.6118 5.15562C18.1428 5.2955 18.0425 5.35407 17.9219 5.55831C17.8346 5.70626 17.6932 5.8131 17.4228 5.93559C17.213 6.03058 16.9114 6.23668 16.7432 6.39986C16.577 6.5613 16.1974 6.86395 15.8998 7.07246C15.6023 7.2809 15.1283 7.65452 14.8467 7.90264C13.9634 8.68087 13.8061 8.8021 13.2726 9.11576C12.7836 9.40324 11.9551 10.1297 11.9551 10.2709C11.9551 10.3061 11.9957 10.335 12.0454 10.335C12.0951 10.335 12.1358 10.3586 12.1358 10.3873C12.1358 10.4458 11.7887 10.5139 11.4854 10.5149C11.3227 10.5155 11.2684 10.551 11.1849 10.7112C11.1289 10.8188 10.8231 11.1642 10.5054 11.4787C10.1876 11.7932 9.80992 12.1995 9.66594 12.3816C9.52203 12.5637 9.16606 12.9564 8.87497 13.2544C8.51864 13.6191 8.32026 13.8743 8.26785 14.0353C8.20676 14.2229 8.11453 14.3244 7.84061 14.5054C7.42368 14.781 7.30795 14.9748 7.46012 15.1428C7.55392 15.2464 7.55434 15.2592 7.4647 15.2935C7.4109 15.3141 7.32163 15.3319 7.26632 15.3329C7.14891 15.3351 6.87078 15.6929 6.58926 16.2038C6.36077 16.6185 6.05474 17.0716 5.65569 17.586C5.50256 17.7835 5.2846 18.1289 5.17135 18.3536C5.05809 18.5783 4.86911 18.9126 4.75146 19.0964C4.63375 19.2802 4.47097 19.6072 4.38965 19.823C4.30832 20.0389 4.11169 20.4099 3.95259 20.6474C3.62518 21.1365 2.68522 23.0309 2.45401 23.6677C2.36985 23.8995 2.15919 24.3735 1.98593 24.7211C1.81261 25.0687 1.61502 25.5157 1.54683 25.7143C1.47869 25.9129 1.32574 26.2778 1.20694 26.5252C1.0882 26.7726 0.991033 27.0484 0.991033 27.1383C0.991033 27.2281 0.963925 27.3729 0.930791 27.4599C0.834103 27.714 0.952659 27.8731 1.20772 27.8318C1.3205 27.8135 1.41273 27.8221 1.41273 27.8508C1.41273 27.9059 1.32887 27.937 1.00676 28.0018C0.899466 28.0234 0.791211 28.0728 0.76621 28.1116C0.625425 28.3303 0.377529 29.7526 0.431325 30.0336C0.448132 30.1216 0.419578 30.3177 0.36783 30.4694C0.267346 30.7641 0.282045 30.8575 0.469217 31.114L0.588135 31.2769L0.36789 31.5204C0.0739691 31.8455 0.0824633 31.906 0.448855 32.0984C0.626629 32.1917 0.640786 32.2129 0.539218 32.2334C0.31066 32.2794 0.195899 32.4371 0.224634 32.6654C0.239333 32.7819 0.20867 33.0669 0.156561 33.2986C0.0818006 33.631 0.0626436 34.0821 0.0658365 35.4354C0.0680654 36.379 0.0911381 37.3966 0.117042 37.6969C0.151802 38.0995 0.143067 38.305 0.0838488 38.4794C0.0372818 38.6166 0.00222091 38.9939 0.000293162 39.3778C-0.00247797 39.9461 0.012944 40.0555 0.109452 40.1522C0.199032 40.242 0.213731 40.3154 0.181923 40.5137C0.0312576 41.4521 0.0464988 41.957 0.24355 42.5533C0.330299 42.8156 0.329757 42.8642 0.236924 43.1434C0.156079 43.3866 0.149633 43.4811 0.204694 43.614C0.254033 43.733 0.256141 43.8562 0.212104 44.0471C0.125175 44.4241 0.133067 44.5616 0.248249 44.6767C0.321865 44.7502 0.345781 44.8684 0.337468 45.1174C0.331203 45.3045 0.366926 45.6065 0.416867 45.7886C0.466807 45.9707 0.508013 46.2047 0.508374 46.3086C0.508856 46.4262 0.591207 46.6167 0.726872 46.8138C0.916153 47.0887 0.946876 47.1829 0.961455 47.5334C0.981575 48.0188 1.112 48.2974 1.36959 48.4056C1.5546 48.4833 1.55568 48.486 1.41086 48.5064C1.18983 48.5376 1.18809 48.7827 1.40592 49.196C1.53002 49.4314 1.57092 49.5705 1.53562 49.6365C1.50315 49.6971 1.51321 49.773 1.56255 49.8404C1.6058 49.8995 1.67478 50.1293 1.71587 50.3512C1.75701 50.573 1.86665 50.9476 1.95954 51.1835C2.05244 51.4194 2.17202 51.7851 2.22527 51.9961C2.52974 53.2029 3.21366 54.8216 3.67174 55.4195C3.88807 55.7019 4.9058 57.7644 4.90725 57.9234C4.90773 57.974 5.79756 59.4865 6.14323 60.0242C6.5774 60.6997 6.88945 61.102 7.5097 61.7858C7.8838 62.1984 8.27839 62.66 8.38646 62.8116C8.4946 62.9632 8.9169 63.4138 9.32497 63.8129C9.73305 64.2121 10.3033 64.8096 10.5922 65.1406C11.4306 66.1011 11.5185 66.188 11.6963 66.2313C11.7912 66.2544 12.0036 66.4245 12.1829 66.6209C12.397 66.8555 12.6238 67.0278 12.8757 67.1473C13.2833 67.3407 13.3976 67.4465 13.7138 67.9237C14.2257 68.696 16.3261 70.3926 17.4964 70.9792C17.8106 71.1367 18.1495 71.3275 18.2494 71.4031C18.4326 71.5419 20.0868 72.4597 20.2847 72.5324C20.3434 72.554 20.5467 72.6769 20.7366 72.8056C20.9264 72.9343 21.2715 73.1337 21.5034 73.2487C21.9318 73.461 23.184 73.8927 23.7324 74.0171C23.9293 74.0617 24.1588 74.1826 24.3951 74.3657C24.8729 74.7361 25.2557 74.8837 26.624 75.2249C27.2535 75.3818 27.9177 75.5538 28.0999 75.607C28.2822 75.6602 28.743 75.7297 29.1241 75.7615C29.5051 75.7932 29.9524 75.8594 30.118 75.9086C30.2837 75.9579 30.7717 76.0663 31.2024 76.1496C31.6331 76.233 32.2973 76.368 32.6783 76.4498C33.0594 76.5315 33.6558 76.6153 34.0037 76.6361C34.3516 76.6568 34.9073 76.7127 35.2386 76.7604C36.9769 77.0103 37.3588 77.0362 38.272 76.9666C38.7573 76.9296 39.561 76.8484 40.058 76.7862C40.555 76.7239 41.5716 76.6312 42.3171 76.5802C43.7705 76.4806 44.0747 76.4388 44.9761 76.2146C45.2955 76.1352 45.8295 76.0294 46.1628 75.9797C46.4962 75.9299 46.9397 75.8171 47.1485 75.7292C47.3572 75.6413 47.8669 75.454 48.281 75.313C49.046 75.0527 50.5977 74.431 51.0272 74.2128C51.1569 74.1469 51.5396 74.0367 51.8776 73.968C52.2157 73.8993 52.6496 73.7637 52.8418 73.6668C53.034 73.5698 53.4486 73.4354 53.7633 73.368C54.2674 73.26 54.5358 73.1427 56.0221 72.3804C56.9498 71.9047 57.9022 71.3769 58.1384 71.2076C58.3746 71.0383 58.6863 70.8264 58.8311 70.7368C58.976 70.6472 59.1758 70.4986 59.2752 70.4066C59.3746 70.3146 59.605 70.1638 59.7872 70.0714C60.2472 69.8384 60.7912 69.4446 61.1126 69.1123C61.2617 68.9581 61.6573 68.645 61.9917 68.4164C62.7201 67.9187 63.8188 66.9184 64.2425 66.3672C64.4111 66.1479 64.6938 65.8724 64.8709 65.755C65.0479 65.6375 65.437 65.3092 65.7355 65.0253C65.8666 64.9008 65.9727 64.7949 66.0597 64.7008H64.4559C64.165 64.9872 63.9054 65.2364 63.703 65.4217C63.2888 65.8009 62.7466 66.2613 62.4981 66.4448C62.2496 66.6282 61.882 66.9244 61.6812 67.1031C61.1662 67.5613 60.4163 68.1707 60.0411 68.436C59.8657 68.5601 59.5642 68.7929 59.3712 68.9534C59.0621 69.2104 58.2381 69.6657 56.8672 70.3371C56.6362 70.4502 56.216 70.6979 55.9334 70.8875C55.0519 71.4792 52.8543 72.4559 51.8155 72.7178C51.6095 72.7696 51.2733 72.9305 51.0022 73.1068C50.6747 73.3198 50.3398 73.4702 49.8524 73.6229C49.4742 73.7415 49.1306 73.8385 49.0889 73.8385C49.0472 73.8385 48.8075 73.9207 48.5563 74.0212C47.9418 74.2671 47.2994 74.4208 46.3076 74.5594C45.2775 74.7032 44.3939 74.8455 43.8834 74.9497C43.668 74.9937 43.302 75.0483 43.0701 75.0711C42.8382 75.0938 42.3757 75.1644 42.0424 75.2279C41.7091 75.2913 41.0449 75.3699 40.5665 75.4025C39.2081 75.4952 35.9768 75.4781 34.8052 75.372C33.0153 75.21 31.8752 75.0923 31.5651 75.0375C31.3988 75.0081 30.8573 74.9282 30.3618 74.8599C29.7082 74.7698 29.2359 74.6623 28.6401 74.4677C28.1886 74.3203 27.7457 74.1996 27.656 74.1996C27.5664 74.1996 27.2516 74.1065 26.9566 73.9926C26.6616 73.8788 26.2356 73.7396 26.01 73.6832C25.4776 73.5503 23.4194 72.694 23.0864 72.4669C22.9447 72.3703 22.6672 72.2313 22.4697 72.1581C22.0818 72.0142 19.8344 70.8764 19.4122 70.61C19.2702 70.5204 18.9507 70.3548 18.7022 70.242C18.154 69.9931 17.2434 69.4828 16.9552 69.263C16.8392 69.1746 16.541 68.9837 16.2925 68.8388C15.8493 68.5805 15.3441 68.1025 15.3738 67.9697C15.3821 67.9328 15.2742 67.877 15.1342 67.8458C14.9401 67.8026 14.8478 67.739 14.746 67.5784C14.4872 67.1701 14.3401 67.0204 13.7944 66.6106C13.3941 66.3099 13.167 66.0851 12.9644 65.789C12.6838 65.3788 12.4295 65.1707 12.2088 65.1707C12.1431 65.1707 12.041 65.0963 11.9818 65.0052C11.778 64.6921 11.0802 63.8846 10.3467 63.1131C8.9887 61.6851 7.24024 59.1774 6.06004 56.9652C5.70027 56.2909 5.29743 55.5792 5.16484 55.3837C5.03219 55.1882 4.90285 54.9605 4.87743 54.8777C4.85194 54.795 4.67538 54.4158 4.48513 54.035C4.29483 53.6543 4.10356 53.248 4.06012 53.1321C4.01663 53.0163 3.83193 52.6777 3.64957 52.3797C3.13619 51.5409 3.09276 51.4315 2.96179 50.6467C2.8936 50.2384 2.80347 49.8851 2.75896 49.8516C2.60986 49.7397 2.43684 49.316 2.43684 49.0627C2.43684 48.9242 2.37913 48.6253 2.30859 48.3983C2.23804 48.1713 2.14491 47.818 2.1016 47.613C2.05834 47.408 1.92629 47.0207 1.80822 46.7523C1.68954 46.4827 1.59327 46.1646 1.59297 46.0415C1.59237 45.7364 1.48496 45.0751 1.40038 44.8556C1.36212 44.7563 1.25291 44.5597 1.15766 44.4187C0.982479 44.1594 0.980913 44.043 1.15254 44.043C1.2261 44.043 1.23152 44.0247 1.1773 43.9594C1.12724 43.8992 1.12477 43.8027 1.16851 43.6133C1.25586 43.2346 1.24628 42.7905 1.1323 41.9363C1.04664 41.2941 1.00959 41.1596 0.879586 41.0182C0.73386 40.8597 0.732113 40.8491 0.83832 40.7715C0.94049 40.6968 0.944888 40.6403 0.893321 40.0643C0.816994 39.2116 0.828982 38.0482 0.933382 36.1879C0.981636 35.3271 1.01272 34.2464 1.00248 33.7863C0.990311 33.2418 1.00844 32.8903 1.05447 32.7793C1.1473 32.5553 1.0914 32.3553 0.863441 32.0958C0.73868 31.9539 0.70651 31.8841 0.765849 31.8841C0.814464 31.8841 0.925731 31.8279 1.01302 31.7593C1.17911 31.6287 1.22857 31.3722 1.09646 31.326C1.04085 31.3066 1.04784 31.2696 1.12326 31.1845C1.41321 30.8574 1.5649 30.1635 1.40303 29.9046C1.34652 29.8142 1.35797 29.7526 1.46249 29.5836C1.53363 29.4685 1.57406 29.3566 1.55225 29.3348C1.5305 29.3131 1.56918 29.2344 1.63827 29.1601C1.71201 29.0808 1.78051 28.9006 1.80406 28.7239C1.86147 28.2943 1.99473 27.6634 2.15744 27.0508C2.26461 26.6474 2.34449 26.4736 2.49293 26.3205C2.60871 26.2011 2.69209 26.0497 2.69853 25.9471C2.71667 25.6562 3.03017 24.8214 3.24824 24.4832C3.3618 24.3072 3.52885 23.9568 3.61945 23.7047C3.84102 23.0886 4.12814 22.485 4.42254 22.0166C4.55634 21.8037 4.6658 21.5754 4.6658 21.5094C4.6658 21.4433 4.78562 21.2112 4.93207 20.9936C5.07851 20.776 5.27195 20.4411 5.36189 20.2495C5.45183 20.0579 5.57154 19.8683 5.62786 19.8282C5.68413 19.788 5.80021 19.6153 5.88576 19.4443C6.06871 19.0785 6.80824 17.8677 7.30096 17.1273C8.04784 16.0049 8.75003 15.0967 9.27136 14.5786C9.57118 14.2807 9.933 13.8711 10.0754 13.6686C10.3629 13.2596 13.3525 10.31 13.7322 10.0607C13.8648 9.97363 14.1087 9.77457 14.2744 9.61825C14.4401 9.46193 14.7789 9.17445 15.0274 8.97937C15.2759 8.78422 15.6601 8.47019 15.8811 8.28143C16.1021 8.09266 16.4749 7.82619 16.7096 7.68919C16.9443 7.55225 17.3337 7.29926 17.5748 7.12699C17.816 6.95472 18.2389 6.69186 18.5148 6.54288C18.7906 6.3939 19.1964 6.13905 19.4165 5.97659C19.6366 5.81407 19.9607 5.61723 20.1368 5.53922C20.3129 5.46115 21.0448 5.10355 21.7633 4.74456C22.4818 4.38551 23.1375 4.07196 23.2203 4.04777C23.4464 3.98179 24.5457 3.47028 24.7866 3.31901C24.9026 3.24618 25.1389 3.13771 25.3117 3.07794C25.4845 3.01811 25.6931 2.91325 25.7752 2.84493C25.9474 2.70155 26.0133 2.4665 25.871 2.50316C25.8213 2.51592 25.7129 2.53801 25.63 2.55221C25.4845 2.57719 25.4833 2.57491 25.5963 2.48384C25.7304 2.37573 25.9124 2.36736 26.2805 2.45217C26.5093 2.5049 26.5862 2.49148 26.9431 2.3363C27.1652 2.23981 27.5096 2.12888 27.7084 2.08975C27.9072 2.05069 28.3138 1.95408 28.612 1.87505C28.9102 1.79601 29.7506 1.61032 30.4795 1.46242C32.2506 1.10307 32.8921 0.959873 33.2413 0.846048C33.4982 0.76232 33.5299 0.733668 33.5057 0.607143C33.4737 0.439566 33.5654 0.417776 33.6747 0.567054C33.7419 0.658909 33.8668 0.669442 34.7707 0.65945C35.4068 0.652348 35.9931 0.611055 36.328 0.549779C36.6661 0.487841 37.5906 0.423555 38.823 0.376243C41.5275 0.27235 41.4838 0.27241 42.0351 0.370164C45.4576 0.976727 45.7744 1.02922 45.9742 1.02259C46.0472 1.02019 46.2093 0.93399 46.3343 0.83106C46.4592 0.728191 46.623 0.643981 46.6983 0.643981C46.8647 0.643981 46.8792 0.742336 46.7203 0.792717C46.4122 0.89041 46.6257 1.18572 47.0044 1.18572C47.4385 1.18572 48.6917 1.50293 49.4256 1.7986C49.8398 1.96539 50.5853 2.26233 51.0823 2.45843C51.5793 2.65448 52.3248 2.98741 52.7389 3.19832C53.1531 3.40918 53.6817 3.65651 53.9136 3.74789C54.1456 3.8392 54.6064 4.0636 54.9378 4.24652C56.171 4.92736 56.3868 5.03493 56.5221 5.03649C56.7094 5.0386 56.991 5.18674 57.3173 5.45483C57.4664 5.57733 57.8067 5.80648 58.0734 5.96407C58.6101 6.28116 60.5235 7.68733 60.9017 8.04258C61.0343 8.16706 61.468 8.52864 61.8656 8.8461C62.2632 9.1635 62.7457 9.57491 62.9379 9.76025C63.1301 9.94564 63.4777 10.2357 63.7104 10.4048C64.0737 10.6688 64.8174 11.4284 65.6189 12.3278L67.2 12.3124C67.0865 12.1944 66.9872 12.0971 66.9183 12.038C66.7334 11.8793 66.3748 11.5705 66.1214 11.3517C65.8681 11.1329 65.5486 10.8968 65.4113 10.8271C65.234 10.7371 65.0652 10.5627 64.8284 10.2249C64.645 9.96352 64.4184 9.69036 64.3249 9.61801C64.2314 9.54566 63.9224 9.30495 63.6383 9.08308C63.3542 8.86127 63.0018 8.5913 62.8551 8.4832C62.7085 8.37515 62.4123 8.15045 62.1969 7.9839C61.0699 7.11236 60.8659 6.96194 60.4499 6.69547C60.2014 6.53632 59.736 6.19563 59.4158 5.93842C59.0955 5.68128 58.6482 5.36406 58.4218 5.23357C58.1953 5.10307 57.6744 4.80258 57.264 4.56573C56.8537 4.32893 56.4974 4.13517 56.4722 4.13517C56.4471 4.13517 56.4091 4.18067 56.3878 4.23623C56.3559 4.31912 56.2924 4.28228 56.035 4.03145C55.8622 3.86328 55.5447 3.63882 55.3293 3.53276C55.114 3.4267 54.87 3.27688 54.7872 3.19977C54.6181 3.04243 53.0306 2.20899 52.9 2.20899C52.8537 2.20899 52.6427 2.1308 52.431 2.03522C52.2193 1.93969 51.8293 1.79186 51.5642 1.70681C51.2991 1.62175 50.8925 1.48379 50.6606 1.4003C50.172 1.22436 50.0035 1.21238 49.7651 1.33656C49.5548 1.44617 49.542 1.44701 49.5799 1.34836C49.6355 1.20359 49.3388 1.02043 48.7339 0.825944C47.722 0.500662 46.5972 0.330677 44.7569 0.224918C44.2599 0.196327 43.7719 0.139745 43.6725 0.0991754C43.4567 0.0109929 35.1059 -0.0410137 34.3651 0.0412097ZM35.6904 0.410372C35.6904 0.380396 35.6475 0.339465 35.5951 0.319361C35.4465 0.262358 35.056 0.27554 35.1211 0.335312C35.2036 0.410974 35.6904 0.47514 35.6904 0.410372ZM34.335 0.523595C34.4178 0.523595 34.4856 0.496508 34.4856 0.463402C34.4856 0.430296 34.4178 0.40321 34.335 0.40321C34.2522 0.40321 34.1844 0.430296 34.1844 0.463402C34.1844 0.496508 34.2522 0.523595 34.335 0.523595ZM45.4346 0.643138C45.6606 0.642055 45.8713 0.580959 45.8713 0.516553C45.8713 0.462319 45.5649 0.455156 45.3743 0.504875C45.2091 0.548033 45.251 0.644041 45.4346 0.643138ZM48.9889 1.40036C49.1961 1.46176 49.1626 1.26872 48.9467 1.15719C48.726 1.04312 48.7074 1.04324 48.6633 1.15821C48.6247 1.25861 48.6634 1.32079 48.7798 1.34493C48.8202 1.35335 48.9143 1.37833 48.9889 1.40036ZM26.9096 2.15837C26.9518 2.11618 26.907 2.05731 26.7676 1.97244C26.4924 1.8048 26.3562 1.80552 26.5086 1.97382C26.6763 2.15897 26.8356 2.23229 26.9096 2.15837ZM52.3208 2.69054C52.4283 2.69054 52.4896 2.66544 52.4678 2.63034C52.4474 2.59724 52.3645 2.57015 52.2836 2.57015C52.2027 2.57015 52.1365 2.59724 52.1365 2.63034C52.1365 2.66345 52.2195 2.69054 52.3208 2.69054ZM25.0878 2.84102C25.121 2.86149 25.1481 2.83596 25.1481 2.78438C25.1481 2.73279 25.121 2.69054 25.0878 2.69054C25.0547 2.69054 25.0276 2.716 25.0276 2.74718C25.0276 2.77836 25.0547 2.82055 25.0878 2.84102ZM54.2433 3.35176C54.3395 3.40322 54.3655 3.39883 54.3655 3.33111C54.3655 3.2295 54.2035 3.15318 54.1549 3.23191C54.1363 3.26189 54.1761 3.31582 54.2433 3.35176ZM23.1942 3.57947C23.2165 3.55713 23.2175 3.46985 23.1963 3.38558C23.1527 3.21205 23.0391 3.17708 23.0405 3.33761C23.0417 3.47419 23.1418 3.63177 23.1942 3.57947ZM22.3167 4.16526C22.3498 4.1448 22.377 4.1026 22.377 4.07142C22.377 4.04024 22.3498 4.01478 22.3167 4.01478C22.2836 4.01478 22.2565 4.05704 22.2565 4.10862C22.2565 4.16021 22.2836 4.18573 22.3167 4.16526ZM55.9028 4.47411C55.9561 4.45371 55.9828 4.40971 55.9621 4.37636C55.9133 4.29745 55.8287 4.29907 55.7787 4.37997C55.7233 4.4696 55.7875 4.51829 55.9028 4.47411ZM20.1175 4.63862C20.167 4.6196 20.1926 4.57987 20.1742 4.5502C20.1217 4.4652 20.0275 4.48735 20.0275 4.58475C20.0275 4.63844 20.0629 4.65957 20.1175 4.63862ZM20.9914 4.61671C20.9914 4.5836 20.9665 4.55652 20.9361 4.55652C20.9057 4.55652 20.8445 4.54261 20.8001 4.52558C20.7203 4.495 20.4605 4.64049 20.3748 4.7637C20.2809 4.89889 20.3366 4.91111 20.5245 4.79663C20.6322 4.73102 20.7813 4.67726 20.8558 4.67714C20.9304 4.67702 20.9914 4.64982 20.9914 4.61671ZM20.0047 5.21864C20.1919 5.21864 20.2123 5.20576 20.148 5.12835C20.0717 5.03655 19.9971 5.02337 19.8618 5.07791C19.7109 5.13876 19.792 5.21864 20.0047 5.21864ZM57.8781 5.45851C57.9854 5.45772 57.9932 5.44665 57.9197 5.39922C57.8011 5.32259 57.6615 5.32259 57.7089 5.39922C57.7294 5.43232 57.8055 5.45899 57.8781 5.45851ZM19.1806 5.88076C19.2156 5.88076 19.2444 5.85367 19.2444 5.82057C19.2444 5.78746 19.2324 5.76037 19.2178 5.76037C19.2032 5.76037 19.1745 5.78746 19.154 5.82057C19.1335 5.85367 19.1455 5.88076 19.1806 5.88076ZM63.6162 9.67291C63.6678 9.67291 63.6933 9.64582 63.6729 9.61272C63.6524 9.57961 63.6101 9.55252 63.5789 9.55252C63.5477 9.55252 63.5222 9.57961 63.5222 9.61272C63.5222 9.64582 63.5645 9.67291 63.6162 9.67291ZM10.8707 11.7797C10.9039 11.7797 10.931 11.7526 10.931 11.7195C10.931 11.6864 10.9039 11.6593 10.8707 11.6593C10.8376 11.6593 10.8105 11.6864 10.8105 11.7195C10.8105 11.7526 10.8376 11.7797 10.8707 11.7797ZM10.5093 12.5321C10.5424 12.5116 10.5695 12.4694 10.5695 12.4382C10.5695 12.407 10.5424 12.3816 10.5093 12.3816C10.4761 12.3816 10.449 12.4238 10.449 12.4754C10.449 12.527 10.4761 12.5525 10.5093 12.5321ZM9.18039 13.9466C9.21545 13.9466 9.24419 13.9195 9.24419 13.8864C9.24419 13.8533 9.23226 13.8262 9.21762 13.8262C9.20298 13.8262 9.17431 13.8533 9.15383 13.8864C9.13334 13.9195 9.14533 13.9466 9.18039 13.9466ZM5.2381 19.3128C5.2696 19.3128 5.30502 19.2837 5.31689 19.2481C5.32876 19.2125 5.29334 19.1834 5.2381 19.1834C5.18285 19.1834 5.14743 19.2125 5.1593 19.2481C5.17117 19.2837 5.20659 19.3128 5.2381 19.3128ZM3.87554 21.9523C3.90868 21.9523 3.95253 21.9252 3.97301 21.8921C3.9935 21.859 3.98313 21.8319 3.95 21.8319C3.91687 21.8319 3.87301 21.859 3.85253 21.8921C3.83205 21.9252 3.84241 21.9523 3.87554 21.9523ZM2.73805 23.758C2.77119 23.758 2.79829 23.7309 2.79829 23.6978C2.79829 23.6647 2.77119 23.6377 2.73805 23.6377C2.70492 23.6377 2.67781 23.6647 2.67781 23.6978C2.67781 23.7309 2.70492 23.758 2.73805 23.758ZM2.49708 24.7353C2.49708 24.8165 2.7548 24.7631 2.78353 24.676C2.79757 24.6334 2.75829 24.6007 2.69287 24.6007C2.56787 24.6007 2.49708 24.6494 2.49708 24.7353ZM1.49189 28.6938C1.63153 28.6938 1.61912 28.6185 1.45405 28.4636C1.3164 28.3344 1.11152 28.2858 1.11152 28.3824C1.11152 28.469 1.38616 28.6938 1.49189 28.6938ZM1.03621 29.1143C1.16531 29.1136 1.18194 29.1005 1.11152 29.055C0.993624 28.9789 0.870549 28.9789 0.870549 29.055C0.870549 29.0881 0.945129 29.1148 1.03621 29.1143ZM1.05597 29.4631C1.19724 29.4794 1.19821 29.477 1.08495 29.3878C0.943322 29.2763 0.851573 29.2686 0.885309 29.371C0.898923 29.4124 0.975732 29.4538 1.05597 29.4631ZM1.22544 30.2328C1.27285 30.2035 1.27423 30.1571 1.23007 30.0746C1.15983 29.9436 1.05079 29.9181 1.05218 30.0331C1.05375 30.1603 1.15459 30.2766 1.22544 30.2328ZM0.689823 30.9856C0.689823 31.0696 0.832597 31.0526 0.964467 30.953C1.05061 30.8879 1.0576 30.866 0.991033 30.8697C0.821211 30.8792 0.689823 30.9298 0.689823 30.9856ZM0.565604 32.5951C0.610786 32.6102 0.633377 32.5876 0.618316 32.5425C0.603798 32.499 0.556327 32.4516 0.512893 32.4371C0.467711 32.4221 0.44512 32.4446 0.460181 32.4898C0.474639 32.5332 0.52211 32.5806 0.565604 32.5951ZM0.810307 44.675C0.84344 44.6546 0.870549 44.6259 0.870549 44.6113C0.870549 44.5967 0.84344 44.5848 0.810307 44.5848C0.777174 44.5848 0.750065 44.6135 0.750065 44.6485C0.750065 44.6835 0.777174 44.6955 0.810307 44.675Z" fill="white"/>
<path d="M48.9136 5.56896C48.9936 5.65142 49.766 5.95094 50.3292 6.11798C51.4279 6.4438 54.3415 7.78911 55.0582 8.30147C55.4625 8.59046 56.9904 9.55306 57.2793 9.70078C57.528 9.8279 57.8443 10.1697 57.8945 10.3654C57.9115 10.4318 58.0343 10.5487 58.1674 10.6252C58.4021 10.7602 58.8447 11.107 60.3625 12.3477H60.9144C60.0854 11.5711 59.241 10.8395 58.7029 10.4406C58.3881 10.2072 57.9743 9.89815 57.7834 9.75375C57.5924 9.60934 57.3306 9.45483 57.2015 9.41041C57.0725 9.36599 56.8086 9.1957 56.615 9.03203C56.1743 8.65932 55.6946 8.33596 54.9938 7.93911C54.6933 7.76895 54.4025 7.58006 54.3474 7.51933C54.2924 7.45859 54.091 7.33755 53.8998 7.25033C52.3373 6.53752 52.0713 6.43778 50.269 5.88949C49.1665 5.55409 48.8194 5.47199 48.9136 5.56896Z" fill="white"/>
<path d="M57.9197 65.5081C57.6381 65.6958 57.2825 65.9652 57.1295 66.1069C56.9765 66.2485 56.7054 66.4373 56.5271 66.5264C56.3488 66.6156 56.1351 66.7496 56.0522 66.8243C55.9694 66.899 55.8149 66.989 55.709 67.0243C55.6031 67.0596 55.3651 67.2001 55.1801 67.3366C54.9617 67.4978 54.588 67.6772 54.1147 67.848C53.7138 67.9927 53.2406 68.2109 53.0632 68.333C52.7432 68.5533 52.1671 68.7884 50.6606 69.3135C50.2298 69.4636 49.8673 69.612 49.8548 69.6433C49.7879 69.8119 49.5892 69.9259 49.3624 69.9259C49.2282 69.9259 49.0452 69.9636 48.9557 70.0096C48.8663 70.0555 48.6058 70.1221 48.3769 70.1575C47.9747 70.2198 47.697 70.3451 47.9527 70.3491C48.1686 70.3525 47.9124 70.4488 47.5882 70.4862C47.4226 70.5052 47.1108 70.5792 46.8955 70.6506C46.6801 70.7219 46.2938 70.803 46.037 70.8306C45.7803 70.8583 45.211 70.948 44.7719 71.03C43.7825 71.2148 43.2173 71.3017 42.5596 71.37C42.2789 71.3991 41.6011 71.5047 41.0535 71.6045C39.131 71.9552 38.8525 71.9922 38.4528 71.9493C38.2422 71.9268 37.3109 71.8835 36.3832 71.8533C35.4311 71.8222 34.4734 71.7594 34.1844 71.7091C32.6821 71.4474 32.1532 71.3408 31.4133 71.1506C30.966 71.0356 30.4373 70.9045 30.2385 70.8593C30.0397 70.814 29.7144 70.7195 29.5156 70.6492C29.3168 70.5789 29.0242 70.4963 28.8654 70.4655C28.7065 70.4348 28.4536 70.3251 28.3034 70.2219C28.0687 70.0605 27.9949 70.0392 27.779 70.0708C27.5637 70.1022 27.4411 70.0674 26.9252 69.8286C26.5142 69.6382 26.1358 69.5144 25.7341 69.4387C24.9058 69.2828 24.6742 69.2154 24.3649 69.0399C24.2158 68.9553 23.7956 68.7175 23.4312 68.5115C22.6736 68.0833 21.6441 67.4707 21.2022 67.1852C21.0366 67.0782 20.6696 66.8429 20.3867 66.6622C20.1039 66.4816 19.6733 66.1602 19.4299 65.9479C19.1865 65.7356 18.7538 65.3777 18.4683 65.1523C18.1828 64.927 17.8407 64.6399 17.7082 64.5144C17.5757 64.3889 17.2546 64.1288 16.9948 63.9364C16.3 63.4221 15.8655 63.0051 15.7457 62.7376C15.6728 62.575 15.5958 62.4951 15.4992 62.482C15.3595 62.4631 14.832 61.9396 14.3572 61.3485C14.2242 61.1829 13.9343 60.8571 13.7129 60.6242C13.0493 59.9262 12.592 59.3827 12.3521 59.0066C12.2274 58.8111 11.9718 58.467 11.7842 58.2419C11.5965 58.0167 11.2804 57.5734 11.0816 57.2567C10.4116 56.1894 9.76173 55.3155 9.52064 55.1576C9.43486 55.1015 9.36467 55.0067 9.36467 54.9469C9.36467 54.8871 9.17576 54.5978 8.94485 54.304C8.5037 53.7426 8.41128 53.5826 8.07724 52.8011C7.58398 51.6471 7.06307 50.5511 6.87355 50.2682C6.67704 49.9751 6.37745 49.3108 6.08245 48.5142C6.00624 48.3084 5.83058 47.9336 5.69214 47.6816C5.54623 47.416 5.40424 47.05 5.35436 46.8109C5.30701 46.5841 5.23846 46.3223 5.20195 46.229C5.1655 46.1357 5.0996 45.8699 5.05544 45.6381C5.01134 45.4064 4.93237 45.0678 4.88002 44.8857C4.82761 44.7036 4.73423 44.1077 4.67236 43.5615C4.58694 42.8062 4.52622 42.4993 4.41911 42.2802C4.30718 42.0513 4.29218 41.9696 4.34633 41.8829C4.39398 41.8067 4.41609 41.0157 4.41977 39.2517C4.42266 37.8645 4.43176 36.4883 4.43995 36.1935C4.45001 35.835 4.4323 35.6497 4.38651 35.634C4.27067 35.5943 4.18386 35.97 4.1835 36.5128C4.18332 36.7976 4.14482 37.2879 4.09796 37.6024C3.86699 39.1522 3.83837 41.1148 4.03103 42.1958C4.07711 42.4544 4.10091 42.7523 4.0838 42.8579C4.06675 42.9635 4.09518 43.2665 4.14711 43.5314C4.42597 44.9548 4.62556 45.815 4.78941 46.3003C5.06255 47.1088 5.06231 47.1082 5.26593 47.5929C5.36984 47.8403 5.58678 48.4227 5.74804 48.887C6.25661 50.3517 6.53101 51.0332 6.92397 51.8079C7.13385 52.2217 7.3985 52.7635 7.51205 53.0118C7.85176 53.7547 9.06057 55.7973 9.48901 56.3525C9.64233 56.5511 9.86607 56.8626 9.98631 57.0447C10.7297 58.1706 11.5136 59.1677 12.3829 60.0929C12.6361 60.3624 13.0059 60.7958 13.2047 61.056C13.4035 61.3162 13.6272 61.5832 13.7019 61.6494C13.7766 61.7156 13.9992 61.9669 14.1967 62.2077C14.3941 62.4486 14.7499 62.799 14.9874 62.9864C15.2248 63.1739 15.7462 63.6405 16.146 64.0233C16.8803 64.7263 17.2784 65.0786 17.9451 65.6157C18.1461 65.7777 18.3459 65.9603 18.389 66.0215C18.4321 66.0828 18.7845 66.3409 19.1721 66.5952C19.5598 66.8495 19.9989 67.1593 20.148 67.2837C20.8576 67.8755 21.169 68.0974 21.5493 68.2824C21.776 68.3926 22.2379 68.6671 22.5759 68.8924C24.0554 69.8787 25.9104 70.7109 27.4208 71.0658C27.8517 71.167 28.3095 71.2868 28.4382 71.332C28.5669 71.3771 28.862 71.4328 29.0939 71.4557C29.3259 71.4785 29.7461 71.535 30.0277 71.5811C30.3093 71.6272 30.8602 71.708 31.2519 71.7606C31.6436 71.8132 32.3484 71.9511 32.8182 72.0671C34.2464 72.4195 34.368 72.4425 35.1784 72.5138C36.0615 72.5915 38.6736 72.5605 39.6664 72.4606C40.0143 72.4255 40.9496 72.3544 41.7448 72.3026C43.3609 72.1973 44.4559 72.047 45.2199 71.8258C45.5021 71.7441 46.2317 71.5528 46.8413 71.4006C47.4509 71.2485 48.2479 71.0324 48.6123 70.9205C48.9768 70.8086 49.4241 70.6885 49.6063 70.6536C50.501 70.4826 51.0084 70.3391 51.3021 70.1742C51.4794 70.0747 52.004 69.8319 52.4678 69.6346C53.5653 69.1679 55.7955 68.0056 56.5944 67.484C56.8098 67.3433 57.2029 67.1125 57.4679 66.9708C57.733 66.8293 58.0583 66.6271 58.1908 66.5217C58.3234 66.4162 58.6758 66.1579 58.974 65.9477C59.5011 65.5761 60.1568 65.0305 60.4909 64.6909H59.1275C58.8152 64.9081 58.4276 65.1697 57.9197 65.5081Z" fill="white"/>
<path fill-rule="evenodd" clip-rule="evenodd" d="M32.0343 0.281921C31.9029 0.281199 31.8852 0.267956 31.9554 0.222631C32.0712 0.147871 32.1201 0.147871 32.1663 0.222631C32.1878 0.257362 32.1319 0.282463 32.0343 0.281921ZM36.5765 2.63034C36.1648 2.63034 36.1526 2.59098 36.5406 2.51483C36.895 2.44525 37.1493 2.4408 37.2465 2.50237C37.3553 2.5713 37.0461 2.63034 36.5765 2.63034ZM38.6813 2.65478C38.3872 2.70992 37.7139 2.63402 37.8893 2.56552C38.0445 2.50484 38.6369 2.50454 38.7919 2.56504C38.8907 2.60362 38.8716 2.61915 38.6813 2.65478ZM33.2722 2.92824C33.3929 2.92649 33.8711 2.84806 34.335 2.75386C35.2725 2.56347 35.7755 2.52453 35.7363 2.64539C35.7229 2.68681 35.6054 2.75169 35.4753 2.78968C35.1078 2.89688 32.7145 3.40172 32.0759 3.50669C31.7612 3.55846 31.1241 3.71851 30.6602 3.86231C30.1964 4.00611 29.5051 4.20993 29.1241 4.31514C28.743 4.42042 28.228 4.58372 27.9795 4.67811C27.731 4.77249 27.3379 4.90744 27.1059 4.97799C26.3315 5.2137 25.3073 5.59478 24.4121 5.98038C23.9244 6.19045 23.5072 6.3623 23.4849 6.3623C23.4037 6.3623 21.6181 7.16774 21.4095 7.29842C21.2916 7.37228 21.007 7.52697 20.777 7.64218C20.3565 7.85274 20.032 8.02591 19.2996 8.43053C19.0815 8.55103 18.8651 8.64963 18.8188 8.64963C18.6804 8.64963 19.0624 8.31351 19.4552 8.08984C19.654 7.97655 20.02 7.76142 20.2685 7.61173C21.2528 7.01877 22.2748 6.47029 22.8092 6.2483C23.9404 5.77837 24.643 5.47355 24.9372 5.32518C25.1029 5.24163 25.3333 5.15291 25.4493 5.12799C25.5653 5.10313 26.0179 4.95216 26.4553 4.79253C26.8926 4.63296 27.5956 4.41753 28.0175 4.31382C28.4395 4.21011 28.922 4.07497 29.0899 4.01352C29.9907 3.68384 32.8813 2.93372 33.2722 2.92824ZM40.8056 2.77746C40.7754 2.75886 40.7508 2.71817 40.7508 2.68699C40.7508 2.61488 40.9736 2.61253 41.0179 2.68422C41.0579 2.74892 40.8834 2.82555 40.8056 2.77746ZM41.8026 2.81092C41.725 2.81092 41.6448 2.78384 41.6243 2.75073C41.5407 2.61554 43.5647 2.73984 44.1152 2.90374C44.2924 2.95653 44.4228 3.01432 44.4049 3.03219C44.334 3.10298 43.3062 3.04369 42.6441 2.93059C42.2589 2.8648 41.8802 2.81092 41.8026 2.81092ZM44.9225 3.17232C44.9142 3.1722 44.9075 3.14499 44.9075 3.11189C44.9075 3.01889 45.3448 3.03972 46.2027 3.17359C46.6334 3.24082 47.2569 3.33791 47.5882 3.38944C48.3751 3.51169 48.9234 3.64393 49.1846 3.77437C49.5153 3.93954 50.5056 4.29829 51.2694 4.52961C52.0513 4.76641 52.8122 5.09548 52.6866 5.14243C52.5649 5.18794 51.5948 4.89901 49.6666 4.24303C48.776 3.94008 47.9505 3.74421 46.0219 3.3783C45.4255 3.26514 44.9308 3.17244 44.9225 3.17232ZM34.3651 4.41019C34.9177 4.32375 37.5884 4.04879 38.7628 3.95742C39.0775 3.93298 39.3486 3.9092 39.3652 3.90463C39.3818 3.90011 40.0866 3.92305 40.9315 3.95567C42.6428 4.0217 43.2714 4.08629 43.9587 4.26663C44.4618 4.39863 44.5973 4.5322 44.1695 4.47435C42.5214 4.25146 38.5683 4.18013 36.8953 4.34313C35.3077 4.49777 34.7064 4.62128 32.2076 5.3064C31.1701 5.59081 30.1129 5.87372 29.8582 5.93511C27.6359 6.47041 24.5217 7.60859 23.4914 8.26199C23.3258 8.36702 22.9598 8.56801 22.6782 8.70862C22.3965 8.84917 21.8815 9.13304 21.5336 9.33938C21.1857 9.54578 20.6659 9.84097 20.3785 9.99536C20.0911 10.1498 19.7251 10.3782 19.5652 10.5028C19.0476 10.9065 18.6702 11.1175 18.466 11.1175C18.1818 11.1175 18.2534 11.0068 18.7203 10.7245C18.9409 10.5911 19.1965 10.4206 19.2883 10.3456C19.7776 9.9457 20.7196 9.33077 21.1492 9.13081C21.4183 9.00555 21.8928 8.7413 22.2038 8.54363C22.8947 8.10422 23.7346 7.67794 24.2281 7.51608C24.4308 7.44957 24.7742 7.28819 24.9911 7.15739C25.2409 7.00691 25.5797 6.87159 25.9144 6.78871C26.2053 6.71666 27.121 6.44362 27.9493 6.18202C28.7777 5.92037 29.74 5.63517 30.0879 5.54825C30.4358 5.4614 31.0458 5.28521 31.4434 5.15682C32.4443 4.83352 33.6843 4.51661 34.3651 4.41019ZM45.8558 4.76731C45.6319 4.71205 45.4642 4.64199 45.483 4.61153C45.5491 4.50463 46.5392 4.7197 46.5822 4.85038C46.6129 4.94374 46.5339 4.93471 45.8558 4.76731ZM53.9267 5.82279C53.6057 5.69543 53.4161 5.52514 53.501 5.44039C53.5201 5.42119 53.5938 5.44165 53.6645 5.48583C53.7353 5.53002 53.9287 5.61049 54.0944 5.66467C54.26 5.71884 54.5311 5.84145 54.6968 5.93716C54.8625 6.03287 55.3931 6.31138 55.8759 6.55606C56.3588 6.80081 56.9145 7.1232 57.1109 7.27254C57.3073 7.42188 57.6848 7.67559 57.9499 7.83636C58.2149 7.99714 58.5004 8.19102 58.5842 8.26728C58.6679 8.34349 58.9237 8.5352 59.1524 8.69327C59.3812 8.85134 59.5792 9.01458 59.5925 9.05599C59.6291 9.1703 59.4456 9.08537 59.0342 8.79764C58.5442 8.45491 56.8438 7.47184 56.5226 7.34555C56.184 7.21247 55.8766 7.01991 55.3603 6.61752C54.9294 6.2817 54.5418 6.06682 53.9267 5.82279ZM15.3588 10.9026C15.8226 10.5303 16.3919 10.1014 16.6238 9.94943C17.0513 9.66936 17.3166 9.59761 17.3166 9.76205C17.3166 9.81105 17.0495 10.0283 16.7231 10.2447C16.3966 10.4612 16.0374 10.7284 15.9248 10.8385C15.8123 10.9486 15.5436 11.1757 15.3278 11.3433C15.1119 11.5108 14.8189 11.786 14.6765 11.9546C14.5342 12.1233 14.2093 12.4203 13.9545 12.6147C13.4765 12.9792 12.1188 14.3338 11.8051 14.7592C11.7074 14.8916 11.4601 15.2036 11.2556 15.4526C11.051 15.7015 10.7677 16.0807 10.626 16.2953C10.4842 16.5098 10.2211 16.8744 10.0413 17.1055C9.86137 17.3365 9.64528 17.6616 9.561 17.8278C9.41245 18.121 9.01575 18.731 8.28815 19.7853C8.09393 20.0667 7.73242 20.6897 7.48476 21.1697C7.23711 21.6498 6.76354 22.4759 6.43239 23.0056C5.64834 24.2597 5.22466 25.0086 5.17243 25.2328C5.14924 25.3321 5.04183 25.5905 4.93375 25.8071C4.82562 26.0237 4.68272 26.3664 4.61628 26.5689C4.54977 26.7712 4.45441 27.0003 4.40435 27.078C4.23862 27.3351 4.00982 27.991 3.79873 28.8142C3.68415 29.2612 3.56024 29.7058 3.52337 29.8023C3.45891 29.9711 3.28065 31.2254 3.06926 32.9976C2.96763 33.8498 2.78709 34.7499 2.67624 34.9568C2.64305 35.0189 2.60672 35.3347 2.59564 35.6588C2.58456 35.9829 2.52745 36.695 2.46877 37.2412C2.38979 37.9761 2.37058 38.4977 2.39491 39.2466C2.42961 40.3149 2.3869 40.612 2.19858 40.612C2.1131 40.612 2.08509 40.5404 2.05382 40.242C1.99647 39.6937 2.01003 36.9929 2.07328 36.3684C2.10346 36.0705 2.15563 35.5558 2.18925 35.2248C2.22286 34.8937 2.27991 34.21 2.316 33.7053C2.37449 32.8872 2.42762 32.6069 2.80619 31.117C3.03974 30.1981 3.25354 29.3379 3.28131 29.2055C3.30903 29.0731 3.41728 28.7345 3.5218 28.4531C3.62632 28.1717 3.77662 27.6876 3.85584 27.3774C3.93958 27.0494 4.07777 26.6921 4.18597 26.5236C4.28832 26.3642 4.45266 26.0221 4.55116 25.7634C4.95677 24.6977 6.40812 21.807 7.18994 20.5076C7.51862 19.9614 7.91103 19.3078 8.06206 19.0553C8.21303 18.8027 8.59882 18.261 8.91937 17.8514C9.23985 17.4418 9.73197 16.7546 10.0129 16.3242C10.5794 15.4562 10.75 15.2434 11.8222 14.067C13.0881 12.6782 13.2325 12.5369 13.8828 12.0515C14.2307 11.7919 14.8949 11.2749 15.3588 10.9026ZM16.6969 12.1424C16.8887 12.0285 17.259 11.7919 17.52 11.6167C17.9656 11.3175 18.2203 11.2228 18.2203 11.3562C18.2203 11.3881 18.1728 11.4397 18.1148 11.4708C18.0569 11.5019 17.7945 11.706 17.5318 11.9244C17.2691 12.1427 17.0308 12.3214 17.0021 12.3214C16.9734 12.3214 16.8064 12.4297 16.6308 12.5622C16.3073 12.8062 16.1516 12.8558 16.0786 12.7379C16.0209 12.6444 16.2929 12.3824 16.6969 12.1424ZM10.8528 17.9019C11.823 16.4238 13.5219 14.5995 15.1058 13.3346C15.6507 12.8995 15.8106 12.8013 15.8106 12.9015C15.8106 13.0282 15.0115 14.0236 14.3933 14.6672C13.9949 15.082 13.6216 15.5214 13.5638 15.6436C13.506 15.7659 13.3804 15.9284 13.2847 16.0048C13.1889 16.0812 12.9083 16.3874 12.6611 16.6854C12.185 17.259 11.2142 18.226 10.885 18.4544C10.7195 18.5692 10.3007 19.1872 9.90824 19.8955C9.85926 19.9839 9.71546 20.2228 9.58871 20.4265C9.46196 20.6301 9.33202 20.8916 9.29997 21.0075C9.26799 21.1234 9.10232 21.4307 8.93184 21.6905C8.76135 21.9504 8.46382 22.4961 8.27062 22.9032C7.92049 23.641 7.63705 24.0781 7.54543 24.0215C7.51886 24.0051 7.49717 23.913 7.49717 23.8169C7.49717 23.617 8.32887 21.9758 8.95762 20.9352C9.18557 20.5578 9.46293 20.0703 9.57395 19.8517C9.68492 19.6331 9.96661 19.1834 10.1999 18.8523C10.4331 18.5213 10.7269 18.0935 10.8528 17.9019ZM5.3596 29.2657C5.98341 27.2155 6.36378 26.1839 6.60752 25.8805C6.64047 25.8395 6.69149 25.8208 6.72083 25.8389C6.81174 25.895 6.78005 26.1592 6.65246 26.409C6.46601 26.7743 5.77841 28.8015 5.66033 29.3342C5.60262 29.5945 5.50545 29.9429 5.4443 30.1084C5.38316 30.2739 5.24996 30.9156 5.14828 31.5344C5.04659 32.1532 4.92381 32.7897 4.8755 32.9489C4.82712 33.1081 4.7873 33.337 4.78694 33.4574C4.78622 33.6961 4.58881 34.016 4.53561 33.8647C4.51929 33.8182 4.53983 33.5228 4.58128 33.2083C4.62266 32.8938 4.68748 32.325 4.72532 31.9443C4.8064 31.128 4.85387 30.9277 5.3596 29.2657ZM4.36121 35.2227C4.27224 35.1677 4.29459 34.7261 4.39627 34.5295C4.51224 34.3055 4.57182 34.3058 4.66513 34.531C4.73134 34.6906 4.722 34.7396 4.57869 34.9839C4.49031 35.1345 4.39248 35.242 4.36121 35.2227ZM2.19587 41.214C2.12858 41.214 2.11328 41.0156 2.17581 40.9531C2.2422 40.8868 2.25612 40.9059 2.25612 41.0635C2.25612 41.1462 2.22901 41.214 2.19587 41.214ZM2.56841 44.8423C2.49389 44.7072 2.31738 43.6717 2.31672 43.3659C2.31654 43.2748 2.32895 43.2003 2.34437 43.2003C2.48341 43.2003 2.74185 44.3909 2.68076 44.7498C2.64389 44.9663 2.63907 44.9703 2.56841 44.8423ZM2.73805 45.7068C2.73805 45.691 2.72161 45.6352 2.70149 45.5829C2.68136 45.5305 2.69203 45.4877 2.72516 45.4877C2.80944 45.4877 2.86558 45.6567 2.79564 45.7C2.76396 45.7195 2.73805 45.7226 2.73805 45.7068ZM3.67723 48.4216C3.62933 48.4695 3.5212 48.3734 3.5212 48.2831C3.5212 48.2353 3.54542 48.1963 3.57499 48.1963C3.63608 48.1963 3.71927 48.3797 3.67723 48.4216ZM4.38802 50.7519C4.22549 50.4709 3.85711 49.37 3.79976 48.9939C3.77831 48.8532 3.78343 48.7381 3.8112 48.7381C3.85765 48.7381 4.31519 49.4285 4.48055 49.7482C4.51959 49.8237 4.61712 50.0861 4.69718 50.3313C4.87646 50.88 6.16841 53.5239 6.65565 54.3391C6.85234 54.6683 7.09843 55.107 7.20247 55.314C7.47127 55.8486 9.65347 59.0727 10.2011 59.744C10.4534 60.0534 10.7471 60.4326 10.8537 60.5867C10.9603 60.7408 11.2574 61.0701 11.514 61.3184C11.7706 61.5667 12.2797 62.0813 12.6455 62.462C13.9463 63.816 14.952 64.7754 16.0442 65.704C17.326 66.794 18.8045 67.9346 19.5006 68.3705C20.1485 68.7762 21.4557 69.4539 22.0177 69.6754C22.2674 69.7738 22.73 69.9645 23.0456 70.0993C23.5456 70.3127 24.8924 70.8015 26.9855 71.5291C27.8445 71.8277 30.1661 72.4869 30.8574 72.6284C32.1362 72.8903 33.6362 73.0676 35.5398 73.1819C36.8008 73.2576 39.977 73.2204 40.7809 73.1206C41.0128 73.0917 41.555 73.024 41.9857 72.9699C42.4165 72.9158 43.2026 72.8176 43.7327 72.7516C44.9939 72.5945 45.7575 72.4643 46.2027 72.3303C46.4015 72.2705 46.6997 72.2034 46.8653 72.1812C47.5402 72.0907 49.6862 71.5447 50.3609 71.2918C50.7576 71.1432 51.3534 70.9218 51.6847 70.8001C53.0701 70.2909 53.6133 70.0552 55.1634 69.291C56.508 68.6281 56.8145 68.4981 56.9111 68.5498C57.0236 68.6099 57.0215 68.6196 56.8586 68.7894C56.7653 68.8867 56.5389 69.0366 56.3556 69.1225C56.1722 69.2083 55.8364 69.4153 55.6094 69.5824C55.1718 69.9045 54.7202 70.1593 53.7177 70.6498C53.378 70.8161 52.9769 71.0301 52.8265 71.1255C52.676 71.2208 52.1542 71.4267 51.6669 71.5829C51.1797 71.7391 50.7058 71.9053 50.6138 71.9522C50.4418 72.0399 49.4418 72.2809 48.6425 72.4273C48.394 72.4728 48.028 72.5625 47.8292 72.6265C46.6741 72.9986 46.2035 73.1195 45.6906 73.1757C45.3758 73.2102 44.6304 73.3049 44.034 73.386C39.9327 73.9441 37.4578 74.0263 35.3469 73.6746C34.7579 73.5765 34.7135 73.5768 34.2819 73.6842C33.8969 73.78 33.7764 73.7864 33.4508 73.728C33.2413 73.6905 32.6226 73.6041 32.0759 73.5361C31.0196 73.4047 29.9399 73.1739 28.9662 72.8712C28.6388 72.7695 28.0356 72.6084 27.6257 72.5132C27.0194 72.3724 26.7359 72.2662 26.1059 71.9439C25.3789 71.5719 24.5032 71.1869 23.883 70.9666C23.7339 70.9137 23.5035 70.7969 23.3709 70.7072C22.9891 70.4487 22.5736 70.2588 21.9251 70.0464C21.2684 69.8313 20.9694 69.6957 20.5998 69.4452C20.4673 69.3554 19.9568 69.0756 19.4655 68.8235C18.8547 68.5099 18.4451 68.2537 18.1703 68.013C17.9493 67.8194 17.6058 67.5714 17.407 67.4618C17.0728 67.2775 16.6369 66.9438 15.4544 65.9668C15.203 65.7591 14.794 65.4307 14.5455 65.2371C13.9956 64.8087 13.5498 64.343 13.0412 63.6659C12.8299 63.3845 12.4626 62.9646 12.2251 62.7329C11.0439 61.5805 9.88137 60.1666 9.49522 59.4127C9.43016 59.2855 9.16961 58.9957 8.91635 58.7687C8.38803 58.2949 7.64278 57.2247 7.12265 56.1926C6.94999 55.8502 6.64005 55.2916 6.43384 54.9514C6.22757 54.6112 6.00486 54.1914 5.93895 54.0184C5.87299 53.8455 5.67738 53.4331 5.50425 53.102C4.90279 51.9522 4.73007 51.5955 4.62977 51.2963C4.57423 51.1307 4.46549 50.8857 4.38802 50.7519ZM54.9679 68.7321C54.9679 68.6714 54.986 68.6037 55.0081 68.5817C55.129 68.4607 55.3684 68.6326 55.2603 68.7628C55.161 68.8823 54.9679 68.862 54.9679 68.7321Z" fill="white"/>
<path d="M60.6988 65.6759C59.4437 66.7319 58.8485 67.2005 58.3716 67.5081C57.8067 67.8723 57.2571 68.2947 57.2571 68.3644C57.2571 68.4778 57.4758 68.4161 57.8294 68.203C58.2468 67.9516 59.7046 66.9326 60.4023 66.4047C60.6648 66.206 61.0821 65.8931 61.3297 65.7094C61.5086 65.5766 61.8719 65.2516 62.4657 64.6909H61.7797C61.3616 65.0901 60.986 65.4341 60.6988 65.6759Z" fill="white"/>
<path d="M56.0537 21.4809L55.3799 24.85H38.5342L36.3779 35.6312H52.4375L51.7637 39.0004H35.7041L32.7842 53.6H28.6289L35.0527 21.4809H56.0537ZM65.1729 21.4809L59.4229 50.2309H76.2236L75.5498 53.6H54.5938L61.0176 21.4809H65.1729ZM82.7598 41.2016L86.7129 21.4809H90.8682L86.915 41.2016C85.6872 47.3708 88.1429 50.4555 94.2822 50.4555C100.422 50.4555 104.105 47.3708 105.333 41.2016L109.286 21.4809H113.441L109.488 41.2016C107.811 49.6169 102.518 53.8246 93.6084 53.8246C84.6989 53.8246 81.0827 49.6169 82.7598 41.2016ZM114.43 53.6L120.854 21.4809H134.555C140.664 21.4809 143.202 24.0489 142.169 29.185C141.345 33.3627 137.744 36.6045 131.365 38.9105L139.361 53.6H134.33L127.008 39.1576L127.547 36.4398C133.581 35.4665 136.973 33.1081 137.722 29.3646C138.306 26.3998 136.891 24.9174 133.477 24.9174H124.312L118.585 53.6H114.43ZM145.044 53.6H140.507L160.564 21.4809H165.169L172.446 53.6H168.066L165.933 43.4926H155.309L157.128 40.1234H165.214L162.137 25.5687L145.044 53.6ZM179.993 21.4809H184.44L190.348 38.2592L203.083 21.4809H208.069L191.628 42.3695L189.382 53.6H185.227L187.473 42.3695L179.993 21.4809Z" fill="white"/>
<path d="M81.1577 63.35C82.0379 62.0479 83.0926 61.3969 84.3218 61.3969C86.1864 61.3969 86.866 62.6573 86.3608 65.1781C85.7723 68.126 84.116 69.6 81.3921 69.6C80.8556 69.6 80.366 69.5766 79.9233 69.5297L79.314 72.5688H77.8687L80.103 61.3969H81.3921L81.1577 63.35ZM80.8999 64.6313L80.1968 68.1703C80.4312 68.3214 80.8869 68.3969 81.564 68.3969C83.3869 68.3969 84.5119 67.3318 84.939 65.2016C85.2775 63.4984 84.9077 62.6469 83.8296 62.6469C82.715 62.6469 81.7384 63.3083 80.8999 64.6313ZM93.9624 62.7875C93.702 62.6625 93.2072 62.6 92.478 62.6C90.7332 62.6 89.6629 63.5974 89.2671 65.5922C88.8973 67.4307 89.2515 68.35 90.3296 68.35C91.4442 68.35 92.4181 67.6885 93.2515 66.3656L93.9624 62.7875ZM94.0483 69.6H92.7593L92.9937 67.6469C92.1187 68.949 91.0666 69.6 89.8374 69.6C87.9728 69.6 87.3062 68.2693 87.8374 65.6078C88.3999 62.8005 90.0483 61.3969 92.7827 61.3969C93.8921 61.3969 94.8374 61.5089 95.6187 61.7328L94.0483 69.6ZM102.533 67.0688C101.496 68.7563 100.215 69.6 98.689 69.6C97.1629 69.6 96.577 68.712 96.9312 66.9359L98.0405 61.3969H99.4858L98.3765 66.9594C98.1838 67.9177 98.564 68.3969 99.5171 68.3969C100.606 68.3969 101.694 67.5297 102.783 65.7953L103.666 61.3969H105.111L103.47 69.6C103.074 71.5792 101.619 72.5688 99.103 72.5688C98.0926 72.5688 97.2228 72.4385 96.4937 72.1781L96.728 71.0063C97.4728 71.2667 98.3478 71.3969 99.353 71.3969C100.895 71.3969 101.785 70.7979 102.025 69.6L102.533 67.0688ZM105.822 69.6L107.462 61.3969H108.751L108.423 63.8344C109.382 62.2094 110.585 61.3969 112.033 61.3969C113.335 61.3969 113.827 62.1885 113.509 63.7719C114.514 62.1885 115.736 61.3969 117.173 61.3969C118.538 61.3969 119.043 62.2771 118.689 64.0375L117.58 69.6H116.134L117.244 64.0375C117.436 63.0792 117.147 62.6 116.376 62.6C115.345 62.6 114.322 63.4672 113.306 65.2016L112.423 69.6H110.978L112.087 64.0375C112.28 63.0792 111.996 62.6 111.236 62.6C110.163 62.6 109.134 63.4672 108.15 65.2016L107.267 69.6H105.822ZM124.955 61.3969C127.1 61.3969 128.017 62.1755 127.705 63.7328C127.403 65.238 126.275 65.9906 124.322 65.9906H121.705C121.382 67.6156 121.991 68.4281 123.533 68.4281C124.725 68.4281 125.751 68.0896 126.611 67.4125L126.376 68.5844C125.517 69.2615 124.491 69.6 123.298 69.6C120.793 69.6 119.819 68.2016 120.376 65.4047C120.913 62.7328 122.439 61.3969 124.955 61.3969ZM121.947 64.7875H124.564C125.554 64.7875 126.121 64.4281 126.267 63.7094C126.418 62.9385 125.903 62.5531 124.72 62.5531C123.262 62.5531 122.337 63.2979 121.947 64.7875ZM128.416 69.6L130.056 61.3969H131.345L130.994 63.9281C132.03 62.2406 133.311 61.3969 134.837 61.3969C136.363 61.3969 136.949 62.2849 136.595 64.0609L135.486 69.6H134.041L135.15 64.0375C135.343 63.0792 134.962 62.6 134.009 62.6C132.921 62.6 131.832 63.4672 130.744 65.2016L129.861 69.6H128.416ZM139.744 60.0688H140.65L140.697 61.3969H142.916L142.681 62.5688H140.689L139.744 67.2797C139.593 68.0453 139.848 68.4281 140.509 68.4281H141.509L141.275 69.6H139.9C138.525 69.6 137.986 68.863 138.283 67.3891L139.744 60.0688ZM146.869 69.2094L147.119 67.9594C148.02 68.2719 148.962 68.4281 149.947 68.4281C151.254 68.4281 151.986 68.0375 152.142 67.2563C152.288 66.5271 151.905 66.1625 150.994 66.1625H149.9C148.129 66.1625 147.405 65.3552 147.728 63.7406C148.041 62.1781 149.335 61.3969 151.611 61.3969C152.59 61.3969 153.535 61.5271 154.447 61.7875L154.197 63.0375C153.296 62.725 152.356 62.5688 151.376 62.5688C150.012 62.5688 149.251 62.9594 149.095 63.7406C148.949 64.4698 149.306 64.8344 150.166 64.8344H151.259C153.134 64.8344 153.91 65.6417 153.587 67.2563C153.275 68.8188 151.983 69.6 149.712 69.6C148.728 69.6 147.78 69.4698 146.869 69.2094ZM161.126 67.0688C160.09 68.7563 158.809 69.6 157.283 69.6C155.757 69.6 155.171 68.712 155.525 66.9359L156.634 61.3969H158.08L156.97 66.9594C156.778 67.9177 157.158 68.3969 158.111 68.3969C159.199 68.3969 160.288 67.5297 161.376 65.7953L162.259 61.3969H163.705L162.064 69.6C161.668 71.5792 160.212 72.5688 157.697 72.5688C156.686 72.5688 155.817 72.4385 155.087 72.1781L155.322 71.0063C156.067 71.2667 156.942 71.3969 157.947 71.3969C159.488 71.3969 160.379 70.7979 160.619 69.6L161.126 67.0688ZM164.259 69.2094L164.509 67.9594C165.41 68.2719 166.353 68.4281 167.337 68.4281C168.645 68.4281 169.376 68.0375 169.533 67.2563C169.679 66.5271 169.296 66.1625 168.384 66.1625H167.291C165.52 66.1625 164.796 65.3552 165.119 63.7406C165.431 62.1781 166.725 61.3969 169.001 61.3969C169.981 61.3969 170.926 61.5271 171.837 61.7875L171.587 63.0375C170.686 62.725 169.746 62.5688 168.767 62.5688C167.403 62.5688 166.642 62.9594 166.486 63.7406C166.34 64.4698 166.697 64.8344 167.556 64.8344H168.65C170.525 64.8344 171.301 65.6417 170.978 67.2563C170.666 68.8188 169.374 69.6 167.103 69.6C166.119 69.6 165.171 69.4698 164.259 69.2094ZM174.291 60.0688H175.197L175.244 61.3969H177.462L177.228 62.5688H175.236L174.291 67.2797C174.139 68.0453 174.395 68.4281 175.056 68.4281H176.056L175.822 69.6H174.447C173.072 69.6 172.533 68.863 172.83 67.3891L174.291 60.0688ZM182.689 61.3969C184.835 61.3969 185.751 62.1755 185.439 63.7328C185.137 65.238 184.009 65.9906 182.056 65.9906H179.439C179.116 67.6156 179.725 68.4281 181.267 68.4281C182.46 68.4281 183.486 68.0896 184.345 67.4125L184.111 68.5844C183.251 69.2615 182.225 69.6 181.033 69.6C178.528 69.6 177.554 68.2016 178.111 65.4047C178.647 62.7328 180.173 61.3969 182.689 61.3969ZM179.681 64.7875H182.298C183.288 64.7875 183.856 64.4281 184.001 63.7094C184.153 62.9385 183.637 62.5531 182.455 62.5531C180.996 62.5531 180.072 63.2979 179.681 64.7875ZM186.15 69.6L187.791 61.3969H189.08L188.751 63.8344C189.71 62.2094 190.913 61.3969 192.361 61.3969C193.663 61.3969 194.155 62.1885 193.837 63.7719C194.843 62.1885 196.064 61.3969 197.501 61.3969C198.866 61.3969 199.371 62.2771 199.017 64.0375L197.908 69.6H196.462L197.572 64.0375C197.764 63.0792 197.475 62.6 196.705 62.6C195.673 62.6 194.65 63.4672 193.634 65.2016L192.751 69.6H191.306L192.416 64.0375C192.608 63.0792 192.324 62.6 191.564 62.6C190.491 62.6 189.462 63.4672 188.478 65.2016L187.595 69.6H186.15Z" fill="white"/>
</svg>
