<svg width="15" height="15" viewBox="0 0 15 15" fill="none" xmlns="http://www.w3.org/2000/svg">
<path fill-rule="evenodd" clip-rule="evenodd" d="M7.5 14.0625C9.24048 14.0625 10.9097 13.3711 12.1404 12.1404C13.3711 10.9097 14.0625 9.24048 14.0625 7.5C14.0625 5.75952 13.3711 4.09032 12.1404 2.85961C10.9097 1.6289 9.24048 0.9375 7.5 0.9375C5.75952 0.9375 4.09032 1.6289 2.85961 2.85961C1.6289 4.09032 0.9375 5.75952 0.9375 7.5C0.9375 9.24048 1.6289 10.9097 2.85961 12.1404C4.09032 13.3711 5.75952 14.0625 7.5 14.0625ZM7.5 15C9.48912 15 11.3968 14.2098 12.8033 12.8033C14.2098 11.3968 15 9.48912 15 7.5C15 5.51088 14.2098 3.60322 12.8033 2.1967C11.3968 0.790176 9.48912 0 7.5 0C5.51088 0 3.60322 0.790176 2.1967 2.1967C0.790176 3.60322 0 5.51088 0 7.5C0 9.48912 0.790176 11.3968 2.1967 12.8033C3.60322 14.2098 5.51088 15 7.5 15Z" fill="#010181"/>
<path fill-rule="evenodd" clip-rule="evenodd" d="M7.16811 10.6444C7.12446 10.6008 7.08982 10.5491 7.06619 10.4922C7.04256 10.4352 7.0304 10.3742 7.0304 10.3125C7.0304 10.2508 7.04256 10.1898 7.06619 10.1328C7.08982 10.0759 7.12446 10.0242 7.16811 9.98063L9.64967 7.5L7.16811 5.01938C7.12453 4.97579 7.08995 4.92405 7.06637 4.86711C7.04278 4.81017 7.03064 4.74914 7.03064 4.6875C7.03064 4.62587 7.04278 4.56483 7.06637 4.50789C7.08995 4.45095 7.12453 4.39921 7.16811 4.35563C7.21169 4.31204 7.26343 4.27747 7.32037 4.25389C7.37732 4.2303 7.43835 4.21816 7.49998 4.21816C7.56162 4.21816 7.62265 4.2303 7.67959 4.25389C7.73654 4.27747 7.78828 4.31204 7.83186 4.35563L10.6444 7.16813C10.688 7.21167 10.7226 7.2634 10.7463 7.32034C10.7699 7.37729 10.7821 7.43834 10.7821 7.5C10.7821 7.56166 10.7699 7.62271 10.7463 7.67966C10.7226 7.73661 10.688 7.78833 10.6444 7.83188L7.83186 10.6444C7.78832 10.688 7.73659 10.7227 7.67964 10.7463C7.62269 10.7699 7.56164 10.7821 7.49998 10.7821C7.43833 10.7821 7.37728 10.7699 7.32033 10.7463C7.26338 10.7227 7.21165 10.688 7.16811 10.6444Z" fill="#010181"/>
<path fill-rule="evenodd" clip-rule="evenodd" d="M4.21875 7.5C4.21875 7.37568 4.26814 7.25645 4.35604 7.16854C4.44395 7.08064 4.56318 7.03125 4.6875 7.03125H9.375C9.49932 7.03125 9.61855 7.08064 9.70646 7.16854C9.79436 7.25645 9.84375 7.37568 9.84375 7.5C9.84375 7.62432 9.79436 7.74355 9.70646 7.83146C9.61855 7.91936 9.49932 7.96875 9.375 7.96875H4.6875C4.56318 7.96875 4.44395 7.91936 4.35604 7.83146C4.26814 7.74355 4.21875 7.62432 4.21875 7.5Z" fill="#010181"/>
</svg>
