<svg width="50" height="50" viewBox="0 0 50 50" fill="none" xmlns="http://www.w3.org/2000/svg">
<g filter="url(#filter0_d)">
<rect x="5" y="5" width="40" height="40" rx="8" fill="white"/>
</g>
<path d="M36.4035 12H13.5965C13.3447 12 13.1404 12.2043 13.1404 12.4561V19.2982C13.1404 19.55 13.3447 19.7543 13.5965 19.7543H36.4035C36.6553 19.7543 36.8596 19.55 36.8596 19.2982V12.4561C36.8596 12.2043 36.6553 12 36.4035 12ZM35.9474 18.8421H14.0526V12.9123H35.9474V18.8421Z" fill="#010181"/>
<path d="M21.807 12H13.5965C13.3447 12 13.1404 12.2043 13.1404 12.4561V19.2982C13.1404 19.55 13.3447 19.7543 13.5965 19.7543H21.807C22.0588 19.7543 22.2631 19.55 22.2631 19.2982V12.4561C22.2631 12.2043 22.0588 12 21.807 12ZM21.3508 18.8421H14.0526V12.9123H21.3508V18.8421Z" fill="#010181"/>
<path d="M17.112 17.1512L15.7436 15.7828C15.5657 15.6045 15.2765 15.6045 15.0986 15.7828C14.9203 15.9611 14.9203 16.2494 15.0986 16.4278L16.467 17.7962C16.556 17.8852 16.6727 17.9298 16.7895 17.9298C16.9063 17.9298 17.0231 17.8852 17.112 17.7962C17.2904 17.6178 17.2904 17.3296 17.112 17.1512Z" fill="#010181"/>
<path d="M20.305 13.9582C20.1271 13.7799 19.8379 13.7799 19.66 13.9582L16.467 17.1512C16.2887 17.3295 16.2887 17.6178 16.467 17.7962C16.556 17.8851 16.6727 17.9298 16.7895 17.9298C16.9063 17.9298 17.0231 17.8851 17.112 17.7962L20.305 14.6032C20.4833 14.4248 20.4833 14.1366 20.305 13.9582Z" fill="#010181"/>
<path d="M31.3859 14.2807H23.6316C23.3798 14.2807 23.1755 14.485 23.1755 14.7368C23.1755 14.9886 23.3798 15.1929 23.6316 15.1929H31.386C31.6378 15.1929 31.8421 14.9886 31.8421 14.7368C31.8421 14.485 31.6378 14.2807 31.3859 14.2807Z" fill="#010181"/>
<path d="M34.579 14.2807H33.2106C32.9588 14.2807 32.7545 14.485 32.7545 14.7368C32.7545 14.9886 32.9588 15.1929 33.2106 15.1929H34.579C34.8308 15.1929 35.0351 14.9886 35.0351 14.7368C35.0351 14.485 34.8308 14.2807 34.579 14.2807Z" fill="#010181"/>
<path d="M34.579 16.5614H26.8246C26.5728 16.5614 26.3685 16.7658 26.3685 17.0175C26.3685 17.2693 26.5728 17.4737 26.8246 17.4737H34.579C34.8308 17.4737 35.0351 17.2693 35.0351 17.0175C35.0351 16.7658 34.8308 16.5614 34.579 16.5614Z" fill="#010181"/>
<path d="M25 16.5614H23.6316C23.3798 16.5614 23.1755 16.7658 23.1755 17.0175C23.1755 17.2693 23.3798 17.4737 23.6316 17.4737H25C25.2518 17.4737 25.4561 17.2693 25.4561 17.0175C25.4561 16.7658 25.2518 16.5614 25 16.5614Z" fill="#010181"/>
<path d="M36.4035 21.1228H13.5965C13.3447 21.1228 13.1404 21.3271 13.1404 21.5789V28.421C13.1404 28.6728 13.3447 28.8771 13.5965 28.8771H36.4035C36.6553 28.8771 36.8596 28.6728 36.8596 28.421V21.579C36.8596 21.3271 36.6553 21.1228 36.4035 21.1228ZM35.9474 27.9649H14.0526V22.0351H35.9474V27.9649Z" fill="#010181"/>
<path d="M21.807 21.1228H13.5965C13.3447 21.1228 13.1404 21.3271 13.1404 21.5789V28.421C13.1404 28.6728 13.3447 28.8771 13.5965 28.8771H21.807C22.0588 28.8771 22.2631 28.6728 22.2631 28.421V21.579C22.2631 21.3271 22.0588 21.1228 21.807 21.1228ZM21.3508 27.9649H14.0526V22.0351H21.3508V27.9649Z" fill="#010181"/>
<path d="M17.112 26.274L15.7436 24.9056C15.5657 24.7272 15.2765 24.7272 15.0986 24.9056C14.9203 25.0839 14.9203 25.3722 15.0986 25.5506L16.467 26.919C16.556 27.0079 16.6727 27.0526 16.7895 27.0526C16.9063 27.0526 17.0231 27.0079 17.112 26.919C17.2904 26.7406 17.2904 26.4523 17.112 26.274Z" fill="#010181"/>
<path d="M20.305 23.081C20.1271 22.9027 19.8379 22.9027 19.66 23.081L16.467 26.274C16.2887 26.4523 16.2887 26.7406 16.467 26.919C16.556 27.0079 16.6727 27.0526 16.7895 27.0526C16.9063 27.0526 17.0231 27.0079 17.112 26.919L20.305 23.726C20.4833 23.5477 20.4833 23.2594 20.305 23.081Z" fill="#010181"/>
<path d="M31.3859 23.4035H23.6316C23.3798 23.4035 23.1755 23.6078 23.1755 23.8596C23.1755 24.1114 23.3798 24.3157 23.6316 24.3157H31.386C31.6378 24.3157 31.8421 24.1114 31.8421 23.8596C31.8421 23.6078 31.6378 23.4035 31.3859 23.4035Z" fill="#010181"/>
<path d="M34.579 23.4035H33.2106C32.9588 23.4035 32.7545 23.6078 32.7545 23.8596C32.7545 24.1114 32.9588 24.3157 33.2106 24.3157H34.579C34.8308 24.3157 35.0351 24.1114 35.0351 23.8596C35.0351 23.6078 34.8308 23.4035 34.579 23.4035Z" fill="#010181"/>
<path d="M34.579 25.6842H26.8246C26.5728 25.6842 26.3685 25.8886 26.3685 26.1404C26.3685 26.3921 26.5728 26.5965 26.8246 26.5965H34.579C34.8308 26.5965 35.0351 26.3921 35.0351 26.1404C35.0351 25.8886 34.8308 25.6842 34.579 25.6842Z" fill="#010181"/>
<path d="M25 25.6842H23.6316C23.3798 25.6842 23.1755 25.8886 23.1755 26.1404C23.1755 26.3921 23.3798 26.5965 23.6316 26.5965H25C25.2518 26.5965 25.4561 26.3921 25.4561 26.1404C25.4561 25.8886 25.2518 25.6842 25 25.6842Z" fill="#010181"/>
<path d="M36.4035 30.2456H13.5965C13.3447 30.2456 13.1404 30.4499 13.1404 30.7017V37.5438C13.1404 37.7956 13.3447 38 13.5965 38H36.4035C36.6553 38 36.8596 37.7956 36.8596 37.5438V30.7018C36.8596 30.4499 36.6553 30.2456 36.4035 30.2456ZM35.9474 37.0877H14.0526V31.1579H35.9474V37.0877Z" fill="#010181"/>
<path d="M21.807 30.2456H13.5965C13.3447 30.2456 13.1404 30.4499 13.1404 30.7017V37.5438C13.1404 37.7956 13.3447 38 13.5965 38H21.807C22.0588 38 22.2631 37.7956 22.2631 37.5438V30.7018C22.2631 30.4499 22.0588 30.2456 21.807 30.2456ZM21.3508 37.0877H14.0526V31.1579H21.3508V37.0877Z" fill="#010181"/>
<path d="M17.112 35.3968L15.7436 34.0284C15.5657 33.8501 15.2765 33.8501 15.0986 34.0284C14.9203 34.2067 14.9203 34.495 15.0986 34.6734L16.467 36.0418C16.556 36.1307 16.6727 36.1754 16.7895 36.1754C16.9063 36.1754 17.0231 36.1307 17.112 36.0418C17.2904 35.8634 17.2904 35.5751 17.112 35.3968Z" fill="#010181"/>
<path d="M20.305 32.2038C20.1271 32.0255 19.8379 32.0255 19.66 32.2038L16.467 35.3968C16.2887 35.5751 16.2887 35.8634 16.467 36.0418C16.556 36.1307 16.6727 36.1754 16.7895 36.1754C16.9063 36.1754 17.0231 36.1307 17.112 36.0418L20.305 32.8488C20.4833 32.6705 20.4833 32.3822 20.305 32.2038Z" fill="#010181"/>
<path d="M31.3859 32.5263H23.6316C23.3798 32.5263 23.1755 32.7307 23.1755 32.9825C23.1755 33.2342 23.3798 33.4386 23.6316 33.4386H31.386C31.6378 33.4386 31.8421 33.2342 31.8421 32.9825C31.8421 32.7307 31.6378 32.5263 31.3859 32.5263Z" fill="#010181"/>
<path d="M34.579 32.5263H33.2106C32.9588 32.5263 32.7545 32.7307 32.7545 32.9825C32.7545 33.2342 32.9588 33.4386 33.2106 33.4386H34.579C34.8308 33.4386 35.0351 33.2342 35.0351 32.9825C35.0351 32.7307 34.8308 32.5263 34.579 32.5263Z" fill="#010181"/>
<path d="M34.579 34.807H26.8246C26.5728 34.807 26.3685 35.0114 26.3685 35.2632C26.3685 35.5149 26.5728 35.7193 26.8246 35.7193H34.579C34.8308 35.7193 35.0351 35.5149 35.0351 35.2632C35.0351 35.0114 34.8308 34.807 34.579 34.807Z" fill="#010181"/>
<path d="M25 34.807H23.6316C23.3798 34.807 23.1755 35.0114 23.1755 35.2632C23.1755 35.5149 23.3798 35.7193 23.6316 35.7193H25C25.2518 35.7193 25.4561 35.5149 25.4561 35.2632C25.4561 35.0114 25.2518 34.807 25 34.807Z" fill="#010181"/>
<defs>
<filter id="filter0_d" x="0" y="0" width="50" height="50" filterUnits="userSpaceOnUse" color-interpolation-filters="sRGB">
<feFlood flood-opacity="0" result="BackgroundImageFix"/>
<feColorMatrix in="SourceAlpha" type="matrix" values="0 0 0 0 0 0 0 0 0 0 0 0 0 0 0 0 0 0 127 0"/>
<feMorphology radius="1" operator="dilate" in="SourceAlpha" result="effect1_dropShadow"/>
<feOffset/>
<feGaussianBlur stdDeviation="2"/>
<feColorMatrix type="matrix" values="0 0 0 0 0 0 0 0 0 0 0 0 0 0 0 0 0 0 0.25 0"/>
<feBlend mode="normal" in2="BackgroundImageFix" result="effect1_dropShadow"/>
<feBlend mode="normal" in="SourceGraphic" in2="effect1_dropShadow" result="shape"/>
</filter>
</defs>
</svg>
