<svg width="47" height="51" viewBox="0 0 47 51" fill="none" xmlns="http://www.w3.org/2000/svg">
<path d="M45.1383 0.579269H1.27864C0.794459 0.579269 0.401489 0.972239 0.401489 1.45642V14.6144C0.401489 15.0985 0.794459 15.4915 1.27864 15.4915H45.1384C45.6226 15.4915 46.0155 15.0985 46.0155 14.6144V1.45642C46.0155 0.972239 45.6226 0.579269 45.1383 0.579269ZM44.2611 13.7372H2.15579V2.33367H44.2611V13.7372Z" fill="#010181"/>
<path d="M17.0681 0.579269H1.27864C0.794459 0.579269 0.401489 0.972239 0.401489 1.45642V14.6144C0.401489 15.0985 0.794459 15.4915 1.27864 15.4915H17.0681C17.5523 15.4915 17.9453 15.0985 17.9453 14.6144V1.45642C17.9453 0.972239 17.5523 0.579269 17.0681 0.579269ZM16.1909 13.7372H2.15579V2.33367H16.1909V13.7372Z" fill="#010181"/>
<path d="M8.03914 10.4854L5.4076 7.85389C5.06551 7.51092 4.50935 7.51092 4.16726 7.85389C3.82429 8.19686 3.82429 8.75126 4.16726 9.09423L6.79881 11.7258C6.9699 11.8969 7.19442 11.9828 7.41903 11.9828C7.64364 11.9828 7.86815 11.8969 8.03924 11.7258C8.38221 11.3828 8.38221 10.8284 8.03914 10.4854Z" fill="#010181"/>
<path d="M14.1796 4.34509C13.8375 4.00212 13.2813 4.00212 12.9393 4.34509L6.79891 10.4854C6.45594 10.8284 6.45594 11.3828 6.79891 11.7258C6.97001 11.8969 7.19452 11.9828 7.41913 11.9828C7.64374 11.9828 7.86825 11.8969 8.03935 11.7258L14.1797 5.58542C14.5226 5.24245 14.5226 4.68806 14.1796 4.34509Z" fill="#010181"/>
<path d="M35.4892 4.96523H20.5769C20.0927 4.96523 19.6998 5.3582 19.6998 5.84238C19.6998 6.32656 20.0927 6.71953 20.5769 6.71953H35.4893C35.9734 6.71953 36.3664 6.32656 36.3664 5.84238C36.3664 5.3582 35.9734 4.96523 35.4892 4.96523Z" fill="#010181"/>
<path d="M41.6296 4.96523H38.998C38.5138 4.96523 38.1209 5.3582 38.1209 5.84238C38.1209 6.32656 38.5138 6.71953 38.998 6.71953H41.6296C42.1138 6.71953 42.5067 6.32656 42.5067 5.84238C42.5067 5.3582 42.1138 4.96523 41.6296 4.96523Z" fill="#010181"/>
<path d="M41.6296 9.35126H26.7173C26.2331 9.35126 25.8401 9.74423 25.8401 10.2284C25.8401 10.7126 26.2331 11.1056 26.7173 11.1056H41.6296C42.1138 11.1056 42.5068 10.7126 42.5068 10.2284C42.5068 9.74423 42.1138 9.35126 41.6296 9.35126Z" fill="#010181"/>
<path d="M23.2085 9.35126H20.5769C20.0927 9.35126 19.6998 9.74423 19.6998 10.2284C19.6998 10.7126 20.0927 11.1056 20.5769 11.1056H23.2085C23.6926 11.1056 24.0856 10.7126 24.0856 10.2284C24.0856 9.74423 23.6926 9.35126 23.2085 9.35126Z" fill="#010181"/>
<path d="M45.1383 18.1232H1.27864C0.794459 18.1232 0.401489 18.5161 0.401489 19.0003V32.1582C0.401489 32.6424 0.794459 33.0354 1.27864 33.0354H45.1384C45.6226 33.0354 46.0155 32.6424 46.0155 32.1582V19.0004C46.0155 18.5161 45.6226 18.1232 45.1383 18.1232ZM44.2611 31.2811H2.15579V19.8776H44.2611V31.2811Z" fill="#010181"/>
<path d="M17.0681 18.1232H1.27864C0.794459 18.1232 0.401489 18.5161 0.401489 19.0003V32.1582C0.401489 32.6424 0.794459 33.0354 1.27864 33.0354H17.0681C17.5523 33.0354 17.9453 32.6424 17.9453 32.1582V19.0004C17.9453 18.5161 17.5523 18.1232 17.0681 18.1232ZM16.1909 31.2811H2.15579V19.8776H16.1909V31.2811Z" fill="#010181"/>
<path d="M8.03914 28.0293L5.4076 25.3978C5.06551 25.0548 4.50935 25.0548 4.16726 25.3978C3.82429 25.7407 3.82429 26.2951 4.16726 26.6381L6.79881 29.2697C6.9699 29.4407 7.19442 29.5267 7.41903 29.5267C7.64364 29.5267 7.86815 29.4407 8.03924 29.2697C8.38221 28.9267 8.38221 28.3723 8.03914 28.0293Z" fill="#010181"/>
<path d="M14.1796 21.889C13.8375 21.546 13.2813 21.546 12.9393 21.889L6.79891 28.0293C6.45594 28.3723 6.45594 28.9267 6.79891 29.2697C6.97001 29.4408 7.19452 29.5267 7.41913 29.5267C7.64374 29.5267 7.86825 29.4408 8.03935 29.2697L14.1797 23.1293C14.5226 22.7864 14.5226 22.232 14.1796 21.889Z" fill="#010181"/>
<path d="M35.4892 22.5091H20.5769C20.0927 22.5091 19.6998 22.9021 19.6998 23.3863C19.6998 23.8704 20.0927 24.2634 20.5769 24.2634H35.4893C35.9734 24.2634 36.3664 23.8704 36.3664 23.3863C36.3664 22.9021 35.9734 22.5091 35.4892 22.5091Z" fill="#010181"/>
<path d="M41.6296 22.5091H38.998C38.5138 22.5091 38.1209 22.9021 38.1209 23.3863C38.1209 23.8704 38.5138 24.2634 38.998 24.2634H41.6296C42.1138 24.2634 42.5067 23.8704 42.5067 23.3863C42.5067 22.9021 42.1138 22.5091 41.6296 22.5091Z" fill="#010181"/>
<path d="M41.6296 26.8951H26.7173C26.2331 26.8951 25.8401 27.2881 25.8401 27.7723C25.8401 28.2565 26.2331 28.6494 26.7173 28.6494H41.6296C42.1138 28.6494 42.5068 28.2565 42.5068 27.7723C42.5068 27.2881 42.1138 26.8951 41.6296 26.8951Z" fill="#010181"/>
<path d="M23.2085 26.8951H20.5769C20.0927 26.8951 19.6998 27.2881 19.6998 27.7723C19.6998 28.2565 20.0927 28.6494 20.5769 28.6494H23.2085C23.6926 28.6494 24.0856 28.2565 24.0856 27.7723C24.0856 27.2881 23.6926 26.8951 23.2085 26.8951Z" fill="#010181"/>
<path d="M45.1383 35.667H1.27864C0.794459 35.667 0.401489 36.06 0.401489 36.5442V49.7021C0.401489 50.1863 0.794459 50.5793 1.27864 50.5793H45.1384C45.6226 50.5793 46.0155 50.1863 46.0155 49.7021V36.5443C46.0155 36.06 45.6226 35.667 45.1383 35.667ZM44.2611 48.825H2.15579V37.4214H44.2611V48.825Z" fill="#010181"/>
<path d="M17.0681 35.667H1.27864C0.794459 35.667 0.401489 36.06 0.401489 36.5442V49.7021C0.401489 50.1863 0.794459 50.5793 1.27864 50.5793H17.0681C17.5523 50.5793 17.9453 50.1863 17.9453 49.7021V36.5443C17.9453 36.06 17.5523 35.667 17.0681 35.667ZM16.1909 48.825H2.15579V37.4214H16.1909V48.825Z" fill="#010181"/>
<path d="M8.03914 45.5732L5.4076 42.9417C5.06551 42.5987 4.50935 42.5987 4.16726 42.9417C3.82429 43.2846 3.82429 43.839 4.16726 44.182L6.79881 46.8135C6.9699 46.9846 7.19442 47.0706 7.41903 47.0706C7.64364 47.0706 7.86815 46.9846 8.03924 46.8135C8.38221 46.4706 8.38221 45.9162 8.03914 45.5732Z" fill="#010181"/>
<path d="M14.1796 39.4329C13.8375 39.0899 13.2813 39.0899 12.9393 39.4329L6.79891 45.5732C6.45594 45.9162 6.45594 46.4706 6.79891 46.8135C6.97001 46.9846 7.19452 47.0706 7.41913 47.0706C7.64374 47.0706 7.86825 46.9846 8.03935 46.8135L14.1797 40.6732C14.5226 40.3302 14.5226 39.7758 14.1796 39.4329Z" fill="#010181"/>
<path d="M35.4892 40.0531H20.5769C20.0927 40.0531 19.6998 40.4461 19.6998 40.9302C19.6998 41.4144 20.0927 41.8074 20.5769 41.8074H35.4893C35.9734 41.8074 36.3664 41.4144 36.3664 40.9302C36.3664 40.4461 35.9734 40.0531 35.4892 40.0531Z" fill="#010181"/>
<path d="M41.6296 40.0531H38.998C38.5138 40.0531 38.1209 40.4461 38.1209 40.9302C38.1209 41.4144 38.5138 41.8074 38.998 41.8074H41.6296C42.1138 41.8074 42.5067 41.4144 42.5067 40.9302C42.5067 40.4461 42.1138 40.0531 41.6296 40.0531Z" fill="#010181"/>
<path d="M41.6296 44.439H26.7173C26.2331 44.439 25.8401 44.832 25.8401 45.3162C25.8401 45.8004 26.2331 46.1933 26.7173 46.1933H41.6296C42.1138 46.1933 42.5068 45.8004 42.5068 45.3162C42.5068 44.832 42.1138 44.439 41.6296 44.439Z" fill="#010181"/>
<path d="M23.2085 44.439H20.5769C20.0927 44.439 19.6998 44.832 19.6998 45.3162C19.6998 45.8004 20.0927 46.1933 20.5769 46.1933H23.2085C23.6926 46.1933 24.0856 45.8004 24.0856 45.3162C24.0856 44.832 23.6926 44.439 23.2085 44.439Z" fill="#010181"/>
</svg>
