<svg width="13" height="13" viewBox="0 0 13 13" fill="none" xmlns="http://www.w3.org/2000/svg">
<path d="M7.24578 6.49689L12.8458 0.894743C12.9446 0.795518 13 0.661208 12.9999 0.52123C12.9998 0.381251 12.9442 0.247015 12.8453 0.147922C12.6473 -0.048976 12.2985 -0.0499703 12.0985 0.148917L6.50001 5.75106L0.899513 0.147425C0.700509 -0.048976 0.351753 -0.0479816 0.153743 0.148419C0.104595 0.197342 0.0656883 0.255558 0.0392939 0.31967C0.0128994 0.383782 -0.000454292 0.452505 1.17931e-05 0.52183C1.17931e-05 0.66304 0.0547381 0.795299 0.153743 0.893251L5.75374 6.49639L0.15424 12.1C0.0554274 12.1994 9.09185e-05 12.3339 0.000370725 12.474C0.000650532 12.6141 0.0565239 12.7484 0.155733 12.8474C0.251753 12.9423 0.387574 12.997 0.527872 12.997H0.530857C0.671653 12.9965 0.807474 12.9413 0.901503 12.8454L6.50001 7.24321L12.1005 12.8469C12.1995 12.9453 12.3318 13 12.4721 13C12.5415 13.0002 12.6102 12.9867 12.6744 12.9602C12.7385 12.9338 12.7968 12.8949 12.8458 12.8459C12.8949 12.7969 12.9338 12.7387 12.9602 12.6746C12.9867 12.6105 13.0002 12.5418 13 12.4725C13 12.3317 12.9453 12.199 12.8458 12.101L7.24578 6.49689Z" fill="#E30000"/>
</svg>
