<svg width="50" height="50" viewBox="0 0 50 50" fill="none" xmlns="http://www.w3.org/2000/svg">
<g filter="url(#filter0_d)">
<rect x="5" y="5" width="40" height="40" rx="8" fill="white"/>
</g>
<g clip-path="url(#clip0)">
<path d="M31.0033 31.7263C30.8663 31.7263 30.735 31.7807 30.6381 31.8775C30.5413 31.9744 30.4869 32.1057 30.4869 32.2427V32.9678H17.4738V30.6935H24.7549V31.0033C24.7549 31.1403 24.8093 31.2716 24.9062 31.3685C25.003 31.4653 25.1344 31.5197 25.2713 31.5197C25.4083 31.5197 25.5396 31.4653 25.6365 31.3685C25.7333 31.2716 25.7877 31.1403 25.7877 31.0033V17.7836C25.7877 17.6467 25.7333 17.5153 25.6365 17.4185C25.5396 17.3216 25.4083 17.2672 25.2713 17.2672C25.1344 17.2672 25.003 17.3216 24.9062 17.4185C24.8093 17.5153 24.7549 17.6467 24.7549 17.7836V18.0935H17.4738V16.2322H30.4869V16.4926C30.4869 16.6296 30.5413 16.7609 30.6381 16.8578C30.735 16.9546 30.8663 17.009 31.0033 17.009C31.1403 17.009 31.2716 16.9546 31.3684 16.8578C31.4653 16.7609 31.5197 16.6296 31.5197 16.4926V13.6525C31.5193 13.2965 31.3777 12.9552 31.126 12.7035C30.8743 12.4518 30.533 12.3102 30.1771 12.3098H17.7836C17.4276 12.3102 17.0864 12.4518 16.8347 12.7035C16.583 12.9552 16.4414 13.2965 16.441 13.6525V18.0935H13.6524C13.2965 18.0939 12.9552 18.2355 12.7035 18.4872C12.4518 18.7389 12.3102 19.0801 12.3098 19.4361V29.3509C12.3102 29.7068 12.4518 30.0481 12.7035 30.2998C12.9552 30.5515 13.2965 30.6931 13.6524 30.6935H16.441V36.7869C16.4414 37.1429 16.583 37.4842 16.8347 37.7359C17.0864 37.9876 17.4276 38.1291 17.7836 38.1296H30.1771C30.533 38.1291 30.8743 37.9876 31.126 37.7359C31.3777 37.4842 31.5193 37.1429 31.5197 36.7869V32.2427C31.5197 32.1057 31.4653 31.9744 31.3684 31.8775C31.2716 31.7807 31.1403 31.7263 31.0033 31.7263V31.7263ZM17.4738 13.6525C17.4738 13.5703 17.5065 13.4916 17.5646 13.4335C17.6227 13.3754 17.7014 13.3427 17.7836 13.3426H30.1771C30.2592 13.3427 30.338 13.3754 30.3961 13.4335C30.4541 13.4916 30.4868 13.5703 30.4869 13.6525V15.1994H17.4738V13.6525ZM13.3426 21.1918H24.7549V21.8631H13.3426V21.1918ZM13.6524 19.1262H24.7549V20.159H13.3426V19.4361C13.3427 19.3539 13.3754 19.2752 13.4334 19.2171C13.4915 19.159 13.5703 19.1263 13.6524 19.1262V19.1262ZM13.3426 29.3509V22.8959H24.7549V29.6607H13.6524C13.5703 29.6606 13.4915 29.6279 13.4334 29.5699C13.3754 29.5118 13.3427 29.433 13.3426 29.3509V29.3509ZM30.4869 36.7869C30.4868 36.8691 30.4541 36.9478 30.3961 37.0059C30.338 37.064 30.2592 37.0967 30.1771 37.0968H17.7836C17.7014 37.0967 17.6227 37.064 17.5646 37.0059C17.5065 36.9478 17.4738 36.8691 17.4738 36.7869V34.0006H30.4869V36.7869Z" fill="#010181"/>
<path d="M22.6938 36.0651H25.3252C25.4621 36.0651 25.5935 36.0107 25.6903 35.9138C25.7872 35.817 25.8416 35.6856 25.8416 35.5487C25.8416 35.4117 25.7872 35.2804 25.6903 35.1835C25.5935 35.0867 25.4621 35.0323 25.3252 35.0323H22.6938C22.5569 35.0323 22.4255 35.0867 22.3287 35.1835C22.2318 35.2804 22.1774 35.4117 22.1774 35.5487C22.1774 35.6856 22.2318 35.817 22.3287 35.9138C22.4255 36.0107 22.5569 36.0651 22.6938 36.0651V36.0651Z" fill="#010181"/>
<path d="M14.4787 26.5623H20.3656C20.5025 26.5623 20.6339 26.5079 20.7307 26.4111C20.8276 26.3142 20.882 26.1829 20.882 26.0459V24.3935C20.882 24.2565 20.8276 24.1252 20.7307 24.0283C20.6339 23.9315 20.5025 23.8771 20.3656 23.8771H14.4787C14.3417 23.8771 14.2104 23.9315 14.1135 24.0283C14.0167 24.1252 13.9623 24.2565 13.9623 24.3935V26.0459C13.9623 26.1829 14.0167 26.3142 14.1135 26.4111C14.2104 26.5079 14.3417 26.5623 14.4787 26.5623V26.5623ZM14.9951 24.9099H19.8492V25.5295H14.9951V24.9099Z" fill="#010181"/>
<path d="M19.2295 28.0599C19.2295 27.9229 19.1751 27.7916 19.0783 27.6947C18.9814 27.5979 18.8501 27.5435 18.7131 27.5435H14.5303C14.3934 27.5435 14.262 27.5979 14.1652 27.6947C14.0683 27.7916 14.0139 27.9229 14.0139 28.0599C14.0139 28.1968 14.0683 28.3282 14.1652 28.425C14.262 28.5219 14.3934 28.5763 14.5303 28.5763H18.7131C18.8501 28.5763 18.9814 28.5219 19.0783 28.425C19.1751 28.3282 19.2295 28.1968 19.2295 28.0599Z" fill="#010181"/>
<path d="M30.2209 28.2361C30.3578 28.2361 30.4892 28.1817 30.586 28.0849C30.6828 27.988 30.7373 27.8567 30.7373 27.7197V27.4066C31.184 27.3798 31.6037 27.1835 31.9108 26.8579C32.2179 26.5322 32.3892 26.1017 32.3897 25.6541V25.6025C32.3892 25.137 32.204 24.6907 31.8749 24.3616C31.5457 24.0324 31.0995 23.8473 30.634 23.8468H29.7561C29.5644 23.8468 29.3805 23.7706 29.2449 23.635C29.1093 23.4994 29.0332 23.3155 29.0332 23.1238C29.0332 22.9321 29.1093 22.7482 29.2449 22.6126C29.3805 22.477 29.5644 22.4009 29.7561 22.4009H31.0373C31.0757 22.4009 31.1137 22.4087 31.1489 22.4238C31.1842 22.4388 31.2161 22.4609 31.2426 22.4886C31.2692 22.5163 31.2898 22.5491 31.3033 22.585C31.3169 22.6209 31.323 22.6592 31.3213 22.6975C31.3179 22.7656 31.328 22.8337 31.3509 22.8978C31.3739 22.962 31.4094 23.0209 31.4553 23.0713C31.5012 23.1217 31.5566 23.1625 31.6183 23.1914C31.68 23.2203 31.7468 23.2366 31.8149 23.2396C31.883 23.2425 31.951 23.2319 32.015 23.2084C32.079 23.1849 32.1376 23.149 32.1877 23.1028C32.2377 23.0565 32.2781 23.0008 32.3065 22.9388C32.3349 22.8769 32.3508 22.8099 32.3532 22.7418C32.3608 22.5643 32.3324 22.387 32.2697 22.2207C32.207 22.0544 32.1113 21.9025 31.9883 21.7742C31.8654 21.6458 31.7177 21.5437 31.5543 21.4739C31.3908 21.4042 31.2149 21.3682 31.0372 21.3682H30.7371V21.0584C30.7371 20.9214 30.6827 20.7901 30.5859 20.6932C30.489 20.5964 30.3577 20.542 30.2207 20.542C30.0838 20.542 29.9524 20.5964 29.8556 20.6932C29.7587 20.7901 29.7043 20.9214 29.7043 21.0584V21.3695C29.2435 21.3832 28.8066 21.5776 28.4879 21.9108C28.1692 22.2439 27.9944 22.6891 28.0012 23.15C28.0079 23.611 28.1958 24.0508 28.5241 24.3745C28.8525 24.6981 29.2949 24.8796 29.756 24.8797H30.6338C30.8255 24.8799 31.0093 24.9562 31.1448 25.0917C31.2803 25.2272 31.3566 25.411 31.3568 25.6027V25.6543C31.3566 25.846 31.2803 26.0297 31.1448 26.1653C31.0093 26.3008 30.8255 26.377 30.6338 26.3772H29.332C29.2942 26.3773 29.2569 26.3697 29.2221 26.3552C29.1872 26.3406 29.1557 26.3192 29.1292 26.2923C29.1027 26.2653 29.0819 26.2334 29.0679 26.1984C29.0539 26.1633 29.047 26.1258 29.0477 26.0881L29.0487 26.0345C29.0499 25.9667 29.0378 25.8993 29.013 25.8361C28.9882 25.773 28.9512 25.7154 28.9041 25.6665C28.8571 25.6177 28.8008 25.5786 28.7387 25.5515C28.6765 25.5244 28.6096 25.5098 28.5418 25.5086C28.4739 25.5073 28.4065 25.5194 28.3434 25.5442C28.2803 25.569 28.2227 25.606 28.1738 25.6531C28.125 25.7002 28.0859 25.7564 28.0588 25.8186C28.0317 25.8807 28.0171 25.9476 28.0159 26.0155L28.0149 26.0692C28.0117 26.2442 28.0434 26.418 28.1082 26.5805C28.1729 26.7431 28.2694 26.8911 28.392 27.0159C28.5146 27.1408 28.6608 27.2399 28.8222 27.3076C28.9835 27.3753 29.1567 27.4102 29.3317 27.4102H29.704V27.7201C29.7041 27.7879 29.7175 27.8551 29.7435 27.9177C29.7695 27.9803 29.8075 28.0372 29.8555 28.0852C29.9035 28.1331 29.9605 28.1711 30.0232 28.197C30.0859 28.2229 30.153 28.2362 30.2209 28.2361V28.2361Z" fill="#010181"/>
<path d="M34.7825 18.1328H31.0718C30.9348 18.1328 30.8035 18.1872 30.7066 18.284C30.6098 18.3808 30.5554 18.5122 30.5554 18.6492C30.5554 18.7861 30.6098 18.9175 30.7066 19.0143C30.8035 19.1111 30.9348 19.1655 31.0718 19.1655H34.7825L34.0115 19.9364C33.9636 19.9844 33.9255 20.0413 33.8996 20.104C33.8736 20.1666 33.8603 20.2338 33.8603 20.3016C33.8603 20.3694 33.8737 20.4366 33.8996 20.4993C33.9256 20.5619 33.9636 20.6189 34.0116 20.6668C34.0596 20.7148 34.1165 20.7528 34.1791 20.7787C34.2418 20.8047 34.309 20.8181 34.3768 20.818C34.4446 20.818 34.5118 20.8047 34.5744 20.7787C34.6371 20.7528 34.694 20.7147 34.742 20.6668L36.3944 19.0143C36.4424 18.9663 36.4804 18.9094 36.5064 18.8468C36.5324 18.7841 36.5457 18.7169 36.5457 18.6491C36.5457 18.5813 36.5324 18.5142 36.5064 18.4515C36.4804 18.3888 36.4424 18.3319 36.3944 18.284L34.742 16.6315C34.6451 16.5347 34.5138 16.4803 34.3768 16.4803C34.2399 16.4803 34.1085 16.5347 34.0117 16.6315C33.9148 16.7284 33.8604 16.8597 33.8604 16.9967C33.8604 17.1336 33.9148 17.265 34.0117 17.3618L34.7825 18.1328Z" fill="#010181"/>
<path d="M29.0062 19.1655C29.1431 19.1655 29.2745 19.1111 29.3713 19.0143C29.4682 18.9174 29.5226 18.7861 29.5226 18.6491C29.5226 18.5122 29.4682 18.3808 29.3713 18.284C29.2745 18.1872 29.1431 18.1328 29.0062 18.1328H28.5931C28.4561 18.1328 28.3248 18.1872 28.2279 18.284C28.1311 18.3808 28.0767 18.5122 28.0767 18.6491C28.0767 18.7861 28.1311 18.9174 28.2279 19.0143C28.3248 19.1111 28.4561 19.1655 28.5931 19.1655H29.0062Z" fill="#010181"/>
<path d="M34.725 28.1595C34.628 28.0633 34.4969 28.0095 34.3603 28.0098C34.2237 28.0101 34.0929 28.0645 33.9963 28.1611C33.8997 28.2576 33.8453 28.3885 33.845 28.5251C33.8447 28.6617 33.8985 28.7928 33.9947 28.8898L34.7656 29.6607H31.0549C30.918 29.6607 30.7866 29.7151 30.6898 29.8119C30.5929 29.9088 30.5385 30.0401 30.5385 30.1771C30.5385 30.314 30.5929 30.4454 30.6898 30.5422C30.7866 30.6391 30.918 30.6935 31.0549 30.6935H34.7656L33.9947 31.4644C33.9464 31.5123 33.908 31.5692 33.8818 31.632C33.8556 31.6947 33.842 31.762 33.8418 31.83C33.8417 31.898 33.855 31.9654 33.8809 32.0282C33.9069 32.0911 33.945 32.1482 33.9931 32.1963C34.0412 32.2444 34.0983 32.2825 34.1611 32.3085C34.224 32.3344 34.2914 32.3477 34.3594 32.3476C34.4274 32.3474 34.4947 32.3338 34.5574 32.3076C34.6202 32.2814 34.6771 32.243 34.725 32.1947L36.3774 30.5422C36.4743 30.4454 36.5287 30.314 36.5287 30.1771C36.5287 30.0401 36.4743 29.9088 36.3774 29.8119L34.725 28.1595Z" fill="#010181"/>
<path d="M28.5763 29.6607C28.4393 29.6607 28.308 29.7151 28.2111 29.8119C28.1143 29.9088 28.0599 30.0401 28.0599 30.1771C28.0599 30.314 28.1143 30.4454 28.2111 30.5422C28.308 30.6391 28.4393 30.6935 28.5763 30.6935H28.9894C29.1263 30.6935 29.2577 30.6391 29.3545 30.5422C29.4514 30.4454 29.5058 30.314 29.5058 30.1771C29.5058 30.0401 29.4514 29.9088 29.3545 29.8119C29.2577 29.7151 29.1263 29.6607 28.9894 29.6607H28.5763Z" fill="#010181"/>
</g>
<defs>
<filter id="filter0_d" x="0" y="0" width="50" height="50" filterUnits="userSpaceOnUse" color-interpolation-filters="sRGB">
<feFlood flood-opacity="0" result="BackgroundImageFix"/>
<feColorMatrix in="SourceAlpha" type="matrix" values="0 0 0 0 0 0 0 0 0 0 0 0 0 0 0 0 0 0 127 0"/>
<feMorphology radius="1" operator="dilate" in="SourceAlpha" result="effect1_dropShadow"/>
<feOffset/>
<feGaussianBlur stdDeviation="2"/>
<feColorMatrix type="matrix" values="0 0 0 0 0 0 0 0 0 0 0 0 0 0 0 0 0 0 0.25 0"/>
<feBlend mode="normal" in2="BackgroundImageFix" result="effect1_dropShadow"/>
<feBlend mode="normal" in="SourceGraphic" in2="effect1_dropShadow" result="shape"/>
</filter>
<clipPath id="clip0">
<rect width="26.4394" height="26.4394" fill="white" transform="translate(12 12)"/>
</clipPath>
</defs>
</svg>
