<svg width="47" height="51" viewBox="0 0 47 51" fill="none" xmlns="http://www.w3.org/2000/svg">
<path d="M36.2569 38.3886C35.9917 38.3886 35.7374 38.494 35.5498 38.6815C35.3623 38.8691 35.2569 39.1234 35.2569 39.3886V40.7929H10.0569V36.3886H24.1569V36.9886C24.1569 37.2539 24.2623 37.5082 24.4498 37.6957C24.6374 37.8833 24.8917 37.9886 25.1569 37.9886C25.4222 37.9886 25.6765 37.8833 25.8641 37.6957C26.0516 37.5082 26.1569 37.2539 26.1569 36.9886V11.3886C26.1569 11.1234 26.0516 10.8691 25.8641 10.6815C25.6765 10.494 25.4222 10.3886 25.1569 10.3886C24.8917 10.3886 24.6374 10.494 24.4498 10.6815C24.2623 10.8691 24.1569 11.1234 24.1569 11.3886V11.9886H10.0569V8.38434H35.2569V8.88864C35.2569 9.15385 35.3623 9.40821 35.5498 9.59574C35.7374 9.78328 35.9917 9.88864 36.2569 9.88864C36.5222 9.88864 36.7765 9.78328 36.9641 9.59574C37.1516 9.40821 37.2569 9.15385 37.2569 8.88864V3.38864C37.2562 2.69932 36.982 2.03846 36.4945 1.55103C36.0071 1.06361 35.3463 0.789429 34.6569 0.788635H10.6569C9.96763 0.789429 9.30677 1.06361 8.81935 1.55103C8.33192 2.03846 8.05774 2.69932 8.05695 3.38864V11.9886H2.65695C1.96763 11.9894 1.30677 12.2636 0.819345 12.751C0.331923 13.2385 0.0577398 13.8993 0.0569458 14.5886V33.7886C0.0577398 34.478 0.331923 35.1388 0.819345 35.6262C1.30677 36.1137 1.96763 36.3878 2.65695 36.3886H8.05695V48.1886C8.05774 48.878 8.33192 49.5388 8.81935 50.0262C9.30677 50.5137 9.96763 50.7878 10.6569 50.7886H34.6569C35.3463 50.7878 36.0071 50.5137 36.4945 50.0262C36.982 49.5388 37.2562 48.878 37.2569 48.1886V39.3886C37.2569 39.1234 37.1516 38.8691 36.9641 38.6815C36.7765 38.494 36.5222 38.3886 36.2569 38.3886V38.3886ZM10.0569 3.38864C10.0571 3.22955 10.1204 3.07703 10.2329 2.96455C10.3453 2.85206 10.4979 2.78879 10.6569 2.78864H34.6569C34.816 2.78879 34.9685 2.85206 35.081 2.96455C35.1935 3.07703 35.2568 3.22955 35.2569 3.38864V6.38434H10.0569V3.38864ZM2.05695 17.9886H24.1569V19.2886H2.05695V17.9886ZM2.65695 13.9886H24.1569V15.9886H2.05695V14.5886C2.0571 14.4296 2.12037 14.277 2.23286 14.1645C2.34534 14.0521 2.49786 13.9888 2.65695 13.9886V13.9886ZM2.05695 33.7886V21.2886H24.1569V34.3886H2.65695C2.49786 34.3885 2.34534 34.3252 2.23286 34.2127C2.12037 34.1002 2.0571 33.9477 2.05695 33.7886V33.7886ZM35.2569 48.1886C35.2568 48.3477 35.1935 48.5002 35.081 48.6127C34.9685 48.7252 34.816 48.7885 34.6569 48.7886H10.6569C10.4979 48.7885 10.3453 48.7252 10.2329 48.6127C10.1204 48.5002 10.0571 48.3477 10.0569 48.1886V42.7929H35.2569V48.1886Z" fill="#010181"/>
<path d="M20.1656 46.7907H25.2612C25.5265 46.7907 25.7808 46.6854 25.9684 46.4978C26.1559 46.3103 26.2612 46.056 26.2612 45.7907C26.2612 45.5255 26.1559 45.2712 25.9684 45.0836C25.7808 44.8961 25.5265 44.7907 25.2612 44.7907H20.1656C19.9004 44.7907 19.6461 44.8961 19.4585 45.0836C19.271 45.2712 19.1656 45.5255 19.1656 45.7907C19.1656 46.056 19.271 46.3103 19.4585 46.4978C19.6461 46.6854 19.9004 46.7907 20.1656 46.7907V46.7907Z" fill="#010181"/>
<path d="M4.2569 28.3886H15.6569C15.9221 28.3886 16.1765 28.2833 16.364 28.0957C16.5515 27.9082 16.6569 27.6539 16.6569 27.3886V24.1886C16.6569 23.9234 16.5515 23.6691 16.364 23.4815C16.1765 23.294 15.9221 23.1886 15.6569 23.1886H4.2569C3.99168 23.1886 3.73733 23.294 3.54979 23.4815C3.36225 23.6691 3.2569 23.9234 3.2569 24.1886V27.3886C3.2569 27.6539 3.36225 27.9082 3.54979 28.0957C3.73733 28.2833 3.99168 28.3886 4.2569 28.3886V28.3886ZM5.2569 25.1886H14.6569V26.3886H5.2569V25.1886Z" fill="#010181"/>
<path d="M13.4569 31.2886C13.4569 31.0234 13.3516 30.7691 13.164 30.5815C12.9765 30.394 12.7222 30.2886 12.4569 30.2886H4.35693C4.09172 30.2886 3.83736 30.394 3.64983 30.5815C3.46229 30.7691 3.35693 31.0234 3.35693 31.2886C3.35693 31.5539 3.46229 31.8082 3.64983 31.9957C3.83736 32.1833 4.09172 32.2886 4.35693 32.2886H12.4569C12.7222 32.2886 12.9765 32.1833 13.164 31.9957C13.3516 31.8082 13.4569 31.5539 13.4569 31.2886Z" fill="#010181"/>
<path d="M34.7417 31.6299C35.007 31.6299 35.2613 31.5246 35.4489 31.337C35.6364 31.1495 35.7417 30.8952 35.7417 30.6299V30.0235C36.6069 29.9716 37.4197 29.5916 38.0143 28.961C38.609 28.3304 38.9407 27.4967 38.9417 26.6299V26.5299C38.9407 25.6285 38.5822 24.7643 37.9448 24.1269C37.3074 23.4895 36.4432 23.131 35.5417 23.1299H33.8418C33.4704 23.1299 33.1144 22.9824 32.8518 22.7199C32.5893 22.4573 32.4418 22.1012 32.4418 21.7299C32.4418 21.3586 32.5893 21.0025 32.8518 20.74C33.1144 20.4774 33.4704 20.3299 33.8418 20.3299H36.3228C36.3971 20.33 36.4707 20.3451 36.539 20.3743C36.6073 20.4035 36.669 20.4462 36.7204 20.4999C36.7718 20.5535 36.8118 20.617 36.838 20.6866C36.8642 20.7561 36.876 20.8302 36.8728 20.9044C36.8662 21.0362 36.8857 21.1681 36.9302 21.2923C36.9747 21.4165 37.0433 21.5307 37.1322 21.6283C37.221 21.7259 37.3283 21.8049 37.4479 21.8608C37.5674 21.9167 37.6968 21.9484 37.8287 21.9541C37.9605 21.9597 38.0922 21.9392 38.2161 21.8938C38.3399 21.8483 38.4536 21.7788 38.5505 21.6892C38.6474 21.5996 38.7256 21.4917 38.7806 21.3717C38.8356 21.2518 38.8663 21.1221 38.8709 20.9902C38.8857 20.6464 38.8307 20.3031 38.7093 19.9811C38.5879 19.659 38.4026 19.3649 38.1645 19.1163C37.9264 18.8678 37.6404 18.6701 37.3239 18.535C37.0073 18.3999 36.6667 18.3302 36.3225 18.3302H35.7414V17.7302C35.7414 17.465 35.6361 17.2107 35.4486 17.0231C35.261 16.8356 35.0067 16.7302 34.7415 16.7302C34.4762 16.7302 34.2219 16.8356 34.0343 17.0231C33.8468 17.2107 33.7415 17.465 33.7415 17.7302V18.3327C32.8491 18.3593 32.0029 18.7358 31.3858 19.3809C30.7687 20.0261 30.4302 20.8881 30.4433 21.7807C30.4564 22.6734 30.8202 23.5251 31.456 24.1518C32.0918 24.7785 32.9487 25.13 33.8415 25.1302H35.5414C35.9126 25.1307 36.2685 25.2783 36.5309 25.5408C36.7934 25.8032 36.941 26.1591 36.9414 26.5302V26.6302C36.941 27.0014 36.7934 27.3573 36.5309 27.6197C36.2685 27.8822 35.9126 28.0298 35.5414 28.0302H33.0205C32.9474 28.0302 32.875 28.0157 32.8076 27.9874C32.7401 27.9592 32.679 27.9178 32.6278 27.8657C32.5765 27.8135 32.5362 27.7517 32.509 27.6838C32.4819 27.6159 32.4686 27.5433 32.4699 27.4702L32.4718 27.3664C32.4742 27.2351 32.4507 27.1046 32.4027 26.9824C32.3547 26.8601 32.283 26.7485 32.1919 26.6539C32.1007 26.5594 31.9918 26.4837 31.8714 26.4312C31.751 26.3787 31.6215 26.3505 31.4902 26.348C31.3588 26.3456 31.2283 26.3691 31.1061 26.4171C30.9838 26.4651 30.8722 26.5368 30.7777 26.6279C30.6831 26.7191 30.6074 26.828 30.5549 26.9484C30.5024 27.0688 30.4742 27.1983 30.4718 27.3296L30.4699 27.4337C30.4637 27.7725 30.5251 28.1091 30.6505 28.4239C30.7759 28.7387 30.9628 29.0253 31.2002 29.267C31.4376 29.5088 31.7207 29.7008 32.0332 29.832C32.3456 29.9631 32.681 30.0306 33.0199 30.0306H33.7409V30.6306C33.7409 30.762 33.7669 30.892 33.8173 31.0133C33.8676 31.1346 33.9414 31.2448 34.0343 31.3376C34.1273 31.4304 34.2376 31.504 34.359 31.5541C34.4803 31.6043 34.6104 31.6301 34.7417 31.6299V31.6299Z" fill="#010181"/>
<path d="M43.5753 12.0647H36.3895C36.1243 12.0647 35.87 12.1701 35.6824 12.3576C35.4949 12.5452 35.3895 12.7995 35.3895 13.0647C35.3895 13.33 35.4949 13.5843 35.6824 13.7718C35.87 13.9594 36.1243 14.0647 36.3895 14.0647H43.5753L42.0824 15.5575C41.9896 15.6504 41.9159 15.7607 41.8656 15.882C41.8154 16.0034 41.7895 16.1334 41.7895 16.2648C41.7896 16.3961 41.8154 16.5261 41.8657 16.6475C41.916 16.7688 41.9897 16.8791 42.0825 16.9719C42.1754 17.0648 42.2857 17.1385 42.407 17.1887C42.5284 17.239 42.6584 17.2648 42.7897 17.2648C42.9211 17.2648 43.0511 17.2389 43.1725 17.1887C43.2938 17.1384 43.4041 17.0647 43.4969 16.9718L46.6969 13.7718C46.7898 13.679 46.8635 13.5687 46.9137 13.4474C46.964 13.3261 46.9899 13.196 46.9899 13.0647C46.9899 12.9334 46.964 12.8033 46.9137 12.682C46.8635 12.5606 46.7898 12.4504 46.6969 12.3575L43.4969 9.15754C43.3094 8.97 43.055 8.86465 42.7898 8.86466C42.5246 8.86467 42.2702 8.97004 42.0827 9.15759C41.8951 9.34514 41.7898 9.5995 41.7898 9.86472C41.7898 10.1299 41.8952 10.3843 42.0827 10.5718L43.5753 12.0647Z" fill="#010181"/>
<path d="M32.3895 14.0647C32.6548 14.0647 32.9091 13.9594 33.0966 13.7718C33.2842 13.5843 33.3895 13.33 33.3895 13.0647C33.3895 12.7995 33.2842 12.5452 33.0966 12.3576C32.9091 12.1701 32.6548 12.0647 32.3895 12.0647H31.5895C31.3243 12.0647 31.07 12.1701 30.8824 12.3576C30.6949 12.5452 30.5895 12.7995 30.5895 13.0647C30.5895 13.33 30.6949 13.5843 30.8824 13.7718C31.07 13.9594 31.3243 14.0647 31.5895 14.0647H32.3895Z" fill="#010181"/>
<path d="M43.4641 31.4815C43.2763 31.2954 43.0224 31.1912 42.7579 31.1917C42.4934 31.1923 42.24 31.2976 42.053 31.4846C41.866 31.6716 41.7607 31.9251 41.7601 32.1895C41.7595 32.454 41.8637 32.7079 42.0499 32.8957L43.5428 34.3886H36.357C36.0918 34.3886 35.8374 34.494 35.6499 34.6815C35.4624 34.8691 35.357 35.1234 35.357 35.3886C35.357 35.6539 35.4624 35.9082 35.6499 36.0958C35.8374 36.2833 36.0918 36.3887 36.357 36.3887H43.5428L42.0499 37.8816C41.9564 37.9743 41.8821 38.0845 41.8313 38.206C41.7805 38.3275 41.7542 38.4579 41.7539 38.5896C41.7536 38.7213 41.7793 38.8517 41.8296 38.9734C41.8799 39.0951 41.9537 39.2057 42.0468 39.2989C42.1399 39.392 42.2505 39.4658 42.3722 39.5161C42.494 39.5663 42.6244 39.592 42.7561 39.5918C42.8878 39.5915 43.0181 39.5652 43.1396 39.5144C43.2611 39.4636 43.3714 39.3893 43.4641 39.2958L46.6641 36.0958C46.8516 35.9082 46.957 35.6539 46.957 35.3886C46.957 35.1234 46.8516 34.8691 46.6641 34.6815L43.4641 31.4815Z" fill="#010181"/>
<path d="M31.5569 34.3886C31.2917 34.3886 31.0374 34.494 30.8498 34.6815C30.6623 34.8691 30.5569 35.1234 30.5569 35.3886C30.5569 35.6539 30.6623 35.9082 30.8498 36.0957C31.0374 36.2833 31.2917 36.3886 31.5569 36.3886H32.3569C32.6222 36.3886 32.8765 36.2833 33.0641 36.0957C33.2516 35.9082 33.3569 35.6539 33.3569 35.3886C33.3569 35.1234 33.2516 34.8691 33.0641 34.6815C32.8765 34.494 32.6222 34.3886 32.3569 34.3886H31.5569Z" fill="#010181"/>
</svg>
