<svg width="44" height="51" viewBox="0 0 44 51" fill="none" xmlns="http://www.w3.org/2000/svg">
<path d="M21.9883 34.2061C19.7302 34.2061 17.822 33.0612 17.822 31.7064H16.1555C16.1555 33.8396 18.2936 35.5459 21.155 35.8275V38.3724H22.8215V35.8275C25.683 35.5459 27.8211 33.8396 27.8211 31.7064C27.8211 29.3734 25.2591 27.5401 21.9883 27.5401C19.7302 27.5401 17.822 26.3952 17.822 25.0403C17.822 23.6855 19.7302 22.5406 21.9883 22.5406C24.2464 22.5406 26.1546 23.6855 26.1546 25.0403H27.8211C27.8211 22.9072 25.683 21.2008 22.8215 20.9192V18.3743H21.155V20.9192C18.2936 21.2008 16.1555 22.9072 16.1555 25.0403C16.1555 27.3733 18.7179 29.2066 21.9883 29.2066C24.2464 29.2066 26.1546 30.3515 26.1546 31.7064C26.1546 33.0612 24.2464 34.2061 21.9883 34.2061Z" fill="#010181"/>
<path d="M21.9883 41.7054C29.3517 41.7054 35.3204 35.7363 35.3204 28.3734C35.3204 21.0104 29.3517 15.0413 21.9883 15.0413C14.6253 15.0413 8.65619 21.0104 8.65619 28.3734C8.66514 35.7327 14.6289 41.6969 21.9883 41.7054ZM21.9883 16.7078C28.4309 16.7078 33.6538 21.9307 33.6538 28.3734C33.6538 34.816 28.4309 40.0389 21.9883 40.0389C15.5456 40.0389 10.3227 34.816 10.3227 28.3734C10.3296 21.9335 15.5484 16.7147 21.9883 16.7078Z" fill="#010181"/>
<path d="M22.8216 6.72948V5.04222H26.1546C27.5355 5.04222 28.6544 3.92294 28.6544 2.54246C28.6544 1.16197 27.5355 0.0426941 26.1546 0.0426941H17.8221C16.4416 0.0426941 15.3223 1.16197 15.3223 2.54246C15.3223 3.92294 16.4416 5.04222 17.8221 5.04222H21.1551V10.875H22.8216V8.39599C27.5453 8.58966 32.046 10.4572 35.5198 13.6641L33.7699 15.4136L34.9481 16.5918L36.6981 14.8423C39.905 18.3157 41.772 22.8164 41.9657 27.5401H39.4867V29.2066H41.9657C41.772 33.9303 39.905 38.431 36.6981 41.9044L34.9481 40.1549L33.7699 41.3332L35.5198 43.0827C32.046 46.2896 27.5453 48.1571 22.8216 48.3507V45.8717H21.1551V48.3507C16.4318 48.1571 11.9307 46.2896 8.45731 43.0827L10.2072 41.3332L9.02895 40.1549L7.27904 41.9044C4.07215 38.431 2.20505 33.9303 2.01139 29.2066H4.48999V27.5401H2.01464C2.21604 22.1419 4.61571 17.0605 8.65627 13.4757V18.3743H10.3228V10.875H2.82348V12.5415H7.20255C2.7946 16.6236 0.299714 22.366 0.323719 28.3734C0.321278 40.2306 9.85122 49.887 21.7076 50.0408C33.5636 50.1946 43.3409 40.7888 43.6461 28.9352C43.9508 17.0821 34.6703 7.18558 22.8216 6.72948V6.72948ZM16.9888 2.54246C16.9888 2.0823 17.3619 1.7092 17.8221 1.7092H26.1546C26.6148 1.7092 26.9879 2.0823 26.9879 2.54246C26.9879 3.00262 26.6148 3.37571 26.1546 3.37571H17.8221C17.3619 3.37571 16.9888 3.00262 16.9888 2.54246Z" fill="#010181"/>
</svg>
