<svg width="50" height="50" viewBox="0 0 50 50" fill="none" xmlns="http://www.w3.org/2000/svg">
<g filter="url(#filter0_d)">
<rect x="5" y="5" width="40" height="40" rx="8" fill="white"/>
</g>
<g clip-path="url(#clip0)">
<path d="M25.06 29.8492C23.7902 29.8492 22.7171 29.2175 22.7171 28.47H21.78C21.78 29.6469 22.9823 30.5884 24.5914 30.7437V32.1478H25.5286V30.7437C27.1377 30.5884 28.34 29.6469 28.34 28.47C28.34 27.1828 26.8993 26.1713 25.06 26.1713C23.7902 26.1713 22.7171 25.5396 22.7171 24.7921C22.7171 24.0446 23.7902 23.4129 25.06 23.4129C26.3298 23.4129 27.4029 24.0446 27.4029 24.7921H28.34C28.34 23.6151 27.1377 22.6737 25.5286 22.5183V21.1142H24.5914V22.5183C22.9823 22.6737 21.78 23.6151 21.78 24.7921C21.78 26.0792 23.2209 27.0908 25.06 27.0908C26.3298 27.0908 27.4029 27.7224 27.4029 28.47C27.4029 29.2175 26.3298 29.8492 25.06 29.8492Z" fill="#010181"/>
<path d="M25.06 33.9868C29.2008 33.9868 32.5573 30.6934 32.5573 26.631C32.5573 22.5686 29.2008 19.2752 25.06 19.2752C20.9195 19.2752 17.5628 22.5686 17.5628 26.631C17.5678 30.6914 20.9216 33.9821 25.06 33.9868ZM25.06 20.1947C28.683 20.1947 31.6201 23.0764 31.6201 26.631C31.6201 30.1857 28.683 33.0673 25.06 33.0673C21.437 33.0673 18.5 30.1857 18.5 26.631C18.5038 23.0779 21.4386 20.1985 25.06 20.1947Z" fill="#010181"/>
<path d="M25.5286 14.6893V13.7584H27.4029C28.1795 13.7584 28.8087 13.1409 28.8087 12.3792C28.8087 11.6175 28.1795 11 27.4029 11H22.7172C21.9409 11 21.3114 11.6175 21.3114 12.3792C21.3114 13.1409 21.9409 13.7584 22.7172 13.7584H24.5915V16.9766H25.5286V15.6088C28.185 15.7157 30.7159 16.746 32.6694 18.5154L31.6853 19.4806L32.3479 20.1307L33.332 19.1655C35.1354 21.0819 36.1853 23.5651 36.2942 26.1713H34.9002V27.0908H36.2942C36.1853 29.697 35.1354 32.1802 33.332 34.0966L32.3479 33.1313L31.6853 33.7814L32.6694 34.7467C30.7159 36.516 28.185 37.5464 25.5286 37.6532V36.2855H24.5915V37.6532C21.9354 37.5464 19.4042 36.516 17.4509 34.7467L18.435 33.7814L17.7724 33.1313L16.7883 34.0966C14.985 32.1802 13.935 29.697 13.8261 27.0908H15.2199V26.1713H13.8279C13.9412 23.1929 15.2906 20.3893 17.5628 18.4114V21.1142H18.5V16.9766H14.2828V17.896H16.7453C14.2665 20.1482 12.8636 23.3166 12.877 26.631C12.8757 33.173 18.2348 38.5009 24.9022 38.5857C31.5693 38.6706 37.0676 33.481 37.2392 26.941C37.4105 20.4012 32.1917 14.941 25.5286 14.6893V14.6893ZM22.2486 12.3792C22.2486 12.1253 22.4584 11.9195 22.7172 11.9195H27.4029C27.6617 11.9195 27.8715 12.1253 27.8715 12.3792C27.8715 12.6331 27.6617 12.8389 27.4029 12.8389H22.7172C22.4584 12.8389 22.2486 12.6331 22.2486 12.3792Z" fill="#010181"/>
</g>
<defs>
<filter id="filter0_d" x="0" y="0" width="50" height="50" filterUnits="userSpaceOnUse" color-interpolation-filters="sRGB">
<feFlood flood-opacity="0" result="BackgroundImageFix"/>
<feColorMatrix in="SourceAlpha" type="matrix" values="0 0 0 0 0 0 0 0 0 0 0 0 0 0 0 0 0 0 127 0"/>
<feMorphology radius="1" operator="dilate" in="SourceAlpha" result="effect1_dropShadow"/>
<feOffset/>
<feGaussianBlur stdDeviation="2"/>
<feColorMatrix type="matrix" values="0 0 0 0 0 0 0 0 0 0 0 0 0 0 0 0 0 0 0.25 0"/>
<feBlend mode="normal" in2="BackgroundImageFix" result="effect1_dropShadow"/>
<feBlend mode="normal" in="SourceGraphic" in2="effect1_dropShadow" result="shape"/>
</filter>
<clipPath id="clip0">
<rect width="28.1173" height="27.5868" fill="white" transform="translate(11 11)"/>
</clipPath>
</defs>
</svg>
