<svg width="30" height="30" viewBox="0 0 30 30" fill="none" xmlns="http://www.w3.org/2000/svg">
<path d="M2.80062 4.68758H25.3104V0.468848C25.3104 0.400618 25.2955 0.333207 25.2668 0.271324C25.238 0.20944 25.1961 0.154576 25.144 0.110564C25.0918 0.0665509 25.0306 0.0344505 24.9648 0.0165046C24.8989 -0.00144139 24.83 -0.00480034 24.7627 0.00666234L2.72183 3.75665C2.61268 3.77524 2.51362 3.83185 2.44221 3.91644C2.3708 4.00103 2.33164 4.10815 2.33167 4.21884V4.77383C2.48185 4.71831 2.6405 4.68913 2.80062 4.68758Z" fill="#010181"/>
<path d="M22.0277 10.3126H28.1241V6.09384C28.1241 5.96952 28.0747 5.85029 27.9868 5.76238C27.8988 5.67448 27.7795 5.62509 27.6552 5.62509H2.80062C2.67624 5.62509 2.55696 5.67448 2.46902 5.76238C2.38107 5.85029 2.33167 5.96952 2.33167 6.09384V18.6563C3.33453 18.0779 4.47215 17.7737 5.63 17.7745C6.78785 17.7753 7.92506 18.0809 8.92716 18.6607C9.92925 19.2405 10.7609 20.0739 11.3383 21.077C11.9157 22.0802 12.2185 23.2177 12.2163 24.375C12.2163 24.5335 12.2036 24.6882 12.1924 24.8438H27.6552C27.7795 24.8438 27.8988 24.7944 27.9868 24.7065C28.0747 24.6186 28.1241 24.4994 28.1241 24.375V19.6875H22.0277C21.6546 19.6875 21.2968 19.5394 21.0329 19.2757C20.7691 19.0119 20.6209 18.6543 20.6209 18.2813V11.7188C20.6209 11.3459 20.7691 10.9882 21.0329 10.7245C21.2968 10.4607 21.6546 10.3126 22.0277 10.3126ZM25.3104 7.50009H25.7794C25.9037 7.50009 26.023 7.54947 26.111 7.63738C26.1989 7.72529 26.2483 7.84451 26.2483 7.96883C26.2483 8.09315 26.1989 8.21238 26.111 8.30029C26.023 8.3882 25.9037 8.43758 25.7794 8.43758H25.3104C25.186 8.43758 25.0667 8.3882 24.9788 8.30029C24.8909 8.21238 24.8414 8.09315 24.8414 7.96883C24.8414 7.84451 24.8909 7.72529 24.9788 7.63738C25.0667 7.54947 25.186 7.50009 25.3104 7.50009ZM23.4346 7.50009H23.9035C24.0279 7.50009 24.1472 7.54947 24.2351 7.63738C24.3231 7.72529 24.3725 7.84451 24.3725 7.96883C24.3725 8.09315 24.3231 8.21238 24.2351 8.30029C24.1472 8.3882 24.0279 8.43758 23.9035 8.43758H23.4346C23.3102 8.43758 23.1909 8.3882 23.103 8.30029C23.015 8.21238 22.9656 8.09315 22.9656 7.96883C22.9656 7.84451 23.015 7.72529 23.103 7.63738C23.1909 7.54947 23.3102 7.50009 23.4346 7.50009ZM21.5588 7.50009H22.0277C22.1521 7.50009 22.2714 7.54947 22.3593 7.63738C22.4473 7.72529 22.4967 7.84451 22.4967 7.96883C22.4967 8.09315 22.4473 8.21238 22.3593 8.30029C22.2714 8.3882 22.1521 8.43758 22.0277 8.43758H21.5588C21.4344 8.43758 21.3151 8.3882 21.2272 8.30029C21.1392 8.21238 21.0898 8.09315 21.0898 7.96883C21.0898 7.84451 21.1392 7.72529 21.2272 7.63738C21.3151 7.54947 21.4344 7.50009 21.5588 7.50009ZM13.5866 22.9688H13.1176C12.9932 22.9688 12.8739 22.9194 12.786 22.8315C12.6981 22.7436 12.6486 22.6244 12.6486 22.5C12.6486 22.3757 12.6981 22.2565 12.786 22.1686C12.8739 22.0807 12.9932 22.0313 13.1176 22.0313H13.5866C13.7109 22.0313 13.8302 22.0807 13.9182 22.1686C14.0061 22.2565 14.0555 22.3757 14.0555 22.5C14.0555 22.6244 14.0061 22.7436 13.9182 22.8315C13.8302 22.9194 13.7109 22.9688 13.5866 22.9688ZM15.4624 22.9688H14.9934C14.869 22.9688 14.7498 22.9194 14.6618 22.8315C14.5739 22.7436 14.5245 22.6244 14.5245 22.5C14.5245 22.3757 14.5739 22.2565 14.6618 22.1686C14.7498 22.0807 14.869 22.0313 14.9934 22.0313H15.4624C15.5867 22.0313 15.706 22.0807 15.794 22.1686C15.8819 22.2565 15.9313 22.3757 15.9313 22.5C15.9313 22.6244 15.8819 22.7436 15.794 22.8315C15.706 22.9194 15.5867 22.9688 15.4624 22.9688ZM17.3382 22.9688H16.8692C16.7449 22.9688 16.6256 22.9194 16.5376 22.8315C16.4497 22.7436 16.4003 22.6244 16.4003 22.5C16.4003 22.3757 16.4497 22.2565 16.5376 22.1686C16.6256 22.0807 16.7449 22.0313 16.8692 22.0313H17.3382C17.4626 22.0313 17.5818 22.0807 17.6698 22.1686C17.7577 22.2565 17.8071 22.3757 17.8071 22.5C17.8071 22.6244 17.7577 22.7436 17.6698 22.8315C17.5818 22.9194 17.4626 22.9688 17.3382 22.9688Z" fill="#010181"/>
<path d="M25.7796 15.4688C26.0386 15.4688 26.2486 15.2589 26.2486 15C26.2486 14.7412 26.0386 14.5313 25.7796 14.5313C25.5206 14.5313 25.3107 14.7412 25.3107 15C25.3107 15.2589 25.5206 15.4688 25.7796 15.4688Z" fill="#010181"/>
<path d="M29.5307 11.2501H22.0274C21.9031 11.2501 21.7838 11.2994 21.6958 11.3874C21.6079 11.4753 21.5585 11.5945 21.5585 11.7188V18.2813C21.5585 18.4056 21.6079 18.5248 21.6958 18.6127C21.7838 18.7007 21.9031 18.75 22.0274 18.75H29.5307C29.6551 18.75 29.7743 18.7007 29.8623 18.6127C29.9502 18.5248 29.9996 18.4056 29.9996 18.2813V11.7188C29.9996 11.5945 29.9502 11.4753 29.8623 11.3874C29.7743 11.2994 29.6551 11.2501 29.5307 11.2501ZM25.7791 16.4063C25.5008 16.4063 25.2288 16.3238 24.9974 16.1693C24.7661 16.0148 24.5858 15.7952 24.4793 15.5382C24.3728 15.2812 24.3449 14.9985 24.3992 14.7257C24.4535 14.4529 24.5875 14.2024 24.7843 14.0057C24.981 13.809 25.2317 13.6751 25.5046 13.6208C25.7775 13.5666 26.0604 13.5944 26.3174 13.7008C26.5745 13.8073 26.7942 13.9875 26.9488 14.2188C27.1034 14.45 27.1859 14.7219 27.1859 15C27.1859 15.373 27.0377 15.7307 26.7739 15.9944C26.51 16.2581 26.1522 16.4063 25.7791 16.4063Z" fill="#010181"/>
<path d="M7.95909 24.8437H6.08327V26.7187C6.08327 26.8431 6.03386 26.9623 5.94592 27.0502C5.85797 27.1381 5.73869 27.1875 5.61432 27.1875C5.48994 27.1875 5.37066 27.1381 5.28272 27.0502C5.19477 26.9623 5.14536 26.8431 5.14536 26.7187V24.8437H3.26955C3.14517 24.8437 3.02589 24.7944 2.93795 24.7065C2.85 24.6185 2.80059 24.4993 2.80059 24.375C2.80059 24.2507 2.85 24.1315 2.93795 24.0435C3.02589 23.9556 3.14517 23.9062 3.26955 23.9062H5.14536V22.0313C5.14536 21.9069 5.19477 21.7877 5.28272 21.6998C5.37066 21.6119 5.48994 21.5625 5.61432 21.5625C5.73869 21.5625 5.85797 21.6119 5.94592 21.6998C6.03386 21.7877 6.08327 21.9069 6.08327 22.0313V23.9062H7.95909C8.08346 23.9062 8.20274 23.9556 8.29069 24.0435C8.37863 24.1315 8.42804 24.2507 8.42804 24.375C8.42804 24.4993 8.37863 24.6185 8.29069 24.7065C8.20274 24.7944 8.08346 24.8437 7.95909 24.8437ZM5.62088 18.7631C4.50918 18.7631 3.42244 19.0927 2.49809 19.71C1.57374 20.3274 0.853298 21.2049 0.427867 22.2315C0.00243541 23.2581 -0.108877 24.3878 0.108006 25.4777C0.324889 26.5675 0.860226 27.5686 1.64632 28.3544C2.43241 29.1401 3.43396 29.6752 4.5243 29.892C5.61465 30.1088 6.74482 29.9976 7.7719 29.5723C8.79898 29.1471 9.67684 28.4269 10.2945 27.503C10.9121 26.579 11.2418 25.4928 11.2418 24.3816C11.24 22.892 10.6473 21.4639 9.59353 20.4107C8.53978 19.3574 7.1111 18.7649 5.62088 18.7631Z" fill="#010181"/>
</svg>
