<svg width="30" height="30" viewBox="0 0 30 30" fill="none" xmlns="http://www.w3.org/2000/svg">
<path d="M2.80057 4.68758H25.3103V0.468848C25.3104 0.400618 25.2955 0.333207 25.2667 0.271324C25.238 0.20944 25.196 0.154576 25.1439 0.110564C25.0917 0.0665509 25.0306 0.0344505 24.9647 0.0165046C24.8989 -0.00144139 24.8299 -0.00480034 24.7626 0.00666234L2.72178 3.75665C2.61262 3.77524 2.51357 3.83185 2.44216 3.91644C2.37075 4.00103 2.33159 4.10815 2.33161 4.21883V4.77383C2.48179 4.71831 2.64044 4.68913 2.80057 4.68758Z" fill="#BFD0D4"/>
<path d="M22.0277 10.3125H28.1241V6.09381C28.1241 5.96949 28.0747 5.85026 27.9867 5.76235C27.8988 5.67445 27.7795 5.62506 27.6551 5.62506H2.80057C2.67619 5.62506 2.55691 5.67445 2.46897 5.76235C2.38102 5.85026 2.33161 5.96949 2.33161 6.09381V18.6563C3.33448 18.0778 4.4721 17.7737 5.62995 17.7745C6.78779 17.7752 7.92501 18.0809 8.9271 18.6607C9.9292 19.2404 10.7608 20.0738 11.3382 21.077C11.9156 22.0802 12.2185 23.2177 12.2162 24.375C12.2162 24.5334 12.2036 24.6881 12.1923 24.8437H27.6551C27.7795 24.8437 27.8988 24.7944 27.9867 24.7065C28.0747 24.6185 28.1241 24.4993 28.1241 24.375V19.6875H22.0277C21.6545 19.6875 21.2967 19.5394 21.0329 19.2756C20.769 19.0119 20.6208 18.6542 20.6208 18.2813V11.7188C20.6208 11.3458 20.769 10.9881 21.0329 10.7244C21.2967 10.4607 21.6545 10.3125 22.0277 10.3125ZM25.3103 7.50005H25.7793C25.9037 7.50005 26.0229 7.54944 26.1109 7.63735C26.1988 7.72525 26.2482 7.84448 26.2482 7.9688C26.2482 8.09312 26.1988 8.21235 26.1109 8.30026C26.0229 8.38817 25.9037 8.43755 25.7793 8.43755H25.3103C25.186 8.43755 25.0667 8.38817 24.9787 8.30026C24.8908 8.21235 24.8414 8.09312 24.8414 7.9688C24.8414 7.84448 24.8908 7.72525 24.9787 7.63735C25.0667 7.54944 25.186 7.50005 25.3103 7.50005ZM23.4345 7.50005H23.9035C24.0279 7.50005 24.1471 7.54944 24.2351 7.63735C24.323 7.72525 24.3724 7.84448 24.3724 7.9688C24.3724 8.09312 24.323 8.21235 24.2351 8.30026C24.1471 8.38817 24.0279 8.43755 23.9035 8.43755H23.4345C23.3101 8.43755 23.1909 8.38817 23.1029 8.30026C23.015 8.21235 22.9656 8.09312 22.9656 7.9688C22.9656 7.84448 23.015 7.72525 23.1029 7.63735C23.1909 7.54944 23.3101 7.50005 23.4345 7.50005ZM21.5587 7.50005H22.0277C22.152 7.50005 22.2713 7.54944 22.3593 7.63735C22.4472 7.72525 22.4966 7.84448 22.4966 7.9688C22.4966 8.09312 22.4472 8.21235 22.3593 8.30026C22.2713 8.38817 22.152 8.43755 22.0277 8.43755H21.5587C21.4343 8.43755 21.3151 8.38817 21.2271 8.30026C21.1392 8.21235 21.0898 8.09312 21.0898 7.9688C21.0898 7.84448 21.1392 7.72525 21.2271 7.63735C21.3151 7.54944 21.4343 7.50005 21.5587 7.50005ZM13.5865 22.9688H13.1175C12.9932 22.9688 12.8739 22.9194 12.7859 22.8315C12.698 22.7435 12.6486 22.6243 12.6486 22.5C12.6486 22.3757 12.698 22.2565 12.7859 22.1685C12.8739 22.0806 12.9932 22.0313 13.1175 22.0313H13.5865C13.7109 22.0313 13.8302 22.0806 13.9181 22.1685C14.006 22.2565 14.0555 22.3757 14.0555 22.5C14.0555 22.6243 14.006 22.7435 13.9181 22.8315C13.8302 22.9194 13.7109 22.9688 13.5865 22.9688ZM15.4623 22.9688H14.9934C14.869 22.9688 14.7497 22.9194 14.6618 22.8315C14.5738 22.7435 14.5244 22.6243 14.5244 22.5C14.5244 22.3757 14.5738 22.2565 14.6618 22.1685C14.7497 22.0806 14.869 22.0313 14.9934 22.0313H15.4623C15.5867 22.0313 15.706 22.0806 15.7939 22.1685C15.8819 22.2565 15.9313 22.3757 15.9313 22.5C15.9313 22.6243 15.8819 22.7435 15.7939 22.8315C15.706 22.9194 15.5867 22.9688 15.4623 22.9688ZM17.3381 22.9688H16.8692C16.7448 22.9688 16.6255 22.9194 16.5376 22.8315C16.4496 22.7435 16.4002 22.6243 16.4002 22.5C16.4002 22.3757 16.4496 22.2565 16.5376 22.1685C16.6255 22.0806 16.7448 22.0313 16.8692 22.0313H17.3381C17.4625 22.0313 17.5818 22.0806 17.6697 22.1685C17.7577 22.2565 17.8071 22.3757 17.8071 22.5C17.8071 22.6243 17.7577 22.7435 17.6697 22.8315C17.5818 22.9194 17.4625 22.9688 17.3381 22.9688Z" fill="#BFD0D4"/>
<path d="M25.7793 15.4688C26.0383 15.4688 26.2482 15.2589 26.2482 15C26.2482 14.7412 26.0383 14.5313 25.7793 14.5313C25.5203 14.5313 25.3103 14.7412 25.3103 15C25.3103 15.2589 25.5203 15.4688 25.7793 15.4688Z" fill="#BFD0D4"/>
<path d="M29.5308 11.25H22.0276C21.9032 11.25 21.7839 11.2994 21.696 11.3873C21.608 11.4752 21.5586 11.5945 21.5586 11.7188V18.2813C21.5586 18.4056 21.608 18.5248 21.696 18.6127C21.7839 18.7006 21.9032 18.75 22.0276 18.75H29.5308C29.6552 18.75 29.7745 18.7006 29.8624 18.6127C29.9504 18.5248 29.9998 18.4056 29.9998 18.2813V11.7188C29.9998 11.5945 29.9504 11.4752 29.8624 11.3873C29.7745 11.2994 29.6552 11.25 29.5308 11.25ZM25.7792 16.4063C25.501 16.4063 25.229 16.3238 24.9976 16.1693C24.7662 16.0148 24.5859 15.7951 24.4794 15.5382C24.373 15.2812 24.3451 14.9985 24.3994 14.7257C24.4537 14.4529 24.5877 14.2023 24.7844 14.0057C24.9812 13.809 25.2318 13.6751 25.5047 13.6208C25.7776 13.5665 26.0605 13.5944 26.3176 13.7008C26.5747 13.8073 26.7944 13.9875 26.949 14.2188C27.1036 14.45 27.1861 14.7219 27.1861 15C27.1861 15.373 27.0378 15.7307 26.774 15.9944C26.5102 16.2581 26.1523 16.4063 25.7792 16.4063Z" fill="#BFD0D4"/>
<path d="M7.95908 24.8438H3.26955C3.14517 24.8438 3.02589 24.7944 2.93795 24.7065C2.85 24.6186 2.80059 24.4993 2.80059 24.375C2.80059 24.2507 2.85 24.1315 2.93795 24.0436C3.02589 23.9556 3.14517 23.9063 3.26955 23.9063H7.95908C8.08346 23.9063 8.20274 23.9556 8.29068 24.0436C8.37863 24.1315 8.42804 24.2507 8.42804 24.375C8.42804 24.4993 8.37863 24.6186 8.29068 24.7065C8.20274 24.7944 8.08346 24.8438 7.95908 24.8438ZM5.62088 18.7632C4.50918 18.7632 3.42244 19.0927 2.49809 19.71C1.57374 20.3274 0.853297 21.2049 0.427866 22.2315C0.00243541 23.2581 -0.108877 24.3878 0.108006 25.4777C0.324889 26.5675 0.860226 27.5686 1.64632 28.3544C2.43241 29.1401 3.43396 29.6752 4.5243 29.892C5.61465 30.1088 6.74482 29.9976 7.7719 29.5723C8.79898 29.1471 9.67684 28.4269 10.2945 27.503C10.9121 26.5791 11.2418 25.4928 11.2418 24.3816C11.24 22.892 10.6473 21.4639 9.59352 20.4107C8.53978 19.3574 7.1111 18.7649 5.62088 18.7632Z" fill="#BFD0D4"/>
</svg>
