<svg width="25" height="23" viewBox="0 0 25 23" fill="none" xmlns="http://www.w3.org/2000/svg">
<path fill-rule="evenodd" clip-rule="evenodd" d="M23.0263 2.49415C22.9183 1.10088 21.7509 0 20.3305 0H7.67551C6.18408 0 4.9707 1.21337 4.9707 2.70481V10.3852C4.9707 10.3852 5.85837 10.1278 6.23426 10.0753V8.85666V5.09772C6.23426 4.30302 6.88081 3.65647 7.67551 3.65647H22.2952C23.0899 3.65647 23.7364 4.30302 23.7364 5.09772V7.30255H19.7078C18.1114 7.30255 16.8126 8.60137 16.8126 10.1978C16.8126 11.7942 18.1114 13.093 19.7078 13.093H23.7364V15.2193C23.7364 16.014 23.0898 16.6606 22.2951 16.6606H14.1305H12.8676C12.8596 16.7958 12.8474 16.9132 12.8243 17.0792C12.7777 17.4136 12.641 17.9242 12.641 17.9242H22.2952C23.7866 17.9242 25 16.7108 25 15.2193V5.09772C24.9999 3.85966 24.1635 2.81399 23.0263 2.49415ZM20.3305 1.26356H7.67551C6.88081 1.26356 6.23426 1.91011 6.23426 2.70481V2.81059C6.65187 2.54651 7.14596 2.39295 7.67551 2.39295H21.7374C21.5944 1.7477 21.0182 1.26356 20.3305 1.26356ZM19.7078 11.8295H23.7364V8.56611H19.7078C18.8081 8.56611 18.0762 9.29807 18.0762 10.1978C18.0762 11.0975 18.8081 11.8295 19.7078 11.8295Z" fill="#010181"/>
<path d="M19.9424 10.9035C20.3057 10.9035 20.6002 10.609 20.6002 10.2457C20.6002 9.88244 20.3057 9.58795 19.9424 9.58795C19.5792 9.58795 19.2847 9.88244 19.2847 10.2457C19.2847 10.609 19.5792 10.9035 19.9424 10.9035Z" fill="#010181"/>
<path fill-rule="evenodd" clip-rule="evenodd" d="M6.64581 22.6694C10.3162 22.6694 13.2916 19.6939 13.2916 16.0236C13.2916 12.3532 10.3162 9.37775 6.64581 9.37775C2.97543 9.37775 0 12.3532 0 16.0236C0 19.6939 2.97543 22.6694 6.64581 22.6694ZM12.1485 16.0236C12.1538 12.9845 9.68484 10.5155 6.64581 10.5209C3.61213 10.5263 1.15718 12.9899 1.16253 16.0236C1.16787 19.0519 3.61748 21.5015 6.64581 21.5068C9.67949 21.5122 12.1431 19.0572 12.1485 16.0236Z" fill="#010181"/>
<path d="M6.02373 12.1056L3.47265 13.9076C3.47265 13.9076 3.39014 13.9926 3.39014 14.0462C3.39014 14.0997 3.47265 14.1848 3.47265 14.1848L6.02373 15.9867C6.02373 15.9867 6.16233 16.1253 6.43956 15.8481C6.71678 15.5709 6.57817 15.4323 6.57817 15.4323L5.19207 14.462L9.62343 14.462C9.62343 14.462 9.90064 14.462 9.90064 14.0462C9.90064 13.6303 9.62343 13.6303 9.62343 13.6303L5.19207 13.6303L6.57817 12.6601C6.57817 12.6601 6.71677 12.5215 6.43955 12.2442C6.16233 11.967 6.02373 12.1056 6.02373 12.1056Z" fill="#010181"/>
<path d="M7.27559 19.9416L9.82667 18.1397C9.82667 18.1397 9.90918 18.0546 9.90918 18.0011C9.90918 17.9475 9.82667 17.8625 9.82667 17.8625L7.27559 16.0605C7.27559 16.0605 7.13698 15.9219 6.85976 16.1991C6.58254 16.4764 6.72115 16.615 6.72115 16.615L8.10725 17.5852L3.67589 17.5852C3.67589 17.5852 3.39867 17.5852 3.39867 18.0011C3.39867 18.4169 3.67589 18.4169 3.67589 18.4169L8.10725 18.4169L6.72115 19.3872C6.72115 19.3872 6.58254 19.5258 6.85976 19.803C7.13698 20.0802 7.27559 19.9416 7.27559 19.9416Z" fill="#010181"/>
</svg>
